<?xml version="1.0" encoding="utf-8"?>

<!DOCTYPE svg PUBLIC "-//W3C//DTD SVG 1.1//EN" "http://www.w3.org/Graphics/SVG/1.1/DTD/svg11.dtd">
<svg version="1.1" id="Layer_1" xmlns="http://www.w3.org/2000/svg" xmlns:xlink="http://www.w3.org/1999/xlink" x="0px" y="0px"
	 viewBox="0 0 1653.098 1653.098" enable-background="new 0 0 1653.098 1653.098" xml:space="preserve">
<g>
	<g>
		<path d="M1625.736,981.756c-3.064-12.21-14.161-19.277-25.755-16.783c-19.903-13.143-38.088-24.268-55.394-34.225
			c8.082-10.05,13.234-21.357,14.564-34.518l-3.019-0.345c3.516-33.984-19.373-61.557-50.943-67.927
			c-61.632-12.477-119.093,54.546-63.632,103.56c-0.723,0.57-1.419,1.163-2.126,1.745c28.319,24.96,71.572,29.292,99.823,3.141
			c3.177,1.842,6.354,3.701,9.522,5.589c-25.443,21.242-51.806,40.066-78.724,56.401c-11.969-9.887-32.196-4.603-34.595,10.085
			c-5.017-0.167-10.024-0.364-15.022-0.592l1.125-3.797l-7.332-2.184c-2.711,8.991-0.692,2.743-4.839,15.498l7.26,2.377
			c0.594-1.818,1.189-3.636,1.782-5.451c19.769,0.998,17.085,0.378,17.581,1.378c1.514,5.957,6.359,11.437,12.645,14.196
			c-2.647,10.989-1.346,5.53-2.815,11.153c-37.625-8.263-78.849,11.424-81.086,49.386c-1.475,21.295,10.856,47.932,34.89,63.556
			c-0.485,0.742-0.992,1.474-1.523,2.189c47.156,32.77,108.656-2.526,104.326-57.76c12.798-1.839,23.474-3.472,38.76-6.339
			c4.256,4.238,8.453,8.568,12.651,12.927c0.37,9.672,0.28,5.781,0.518,21.397c0.227,10.836,10.129,9.834,12.748,4.15
			c7.47-16.515,13.875-33.517,19.649-50.712c1.789-5.273-3.936-9.151-7.703-5.397c-20,20.173-14.312,14.718-21.887,22.635
			c-4.087-4.19-8.227-8.424-12.414-12.561c14.07-40.43,24.494-76.195,33.112-124.537c7.003,4.5,13.854,9.089,20.764,13.771
			c8.471-3.458,16.691,1.466,19.337,9.032c2.957,8.059-0.188,12.527-9.166,30.782c2.227,1.238,4.451,2.473,6.686,3.715
			C1623.408,1001.279,1628.756,993.439,1625.736,981.756 M1570.926,955.588c-8.231,47.459-19.127,85.94-32.13,123.051
			c-21.242-20.561-43.281-39.993-63.45-56.307c1.049-1.905,1.745-3.983,2.118-6.118l14.549-0.005l-1.606,5.402l7.277,2.135
			c0.231-0.779,4.949-17.066,4.912-17.877l-7.257-1.928l-1.359,4.983c-5.636,0.07-11.261,0.131-16.876,0.136
			c-0.437-1.801-1.153-3.543-2.106-5.17c27.599-16.673,54.63-35.936,80.716-57.705
			C1560.792,949.273,1565.865,952.402,1570.926,955.588 M1470.681,1027.634c22.873,18.918,42.981,37.089,63.968,57.735
			c-11.129,2.027-22.211,3.854-33.201,5.455c-5.379-24.748-23.748-42.902-47.685-50.544c0.814-2.836,1.51-5.711,2.284-8.556
			C1461.335,1032.225,1466.668,1030.724,1470.681,1027.634 M1542.416,872.029c6.526,18.334,1.933,38.227-10.425,51.591
			c-31.389-17.531-37.89-17.842-40.245-28.376c-0.603-2.542-0.456-7.595-0.462-7.612c-0.992-3.129-9.137-5.672-7.271,6.872
			c2.04,15.582,13.949,18.417,42.286,34.517c-30.425,25.095-80.98,8.147-93.344-27.67c-19.212-57.471,77.403-92.22,106.276-36.611
			C1540.44,867.035,1541.507,869.467,1542.416,872.029 M1488.385,1100.204c2.618,35.618-32.691,65.199-71.139,51.274
			c-43.174-15.656-59.705-74.255-16.128-96.021c13.272-6.63,28.023-7.899,42.118-4.826c-4.099,14.89-9.481,30.817-13.8,43.051
			c-5.965,1.417-7.42,7.481-4.089,11.564c3.61,4.648,11.08,4.434,13.694-0.589
			C1452.878,1103.852,1470.617,1102.351,1488.385,1100.204 M1487.345,1092.803c-16.605,2.11-30.755,3.536-48.797,4.769l-1.757-1.932
			c4.511-12.915,10.142-29.715,13.672-42.883C1469.349,1059.115,1483.511,1074.584,1487.345,1092.803z"/>
	</g>
	<g>
		<path d="M1440.903,1360.611c3.3-11.429-2.128-23.624-13.942-27.476c-9.633-19.493-20.009-38.701-30.707-57.332
			c13.241-5.055,22.451-12.62,29.921-22.549l-2.438-1.813c33.971-46.861-7.528-107.691-67.16-103.279
			c-38.406,2.608-63.631,34.599-49.85,76.633c-0.919,0.125-1.827,0.283-2.738,0.427c11.767,35.645,47.392,61.364,84.751,52.746
			c1.837,3.197,3.664,6.408,5.47,9.639c-32.653,5.616-64.887,8.704-96.367,9.4c-5.281-14.068-24.986-20.477-35.029-8.576
			c-4.27-2.662-8.517-5.343-12.741-8.047l2.904-2.703l-5.257-5.559c-11.058,10.289-7.901,7.406-11.975,11.015l5.099,5.688
			c1.442-1.261,2.895-2.512,4.28-3.833c16.681,10.747,14.575,8.905,14.504,9.938c-1.526,5.508-0.395,12.859,3.88,18.664
			l-8.004,8.282c-59.907-54.623-131.848,5.657-96.48,74.828c-0.798,0.386-1.596,0.771-2.4,1.159
			c24.366,51.509,94.928,52.372,119.261,1.993c12.023,4.81,24.283,9.491,36.726,13.851c1.606,5.837,3.042,11.633,4.504,17.504
			c-6.567,12.384-6.664,12.454-10.218,18.782c-5.246,9.469,3.868,13.543,8.978,9.963c14.794-10.722,32.014-24.795,42.274-34.088
			c4.203-3.638,1.19-9.847-3.965-8.509c-5.56,1.415-20.55,5.599-30.239,8.649c-1.491-5.718-2.945-11.429-4.495-17.089
			c33.788-28.649,63.145-58.228,90.898-91.168c3.776,7.381,7.474,14.843,11.125,22.369c12.475,1.712,17.903,17.933,5.45,28.155
			c-1.852,1.55-4.174,3.072-6.93,4.879c-2.756,1.806-5.96,3.883-9.654,6.468c1.315,2.192,2.628,4.38,3.947,6.579
			C1429.082,1376.229,1437.553,1372.261,1440.903,1360.611 M1406.565,1310.478c-22.887,26.855-48.317,55.251-89.335,90.375
			c-8.198-28.226-15.576-50.905-26.816-80.485c1.863-1.125,3.557-2.523,4.908-4.228l12.555,7.226l-4.032,3.941l5.233,5.489
			c0.462-0.451,12.901-12.498,13.184-13.04l-5.318-5.302c-1.193,1.24-2.428,2.441-3.674,3.632c-4.924-2.77-9.836-5.542-14.71-8.357
			c0.534-1.768,0.796-3.625,0.795-5.503c32.262-0.622,65.329-3.724,98.781-9.492C1401.018,1299.981,1403.8,1305.2,1406.565,1310.478
			 M1283.691,1322.598c9.1,24.181,18.257,52.034,26.557,81.971c-10.564-3.702-21.141-7.735-31.475-11.853
			c7.531-23.257,1.418-48.411-16.053-67.602c2.095-2.082,4.192-4.166,6.286-6.247
			C1273.187,1321.838,1278.422,1323.353,1283.691,1322.598 M1423.824,1223.908c-3.475,18.693-17.309,34.033-34.902,39.401
			c-19.052-31.981-21.565-32.187-21.319-40.38c0.175-6.852,3.917-9.462,4.179-11.162c0.778-3.625-4.291-6.154-6.485-3.347
			c-13.268,16.096,1.998,32.516,15.994,56.707c-62.199,9.79-98.167-87.01-34.204-104.813
			C1385.755,1149.197,1431.633,1180.551,1423.824,1223.908 M1262.789,1394.341c-12.591,25.789-44.352,36.779-70.997,22.276
			c-53.531-28.867-35.68-121.784,30.882-102.363c8.901,2.632,17.734,7.28,25.738,14.567c-10.715,10.52-25.485,23.847-33.462,30.454
			c-9.544-2.913-12.98,10.137-4.709,14.497c2.339,1.229,5.226,1.394,7.557-0.192
			C1234.823,1382.036,1248.11,1388.083,1262.789,1394.341 M1265.605,1387.441c-15.264-6.424-30.062-13.04-44.698-20.248
			l-0.555-2.546c10.257-8.7,22.295-19.609,33.26-30.372C1266.298,1348.649,1271.539,1368.739,1265.605,1387.441z"/>
	</g>
	<g>
		<path d="M1091.645,1596.381c8.868-8.603,9.773-21.778,1.681-30.737c1.223-18.556,1.972-40.434,2.032-65.042
			c14.247,2.175,26.894,0.15,37.187-4.627l-1.209-2.788c48.64-22.078,49.171-87.515,1.323-118.486
			c-36.22-23.439-79.973-9.565-89.388,37.008c-0.853-0.338-1.712-0.642-2.568-0.961c-7.588,36.582,10.24,76.678,47.074,88.007
			c-0.008,3.679-0.031,7.365-0.084,11.059c-31.109-11.444-60.571-24.897-88.157-40.071c2.59-15.374-12.124-30.171-25.997-24.931
			c-2.357-4.427-4.68-8.844-6.978-13.296l3.848-0.938l-1.766-7.444c-5.462,1.315,1.064-0.145-15.849,3.547l1.562,7.477
			c1.869-0.405,3.739-0.809,5.607-1.213c8.977,17.564,8.21,14.987,7.577,15.914c-4.408,4.286-6.731,11.266-5.986,18.087
			c-3.359,1.013-1.594,0.523-11.078,3.097c-3.254-10.295-8.303-19.165-14.381-26.568c-41.306-50.521-103.576-15.625-106.63,42.978
			c-0.885-0.063-1.77-0.126-2.661-0.189c-4.779,57.631,57.177,92.673,102.208,61.465c7.867,10.077,14.26,18.09,24.833,30.416
			c-1.546,5.814-3.2,11.624-4.88,17.448c-13.751,8.734-19.907,11.668-21.353,13.347c-4.201,4.463-0.339,11.507,5.848,10.893
			c27.042-2.939,38.203-5.317,53.728-8.262c5.461-1.077,5.958-8.005,0.833-9.367c-13.888-3.777-10.018-2.788-30.538-7.724
			c1.583-5.674,3.199-11.294,4.697-16.971c46.358-8.379,82.006-18.541,124.441-33.483c-0.425,8.261-0.961,16.554-1.571,24.879
			c9.969,7.723,6.512,24.547-9.372,27.127c-5.321,0.846-13.019,0.963-20.068,1.541c0.04,2.552,0.079,5.099,0.119,7.659
			C1071.322,1604.183,1082.792,1605.12,1091.645,1596.381 M1086.98,1535.837c-41.371,15.111-83.824,26.5-122.682,33.537
			c6.767-26.988,12.505-54.254,17.138-83.069c2.171-0.054,4.316-0.501,6.349-1.257l7.257,12.581l-5.475,1.338l1.781,7.372
			c0.93-0.229,17.124-4.141,17.942-4.669l-1.95-7.251l-4.988,1.34c-2.87-4.842-5.723-9.661-8.54-14.571
			c1.355-1.23,2.499-2.749,3.433-4.391c28.218,15.593,58.394,29.402,90.28,41.135
			C1087.388,1523.884,1087.212,1529.851,1086.98,1535.837 M974.501,1484.844c-4.73,28.103-10.759,56.19-18.109,84.251
			c-7.311-8.642-14.408-17.233-21.29-26.021c17.479-15.571,25.683-40.344,19.997-66.575c8.249-2.074,4.282-1.093,8.565-2.245
			C965.867,1479.079,969.825,1482.934,974.501,1484.844 M1145.149,1469.374c-12.018,14.12-31.167,20.942-49.91,16.735
			c-0.542-37.336-2.643-38.649,1.677-45.614c3.461-5.623,8.133-6.366,9.173-7.613c2.49-2.735-0.645-7.459-3.954-6.141
			c-19.784,8.12-14.596,28.509-14.408,57.156c-37.914-14.366-46.869-67.371-22.632-94.69
			C1107.21,1341.141,1190.125,1417.451,1145.149,1469.374 M920.458,1536.457c-16.088,11.221-39.987,12.113-58.296-0.865
			c-30.611-22.158-28.355-68.141-4.127-91.515c29.044-28.695,70.854-9.33,82.844,28.492c-27.032,6.495-30.971,7.048-44.21,9.553
			c-4.066-4.363-10.137-2.887-12.07,2.219c-2.224,5.456,1.695,11.812,7.354,11.553
			C899.985,1508.21,912.475,1525.891,920.458,1536.457 M926.347,1531.834c-9.259-12.174-17.83-24.014-28.498-39.876l0.796-2.491
			c26.618-5.047,32.39-6.803,43.999-9.565C946.366,1498.472,940.953,1518.608,926.347,1531.834z"/>
	</g>
	<g>
		<path d="M671.342,1625.736c12.214-3.065,19.276-14.164,16.783-25.755c13.121-19.87,24.25-38.057,34.225-55.394
			c9.934,7.989,21.224,13.221,34.518,14.564l0.345-3.019c33.821,3.499,61.524-19.213,67.927-50.943
			c12.475-61.623-54.554-119.084-103.56-63.632c-0.57-0.723-1.163-1.419-1.745-2.126c-24.957,28.316-29.295,71.569-3.141,99.823
			c-1.842,3.177-3.701,6.354-5.589,9.522c-21.242-25.443-40.066-51.806-56.401-78.724c9.887-11.969,4.603-32.196-10.085-34.596
			c0.167-5.017,0.364-10.024,0.592-15.022l3.797,1.125l2.184-7.332c-8.991-2.711-2.748-0.694-15.498-4.839l-2.377,7.26
			c1.818,0.594,3.636,1.189,5.451,1.782c-0.998,19.769-0.378,17.085-1.378,17.581c-5.957,1.514-11.437,6.359-14.196,12.645
			c-10.989-2.647-5.53-1.346-11.153-2.815c8.265-37.635-11.43-78.849-49.386-81.086c-21.296-1.475-47.932,10.856-63.556,34.89
			c-0.742-0.485-1.474-0.992-2.189-1.523c-32.77,47.156,2.526,108.656,57.76,104.326c1.843,12.828,3.477,23.501,6.339,38.76
			c-4.238,4.256-8.568,8.453-12.928,12.651c-9.536,0.365-5.793,0.281-21.397,0.518c-10.836,0.227-9.835,10.129-4.15,12.748
			c16.515,7.47,33.517,13.875,50.712,19.649c5.273,1.789,9.15-3.936,5.397-7.703c-19.963-19.792-14.971-14.554-22.635-21.887
			c4.19-4.087,8.424-8.227,12.561-12.414c40.446,14.075,76.208,24.496,124.537,33.112c-4.5,7.003-9.09,13.854-13.771,20.764
			c3.459,8.471-1.466,16.691-9.032,19.337c-8.036,2.948-12.431-0.141-30.782-9.166c-1.238,2.227-2.473,4.451-3.715,6.686
			C651.75,1623.374,659.644,1628.76,671.342,1625.736 M697.51,1570.926c-47.459-8.231-85.94-19.127-123.051-32.13
			c20.599-21.282,40.026-43.323,56.307-63.45c1.905,1.049,3.983,1.745,6.118,2.118l0.005,14.549l-5.402-1.606l-2.135,7.277
			c0.779,0.231,17.066,4.949,17.877,4.912l1.928-7.257l-4.983-1.359c-0.07-5.636-0.131-11.261-0.136-16.876
			c1.801-0.437,3.543-1.153,5.17-2.106c16.673,27.599,35.936,54.63,57.705,80.716
			C703.825,1560.792,700.696,1565.865,697.51,1570.926 M625.465,1470.681c-18.966,22.931-37.14,43.033-57.735,63.968
			c-2.027-11.129-3.853-22.211-5.455-33.201c24.748-5.379,42.902-23.748,50.544-47.685c2.836,0.814,5.711,1.51,8.556,2.284
			C620.873,1461.335,622.374,1466.668,625.465,1470.681 M781.069,1542.415c-18.345,6.53-38.237,1.924-51.591-10.425
			c17.447-31.238,17.785-37.877,28.376-40.245c2.542-0.603,7.595-0.456,7.612-0.462c3.129-0.992,5.672-9.137-6.872-7.271
			c-15.594,2.041-18.465,14.032-34.517,42.286c-25.116-30.45-8.116-80.991,27.67-93.344c57.466-19.21,92.222,77.401,36.611,106.276
			C786.063,1540.44,783.631,1541.507,781.069,1542.415 M552.894,1488.385c-35.734,2.627-65.162-32.793-51.274-71.139
			c15.658-43.177,74.256-59.701,96.021-16.128c6.63,13.273,7.899,28.023,4.826,42.118c-14.918-4.106-30.831-9.486-43.051-13.8
			c-1.417-5.965-7.481-7.42-11.564-4.089c-4.648,3.61-4.435,11.08,0.589,13.694C549.241,1452.795,550.739,1470.548,552.894,1488.385
			 M560.296,1487.345c-2.106-16.575-3.534-30.718-4.769-48.797l1.932-1.758c12.914,4.511,29.715,10.142,42.883,13.672
			C593.983,1469.35,578.514,1483.511,560.296,1487.345z"/>
	</g>
	<g>
		<path d="M292.487,1440.903c11.418,3.297,23.621-2.118,27.476-13.942c19.493-9.633,38.701-20.009,57.332-30.707
			c5.066,13.269,12.643,22.469,22.549,29.921l1.813-2.438c46.862,33.97,107.69-7.528,103.279-67.16
			c-2.611-38.432-34.621-63.624-76.633-49.85c-0.125-0.919-0.283-1.827-0.427-2.738c-35.69,11.781-61.356,47.424-52.746,84.751
			c-3.197,1.837-6.408,3.664-9.639,5.47c-5.616-32.653-8.704-64.887-9.4-96.367c14.033-5.268,20.501-24.965,8.576-35.029
			c2.662-4.27,5.343-8.517,8.047-12.741l2.703,2.904l5.559-5.257c-10.291-11.06-7.406-7.901-11.015-11.975l-5.688,5.099
			c1.261,1.442,2.512,2.895,3.833,4.28c-10.747,16.681-8.905,14.575-9.938,14.504c-5.507-1.526-12.857-0.396-18.664,3.88
			l-8.282-8.004c54.379-59.639-5.401-131.979-74.828-96.48c-0.386-0.798-0.771-1.596-1.159-2.4
			c-51.509,24.366-52.372,94.928-1.993,119.261c-4.81,12.023-9.491,24.283-13.851,36.726c-5.837,1.606-11.633,3.042-17.503,4.504
			c-12.368-6.558-12.459-6.667-18.782-10.218c-9.469-5.246-13.543,3.868-9.963,8.978c10.665,14.715,24.738,31.951,34.088,42.274
			c3.639,4.203,9.847,1.19,8.509-3.965c-1.415-5.56-5.6-20.553-8.649-30.239c5.718-1.491,11.429-2.945,17.089-4.495
			c28.649,33.788,58.228,63.145,91.168,90.898c-7.381,3.776-14.843,7.474-22.369,11.125c-1.712,12.475-17.933,17.903-28.155,5.45
			c-1.55-1.852-3.072-4.174-4.879-6.929c-1.806-2.756-3.883-5.96-6.468-9.655c-2.192,1.315-4.38,2.628-6.579,3.947
			C276.87,1429.082,280.837,1437.553,292.487,1440.903 M342.62,1406.565c-26.855-22.887-55.251-48.317-90.375-89.335
			c28.158-8.178,50.844-15.553,80.485-26.816c1.125,1.863,2.523,3.557,4.228,4.908l-7.226,12.555l-3.941-4.032l-5.489,5.233
			c0.449,0.46,12.498,12.901,13.04,13.184l5.302-5.318c-1.24-1.193-2.441-2.428-3.632-3.674c2.77-4.924,5.542-9.836,8.357-14.71
			c1.768,0.534,3.625,0.796,5.503,0.795c0.622,32.262,3.724,65.329,9.493,98.781C353.117,1401.018,347.898,1403.8,342.62,1406.565
			 M330.501,1283.691c-24.245,9.124-52.1,18.276-81.971,26.557c3.702-10.564,7.735-21.141,11.853-31.475
			c23.21,7.515,48.372,1.454,67.602-16.054c2.082,2.095,4.166,4.192,6.246,6.286C331.328,1273.092,329.73,1278.319,330.501,1283.691
			 M429.19,1423.824c-18.693-3.475-34.033-17.309-39.401-34.902c31.981-19.052,32.187-21.565,40.38-21.319
			c6.852,0.175,9.462,3.917,11.162,4.179c3.625,0.778,6.154-4.291,3.347-6.485c-16.34-13.469-33.596,2.623-56.707,15.994
			c-9.79-62.196,87.009-98.172,104.813-34.204C503.909,1385.782,472.519,1431.628,429.19,1423.824 M258.757,1262.789
			c-25.789-12.591-36.78-44.352-22.276-70.997c28.742-53.298,121.821-35.81,102.363,30.882c-2.632,8.901-7.279,17.734-14.567,25.738
			c-10.52-10.715-23.847-25.485-30.454-33.462c2.913-9.544-10.137-12.98-14.497-4.709c-1.229,2.339-1.394,5.226,0.192,7.557
			C271.181,1234.583,265.139,1247.819,258.757,1262.789 M265.657,1265.605c6.424-15.264,13.04-30.062,20.248-44.698l2.546-0.555
			c8.7,10.257,19.609,22.295,30.372,33.26C304.449,1266.298,284.359,1271.539,265.657,1265.605z"/>
	</g>
	<g>
		<path d="M56.717,1091.645c8.603,8.868,21.778,9.773,30.737,1.681c18.556,1.223,40.434,1.972,65.042,2.032
			c-2.175,14.247-0.15,26.894,4.627,37.187l2.788-1.209c22.079,48.64,87.514,49.171,118.486,1.323
			c23.413-36.181,9.617-79.962-37.009-89.388c0.338-0.853,0.642-1.712,0.961-2.568c-36.408-7.552-76.638,10.108-88.006,47.074
			c-3.679-0.008-7.365-0.031-11.059-0.084c11.444-31.109,24.897-60.571,40.071-88.157c15.372,2.59,30.172-12.123,24.931-25.997
			c4.427-2.357,8.844-4.68,13.296-6.978l0.938,3.848l7.444-1.765c-1.294-5.372,0.136,1.022-3.547-15.849l-7.477,1.562
			c0.405,1.869,0.809,3.739,1.213,5.607c-17.564,8.977-14.987,8.21-15.914,7.577c-4.286-4.408-11.266-6.731-18.087-5.986
			c-1.011-3.354-0.525-1.602-3.097-11.078c10.295-3.254,19.165-8.303,26.568-14.381c50.504-41.291,15.641-103.576-42.978-106.63
			c0.063-0.885,0.126-1.77,0.189-2.661c-57.637-4.78-92.671,57.181-61.465,102.208c-9.971,7.785-18.017,14.197-30.416,24.833
			c-5.814-1.546-11.624-3.2-17.448-4.88c-8.714-13.721-11.669-19.907-13.347-21.353c-4.463-4.201-11.507-0.339-10.893,5.848
			c2.937,27.014,5.309,38.16,8.262,53.728c1.077,5.461,8.005,5.958,9.367,0.833c3.774-13.878,2.786-10.01,7.724-30.538
			c5.674,1.583,11.294,3.199,16.971,4.697c8.382,46.374,18.547,82.021,33.483,124.441c-8.261-0.425-16.554-0.961-24.879-1.571
			c-7.723,9.969-24.547,6.512-27.127-9.372c-0.846-5.324-0.963-13.016-1.541-20.068c-2.551,0.04-5.099,0.079-7.658,0.119
			C48.915,1071.322,47.978,1082.792,56.717,1091.645 M117.261,1086.98c-15.149-41.475-26.519-83.931-33.537-122.682
			c26.988,6.767,54.256,12.505,83.069,17.138c0.054,2.171,0.501,4.316,1.257,6.349l-12.582,7.257l-1.338-5.475l-7.372,1.781
			c0.228,0.93,4.141,17.124,4.669,17.942l7.251-1.95l-1.34-4.988c4.842-2.87,9.661-5.723,14.571-8.54
			c1.23,1.355,2.749,2.499,4.391,3.433c-15.592,28.218-29.402,58.394-41.135,90.28
			C129.215,1087.388,123.247,1087.212,117.261,1086.98 M168.254,974.501c-28.103-4.73-56.19-10.759-84.251-18.109
			c8.642-7.311,17.233-14.407,26.021-21.29c15.571,17.48,40.345,25.683,66.575,19.997c2.037,8.104,1.145,4.475,2.245,8.565
			C174.019,965.867,170.165,969.825,168.254,974.501 M183.724,1145.149c-14.121-12.019-20.942-31.167-16.735-49.91
			c37.336-0.542,38.649-2.644,45.614,1.676c5.63,3.465,6.359,8.127,7.613,9.173c2.735,2.49,7.46-0.645,6.141-3.954
			c-8.12-19.784-28.509-14.596-57.156-14.408c14.366-37.914,67.371-46.869,94.69-22.632
			C311.897,1107.157,235.696,1190.167,183.724,1145.149 M116.641,920.457c-11.163-16.006-12.168-39.908,0.864-58.296
			c22.081-30.505,68.041-28.458,91.515-4.127c28.696,29.045,9.329,70.855-28.492,82.844c-6.494-27.032-7.048-30.972-9.553-44.21
			c4.383-4.084,2.86-10.147-2.219-12.07c-5.456-2.224-11.812,1.695-11.553,7.354C144.896,899.98,127.217,912.468,116.641,920.457
			 M121.264,926.347c12.16-9.248,23.981-17.808,39.876-28.498l2.491,0.796c5.041,26.583,6.792,32.342,9.565,43.999
			C154.626,946.366,134.49,940.953,121.264,926.347z"/>
	</g>
	<g>
		<path d="M27.362,671.342c3.065,12.214,14.164,19.276,25.755,16.783c19.914,13.15,38.097,24.272,55.394,34.224
			c-8.082,10.05-13.234,21.357-14.564,34.518l3.019,0.345c-3.505,33.887,19.277,61.537,50.943,67.927
			c61.834,12.518,118.899-54.717,63.632-103.56c0.723-0.57,1.419-1.163,2.126-1.745c-28.319-24.96-71.572-29.292-99.823-3.141
			c-3.177-1.842-6.354-3.701-9.522-5.589c25.443-21.242,51.806-40.066,78.724-56.401c11.969,9.887,32.196,4.603,34.596-10.085
			c5.018,0.167,10.024,0.364,15.022,0.592l-1.125,3.797l7.332,2.184c2.711-8.991,0.694-2.748,4.839-15.498l-7.26-2.377
			c-0.594,1.818-1.189,3.636-1.782,5.451c-19.768-0.998-17.085-0.378-17.581-1.378c-1.514-5.957-6.359-11.437-12.645-14.196
			c2.646-10.988,1.346-5.531,2.815-11.153c37.636,8.266,78.849-11.432,81.085-49.386c1.475-21.296-10.856-47.933-34.89-63.556
			c0.485-0.742,0.992-1.474,1.523-2.189c-47.157-32.77-108.656,2.526-104.326,57.76c-12.814,1.841-23.489,3.475-38.76,6.339
			c-4.256-4.238-8.453-8.568-12.651-12.928c-0.365-9.534-0.281-5.789-0.518-21.397c-0.227-10.836-10.129-9.835-12.748-4.15
			c-7.47,16.515-13.875,33.517-19.649,50.712c-1.789,5.273,3.936,9.15,7.703,5.397c19.972-20.145,14.369-14.778,21.887-22.635
			c4.087,4.19,8.227,8.424,12.414,12.561c-14.076,40.449-24.496,76.208-33.112,124.537c-7.003-4.5-13.854-9.089-20.764-13.771
			c-8.471,3.458-16.691-1.466-19.337-9.032c-2.939-8.012,0.106-12.36,9.166-30.782c-2.227-1.238-4.451-2.473-6.686-3.715
			C29.724,651.75,24.338,659.644,27.362,671.342 M82.172,697.51c8.231-47.459,19.127-85.94,32.13-123.051
			c21.24,20.559,43.282,39.993,63.45,56.307c-1.049,1.905-1.745,3.983-2.118,6.118l-14.549,0.005l1.606-5.402l-7.277-2.135
			c-0.231,0.779-4.949,17.066-4.912,17.877l7.257,1.928l1.359-4.983c5.636-0.07,11.261-0.131,16.876-0.136
			c0.437,1.801,1.153,3.543,2.106,5.17c-27.598,16.673-54.63,35.936-80.716,57.705C92.307,703.825,87.233,700.696,82.172,697.51
			 M182.417,625.465c-22.929-18.964-43.033-37.14-63.968-57.735c11.129-2.027,22.211-3.853,33.201-5.455
			c5.368,24.701,23.697,42.886,47.685,50.544c-0.814,2.836-1.51,5.711-2.284,8.556C191.763,620.873,186.43,622.374,182.417,625.465
			 M110.683,781.069c-6.53-18.345-1.924-38.238,10.425-51.591c31.337,17.502,37.888,17.834,40.245,28.376
			c0.603,2.542,0.456,7.595,0.462,7.612c0.992,3.129,9.137,5.672,7.272-6.872c-2.04-15.583-13.962-18.425-42.286-34.517
			c30.473-25.137,81.005-8.079,93.344,27.67c19.212,57.472-77.403,92.219-106.276,36.611
			C112.658,786.063,111.591,783.631,110.683,781.069 M164.713,552.894c-2.626-35.726,32.788-65.164,71.139-51.274
			c43.177,15.657,59.701,74.256,16.129,96.021c-13.277,6.632-28.027,7.898-42.118,4.826c3.977-14.446,9.203-30.031,13.8-43.051
			c5.965-1.417,7.42-7.481,4.089-11.564c-3.61-4.648-11.08-4.435-13.694,0.589C200.303,549.241,182.55,550.739,164.713,552.894
			 M165.753,560.296c16.605-2.11,30.754-3.536,48.798-4.769l1.757,1.932c-4.513,12.919-10.142,29.715-13.672,42.883
			C183.748,593.983,169.587,578.514,165.753,560.296z"/>
	</g>
	<g>
		<path d="M212.195,292.487c-3.3,11.429,2.128,23.625,13.942,27.476c9.633,19.493,20.009,38.701,30.707,57.332
			c-13.269,5.066-22.468,12.643-29.921,22.549l2.438,1.813c-33.881,46.738,7.395,107.701,67.159,103.279
			c38.409-2.609,63.631-34.602,49.85-76.633c0.919-0.125,1.827-0.283,2.738-0.427c-11.769-35.653-47.396-61.362-84.751-52.746
			c-1.837-3.197-3.664-6.408-5.47-9.639c32.653-5.616,64.887-8.704,96.367-9.4c5.28,14.066,24.986,20.478,35.029,8.576
			c4.271,2.662,8.517,5.343,12.741,8.047l-2.904,2.703l5.257,5.559c11.06-10.291,7.902-7.408,11.975-11.015l-5.099-5.688
			c-1.442,1.261-2.895,2.512-4.28,3.833c-16.681-10.747-14.575-8.905-14.504-9.938c1.526-5.507,0.396-12.857-3.88-18.664
			l8.004-8.282c59.786,54.513,131.912-5.532,96.48-74.828c0.798-0.386,1.596-0.771,2.4-1.159
			c-24.366-51.509-94.928-52.372-119.261-1.993c-12.023-4.81-24.283-9.491-36.726-13.851c-1.606-5.837-3.041-11.633-4.504-17.503
			c6.568-12.386,6.666-12.458,10.218-18.782c5.246-9.469-3.868-13.543-8.978-9.963c-14.833,10.751-32.041,24.82-42.273,34.088
			c-4.203,3.639-1.19,9.847,3.965,8.509c5.56-1.415,20.552-5.6,30.239-8.649c1.491,5.718,2.945,11.429,4.496,17.089
			c-33.789,28.65-63.145,58.228-90.898,91.168c-3.776-7.381-7.474-14.843-11.125-22.369c-12.474-1.712-17.904-17.932-5.45-28.155
			c1.852-1.55,4.174-3.072,6.93-4.879c2.756-1.806,5.96-3.883,9.654-6.468c-1.315-2.192-2.628-4.38-3.947-6.579
			C224.004,276.878,215.544,280.839,212.195,292.487 M246.533,342.62c22.887-26.855,48.317-55.251,89.335-90.375
			c8.197,28.222,15.576,50.905,26.816,80.485c-1.863,1.125-3.557,2.523-4.908,4.228l-12.555-7.226l4.032-3.941l-5.233-5.489
			c-0.462,0.451-12.901,12.498-13.184,13.04l5.318,5.302c1.193-1.24,2.428-2.441,3.674-3.632c4.924,2.77,9.836,5.542,14.711,8.357
			c-0.534,1.768-0.796,3.625-0.795,5.503c-32.262,0.622-65.329,3.724-98.781,9.492C252.08,353.117,249.298,347.898,246.533,342.62
			 M369.407,330.501c-9.168-24.36-18.307-52.214-26.557-81.971c10.564,3.702,21.141,7.735,31.475,11.853
			c-7.531,23.258-1.418,48.411,16.054,67.602c-2.095,2.082-4.192,4.166-6.286,6.246C379.911,331.26,374.677,329.745,369.407,330.501
			 M229.274,429.19c3.475-18.692,17.31-34.033,34.902-39.401c19.052,31.981,21.565,32.187,21.319,40.38
			c-0.175,6.852-3.918,9.462-4.179,11.162c-0.778,3.625,4.291,6.154,6.485,3.347c13.471-16.343-2.62-33.592-15.994-56.707
			c62.24-9.797,98.103,87.028,34.204,104.813C267.31,503.911,221.471,472.515,229.274,429.19 M390.309,258.757
			c12.613-25.835,44.395-36.756,70.997-22.276c53.411,28.803,35.718,121.794-30.882,102.363c-8.901-2.632-17.734-7.28-25.738-14.567
			c10.715-10.52,25.488-23.85,33.461-30.454c9.544,2.913,12.98-10.137,4.709-14.497c-2.339-1.229-5.226-1.394-7.557,0.192
			C418.508,271.178,405.279,265.139,390.309,258.757 M387.493,265.657c15.264,6.424,30.062,13.04,44.698,20.248l0.555,2.546
			c-10.259,8.701-22.295,19.609-33.26,30.372C386.8,304.449,381.559,284.359,387.493,265.657z"/>
	</g>
	<g>
		<path d="M561.453,56.717c-8.868,8.603-9.773,21.778-1.681,30.737c-1.226,18.597-1.972,40.484-2.033,65.042
			c-14.247-2.175-26.894-0.15-37.187,4.627l1.209,2.788c-48.584,22.054-49.234,87.473-1.323,118.486
			c36.084,23.35,79.94,9.729,89.388-37.009c0.853,0.338,1.712,0.642,2.568,0.961c7.588-36.582-10.24-76.678-47.074-88.007
			c0.008-3.679,0.032-7.365,0.084-11.059c31.109,11.444,60.571,24.897,88.157,40.071c-2.591,15.376,12.125,30.171,25.997,24.931
			c2.357,4.427,4.68,8.844,6.978,13.296l-3.848,0.938l1.766,7.444c5.516-1.328-1.04,0.14,15.849-3.546l-1.562-7.477
			c-1.869,0.405-3.739,0.809-5.607,1.213c-8.977-17.564-8.21-14.987-7.577-15.914c4.408-4.286,6.731-11.266,5.986-18.087
			c3.357-1.012,1.598-0.524,11.078-3.097c3.254,10.295,8.304,19.165,14.381,26.568c41.304,50.518,103.576,15.632,106.63-42.978
			c0.885,0.063,1.77,0.126,2.661,0.189c4.78-57.634-57.179-92.672-102.208-61.465c-7.743-9.918-14.172-17.988-24.833-30.416
			c1.546-5.814,3.2-11.624,4.88-17.448c13.766-8.743,19.905-11.666,21.353-13.347c4.201-4.463,0.339-11.507-5.848-10.893
			c-27.002,2.935-38.143,5.306-53.728,8.262c-5.461,1.077-5.958,8.005-0.833,9.367c13.875,3.774,10.014,2.787,30.538,7.724
			c-1.583,5.674-3.199,11.294-4.697,16.971c-46.371,8.381-82.021,18.547-124.441,33.483c0.425-8.261,0.961-16.554,1.57-24.879
			c-9.969-7.723-6.512-24.547,9.372-27.127c5.324-0.846,13.016-0.963,20.068-1.541c-0.04-2.551-0.079-5.099-0.119-7.659
			C581.75,48.917,570.3,47.984,561.453,56.717 M566.118,117.261c41.475-15.149,83.931-26.519,122.682-33.537
			c-6.767,26.988-12.506,54.257-17.138,83.069c-2.171,0.054-4.316,0.501-6.349,1.257l-7.257-12.582l5.475-1.338l-1.781-7.372
			c-0.93,0.229-17.124,4.141-17.942,4.669l1.95,7.251l4.988-1.34c2.87,4.842,5.723,9.661,8.54,14.571
			c-1.355,1.23-2.499,2.749-3.433,4.391c-28.218-15.592-58.394-29.402-90.28-41.135C565.71,129.215,565.886,123.247,566.118,117.261
			 M678.597,168.254c4.73-28.103,10.759-56.19,18.109-84.251c7.311,8.642,14.408,17.233,21.29,26.021
			c-17.479,15.571-25.683,40.344-19.997,66.575c-8.246,2.073-4.28,1.093-8.565,2.245
			C687.231,174.019,683.273,170.165,678.597,168.254 M507.95,183.724c12.019-14.12,31.167-20.942,49.91-16.735
			c0.542,37.336,2.643,38.649-1.677,45.614c-3.462,5.626-8.132,6.365-9.173,7.613c-2.49,2.735,0.645,7.46,3.954,6.141
			c19.784-8.12,14.596-28.509,14.408-57.156c37.913,14.365,46.871,67.369,22.632,94.69
			C545.944,311.894,462.93,235.696,507.95,183.724 M732.641,116.641c16.027-11.178,39.929-12.154,58.296,0.864
			c30.511,22.086,28.448,68.051,4.127,91.515c-29.055,28.706-70.861,9.309-82.844-28.492c27.032-6.495,30.972-7.048,44.21-9.553
			c4.07,4.367,10.139,2.882,12.07-2.219c2.224-5.456-1.694-11.812-7.354-11.553C753.13,144.914,740.644,127.234,732.641,116.641
			 M726.751,121.264c9.261,12.177,17.826,24.008,28.498,39.876l-0.796,2.491c-26.583,5.041-32.342,6.792-43.999,9.565
			C706.732,154.626,712.145,134.49,726.751,121.264z"/>
	</g>
	<g>
		<path d="M981.756,27.362c-12.214,3.065-19.276,14.164-16.783,25.755c-13.144,19.906-24.267,38.088-34.225,55.394
			c-10.05-8.082-21.357-13.234-34.518-14.564l-0.345,3.019c-33.925-3.509-61.545,19.318-67.927,50.943
			c-12.518,61.833,54.717,118.899,103.56,63.632c0.57,0.723,1.163,1.419,1.745,2.126c24.957-28.316,29.295-71.569,3.141-99.823
			c1.842-3.177,3.701-6.354,5.589-9.522c21.242,25.443,40.066,51.806,56.401,78.724c-9.89,11.973-4.598,32.196,10.085,34.596
			c-0.167,5.017-0.364,10.024-0.592,15.022l-3.797-1.125l-2.184,7.332c8.991,2.711,2.748,0.694,15.498,4.839l2.377-7.26
			c-1.818-0.594-3.636-1.189-5.451-1.782c0.998-19.769,0.378-17.085,1.378-17.581c5.957-1.514,11.437-6.359,14.196-12.645
			c10.989,2.647,5.53,1.346,11.153,2.815c-8.262,37.622,11.422,78.849,49.386,81.085c21.295,1.475,47.932-10.856,63.556-34.89
			c0.742,0.485,1.474,0.992,2.189,1.523c32.77-47.157-2.526-108.656-57.76-104.326c-1.841-12.812-3.475-23.489-6.339-38.76
			c4.239-4.256,8.568-8.453,12.928-12.651c9.53-0.365,5.788-0.281,21.397-0.518c10.836-0.227,9.835-10.129,4.15-12.748
			c-16.515-7.47-33.517-13.875-50.712-19.649c-5.273-1.789-9.151,3.936-5.397,7.703c19.973,19.801,14.963,14.546,22.635,21.887
			c-4.19,4.087-8.424,8.227-12.561,12.414c-40.446-14.075-76.206-24.496-124.537-33.112c4.5-7.003,9.089-13.854,13.771-20.764
			c-3.459-8.471,1.466-16.691,9.032-19.337c8.016-2.941,12.371,0.111,30.782,9.166c1.238-2.227,2.473-4.451,3.715-6.686
			C1001.348,29.724,993.454,24.338,981.756,27.362 M955.588,82.172c47.459,8.231,85.94,19.127,123.051,32.13
			c-20.561,21.242-39.993,43.281-56.307,63.45c-1.905-1.049-3.983-1.745-6.118-2.118l-0.005-14.549l5.402,1.606l2.135-7.277
			c-0.779-0.231-17.066-4.949-17.877-4.912l-1.928,7.257l4.983,1.359c0.07,5.636,0.131,11.261,0.136,16.876
			c-1.801,0.437-3.543,1.153-5.17,2.106c-16.673-27.598-35.936-54.63-57.705-80.716C949.273,92.307,952.402,87.233,955.588,82.172
			 M1027.634,182.417c18.92-22.875,37.089-42.981,57.735-63.968c2.027,11.129,3.853,22.211,5.455,33.201
			c-24.76,5.381-42.907,23.763-50.544,47.685c-2.836-0.814-5.711-1.51-8.556-2.284
			C1032.225,191.763,1030.724,186.43,1027.634,182.417 M872.029,110.683c18.345-6.53,38.237-1.924,51.591,10.425
			c-17.45,31.243-17.784,37.876-28.376,40.245c-2.542,0.603-7.595,0.456-7.612,0.462c-3.129,0.992-5.672,9.137,6.872,7.272
			c15.578-2.039,18.413-13.942,34.517-42.286c25.142,30.481,8.081,81.005-27.67,93.344c-57.456,19.207-92.231-77.398-36.611-106.276
			C867.035,112.658,869.467,111.591,872.029,110.683 M1100.204,164.713c35.651-2.622,65.19,32.715,51.274,71.139
			c-15.656,43.174-74.255,59.705-96.021,16.128c-6.617-13.247-7.906-27.993-4.826-42.118c14.89,4.099,30.817,9.481,43.051,13.8
			c1.417,5.965,7.481,7.42,11.564,4.089c4.648-3.61,4.434-11.08-0.589-13.694C1103.852,200.22,1102.351,182.482,1100.204,164.713
			 M1092.803,165.753c2.11,16.606,3.536,30.755,4.769,48.797l-1.932,1.757c-12.914-4.511-29.715-10.142-42.883-13.672
			C1059.115,183.749,1074.584,169.587,1092.803,165.753z"/>
	</g>
	<g>
		<path d="M1360.611,212.195c-11.429-3.3-23.624,2.128-27.476,13.942c-19.493,9.633-38.701,20.009-57.332,30.707
			c-5.055-13.242-12.62-22.451-22.549-29.921l-1.813,2.438c-46.745-33.887-107.7,7.403-103.279,67.159
			c2.605,38.367,34.57,63.641,76.633,49.85c0.125,0.919,0.283,1.827,0.427,2.738c35.647-11.767,61.363-47.393,52.746-84.751
			c3.197-1.837,6.408-3.664,9.639-5.47c5.616,32.653,8.704,64.887,9.4,96.367c-14.067,5.28-20.477,24.986-8.576,35.029
			c-2.662,4.27-5.343,8.517-8.047,12.741l-2.703-2.904l-5.559,5.257c10.285,11.053,7.405,7.899,11.015,11.975l5.688-5.099
			c-1.261-1.442-2.512-2.895-3.833-4.28c10.747-16.681,8.905-14.575,9.938-14.504c5.505,1.526,12.857,0.396,18.664-3.88l8.282,8.004
			c-54.887,60.196,5.893,131.728,74.828,96.48c0.386,0.798,0.771,1.596,1.159,2.4c51.509-24.366,52.372-94.928,1.993-119.261
			c4.81-12.023,9.491-24.283,13.851-36.726c5.837-1.606,11.633-3.042,17.503-4.504c12.397,6.574,12.453,6.664,18.782,10.218
			c9.469,5.246,13.543-3.868,9.963-8.978c-10.725-14.798-24.798-32.017-34.088-42.274c-3.638-4.203-9.847-1.19-8.509,3.965
			c1.415,5.56,5.599,20.55,8.649,30.239c-5.718,1.491-11.429,2.945-17.089,4.496c-28.706-33.856-58.296-63.201-91.168-90.898
			c7.381-3.776,14.843-7.474,22.369-11.125c1.712-12.475,17.932-17.903,28.155-5.45c1.55,1.852,3.072,4.174,4.879,6.93
			c1.806,2.756,3.883,5.96,6.468,9.654c2.192-1.315,4.38-2.628,6.579-3.947C1376.22,224.004,1372.259,215.544,1360.611,212.195
			 M1310.478,246.533c26.855,22.887,55.251,48.317,90.375,89.335c-28.222,8.197-50.905,15.576-80.485,26.816
			c-1.125-1.863-2.523-3.557-4.228-4.908l7.226-12.555l3.941,4.032l5.489-5.233c-0.451-0.462-12.498-12.901-13.04-13.184
			l-5.302,5.318c1.24,1.193,2.441,2.428,3.632,3.674c-2.77,4.924-5.542,9.836-8.357,14.711c-1.768-0.534-3.625-0.796-5.503-0.795
			c-0.622-32.262-3.724-65.329-9.492-98.781C1299.981,252.08,1305.2,249.298,1310.478,246.533 M1322.598,369.407
			c24.303-9.146,52.153-18.29,81.971-26.557c-3.702,10.564-7.735,21.141-11.853,31.475c-23.258-7.531-48.411-1.418-67.602,16.054
			c-2.082-2.095-4.166-4.192-6.247-6.286C1321.772,380.005,1323.368,374.778,1322.598,369.407 M1223.908,229.274
			c18.693,3.475,34.033,17.31,39.401,34.902c-31.981,19.052-32.187,21.565-40.38,21.319c-6.852-0.175-9.462-3.918-11.162-4.179
			c-3.625-0.778-6.154,4.291-3.347,6.485c16.341,13.469,33.596-2.623,56.707-15.994c9.77,62.074-86.979,98.28-104.813,34.204
			C1149.187,267.31,1180.584,221.471,1223.908,229.274 M1394.341,390.309c25.835,12.613,36.756,44.395,22.276,70.997
			c-28.81,53.425-121.796,35.722-102.363-30.882c2.632-8.901,7.279-17.734,14.567-25.738c10.52,10.715,23.847,25.485,30.454,33.461
			c-2.913,9.544,10.137,12.98,14.497,4.709c1.229-2.339,1.394-5.226-0.192-7.557C1382.04,418.267,1388.086,404.982,1394.341,390.309
			 M1387.441,387.493c-6.424,15.264-13.04,30.062-20.248,44.698l-2.546,0.555c-8.702-10.26-19.609-22.295-30.372-33.26
			C1348.649,386.8,1368.739,381.559,1387.441,387.493z"/>
	</g>
	<g>
		<path d="M1596.381,561.453c-8.604-8.868-21.778-9.773-30.737-1.681c-18.555-1.223-40.434-1.972-65.042-2.032
			c2.175-14.247,0.15-26.894-4.627-37.187l-2.788,1.209c-22.092-48.671-87.536-49.138-118.486-1.323
			c-23.502,36.319-9.443,79.997,37.008,89.388c-0.338,0.853-0.642,1.712-0.961,2.568c36.582,7.588,76.678-10.24,88.007-47.074
			c3.679,0.008,7.365,0.032,11.058,0.084c-11.444,31.109-24.897,60.571-40.071,88.157c-15.372-2.59-30.172,12.123-24.931,25.997
			c-4.427,2.357-8.844,4.681-13.296,6.978l-0.938-3.848l-7.444,1.765c1.316,5.464-0.145-1.064,3.547,15.849l7.477-1.562
			c-0.405-1.87-0.809-3.74-1.213-5.607c17.564-8.977,14.987-8.21,15.914-7.577c4.286,4.408,11.266,6.731,18.087,5.986
			c1.013,3.358,0.524,1.596,3.097,11.078c-10.295,3.254-19.165,8.303-26.568,14.381c-50.377,41.187-15.79,103.568,42.978,106.63
			c-0.063,0.885-0.126,1.77-0.189,2.661c57.634,4.779,92.672-57.179,61.465-102.208c10.077-7.867,18.091-14.26,30.416-24.833
			c5.814,1.546,11.624,3.2,17.448,4.88c8.752,13.779,11.665,19.904,13.347,21.353c4.463,4.201,11.507,0.339,10.893-5.848
			c-2.906-26.718-5.24-37.796-8.262-53.728c-1.077-5.461-8.005-5.958-9.367-0.833c-3.769,13.859-2.789,10.02-7.724,30.538
			c-5.674-1.583-11.294-3.199-16.971-4.697c-8.354-46.223-18.484-81.844-33.483-124.441c8.261,0.425,16.554,0.961,24.879,1.57
			c7.723-9.969,24.547-6.512,27.127,9.372c0.844,5.313,0.965,13.044,1.541,20.068c2.551-0.04,5.099-0.079,7.658-0.119
			C1604.182,581.753,1605.113,570.3,1596.381,561.453 M1535.837,566.118c15.121,41.4,26.504,83.851,33.537,122.682
			c-26.943-6.755-54.207-12.498-83.069-17.138c-0.054-2.171-0.501-4.316-1.257-6.349l12.581-7.257l1.338,5.475l7.372-1.781
			c-0.229-0.93-4.141-17.124-4.669-17.942l-7.251,1.95l1.34,4.988c-4.842,2.87-9.661,5.723-14.571,8.541
			c-1.23-1.355-2.749-2.499-4.391-3.433c15.593-28.218,29.402-58.394,41.135-90.28
			C1523.884,565.71,1529.851,565.886,1535.837,566.118 M1484.844,678.597c28.103,4.731,56.189,10.759,84.251,18.109
			c-8.642,7.311-17.233,14.407-26.021,21.29c-15.572-17.479-40.344-25.683-66.575-19.997c-2.074-8.249-1.093-4.282-2.245-8.565
			C1479.079,687.231,1482.934,683.273,1484.844,678.597 M1469.374,507.95c14.119,12.018,20.942,31.167,16.735,49.91
			c-37.336,0.542-38.649,2.643-45.614-1.677c-5.623-3.461-6.366-8.133-7.613-9.173c-2.735-2.49-7.46,0.645-6.141,3.954
			c8.12,19.784,28.508,14.596,57.156,14.408c-14.366,37.913-67.369,46.871-94.69,22.632
			C1341.141,545.888,1417.436,462.96,1469.374,507.95 M1536.457,732.641c11.205,16.064,12.128,39.965-0.864,58.296
			c-22.091,30.518-68.058,28.442-91.515,4.127c-28.696-29.044-9.33-70.854,28.492-82.844c6.495,27.032,7.048,30.972,9.553,44.21
			c-4.367,4.07-2.882,10.139,2.219,12.07c5.456,2.224,11.812-1.695,11.553-7.354
			C1508.158,753.147,1525.841,740.661,1536.457,732.641 M1531.834,726.751c-12.033,9.151-23.843,17.715-39.876,28.498l-2.491-0.796
			c-5.047-26.618-6.803-32.39-9.565-43.999C1498.472,706.733,1518.608,712.145,1531.834,726.751z"/>
	</g>
</g>
</svg>
