<?xml version="1.0" encoding="UTF-8" standalone="no"?>
<!-- Created with Inkscape (http://www.inkscape.org/) -->

<svg
   xmlns:dc="http://purl.org/dc/elements/1.1/"
   xmlns:cc="http://creativecommons.org/ns#"
   xmlns:rdf="http://www.w3.org/1999/02/22-rdf-syntax-ns#"
   xmlns:svg="http://www.w3.org/2000/svg"
   xmlns="http://www.w3.org/2000/svg"
   xmlns:sodipodi="http://sodipodi.sourceforge.net/DTD/sodipodi-0.dtd"
   xmlns:inkscape="http://www.inkscape.org/namespaces/inkscape"
   id="svg2985"
   version="1.1"
   inkscape:version="0.48.1 "
   width="308"
   height="300"
   sodipodi:docname="champiñon.svg">
  <metadata
     id="metadata2991">
    <rdf:RDF>
      <cc:Work
         rdf:about="">
        <dc:format>image/svg+xml</dc:format>
        <dc:type
           rdf:resource="http://purl.org/dc/dcmitype/StillImage" />
        <dc:title></dc:title>
      </cc:Work>
    </rdf:RDF>
  </metadata>
  <defs
     id="defs2989" />
  <sodipodi:namedview
     pagecolor="#ffffff"
     bordercolor="#666666"
     borderopacity="1"
     objecttolerance="10"
     gridtolerance="10"
     guidetolerance="10"
     inkscape:pageopacity="0"
     inkscape:pageshadow="2"
     inkscape:window-width="1366"
     inkscape:window-height="706"
     id="namedview2987"
     showgrid="false"
     inkscape:zoom="1.3397168"
     inkscape:cx="186.6855"
     inkscape:cy="160.42385"
     inkscape:window-x="-8"
     inkscape:window-y="-8"
     inkscape:window-maximized="1"
     inkscape:current-layer="svg2985" />
  <g
     id="g3876">
    <g
       style="fill:#000000"
       transform="translate(8.0000016,5.4928531)"
       id="g3868">
      <path
         id="path3870"
         d="m 176.87143,25.959778 c -7.2305,7.595992 -11.43271,15.949143 -24.46875,22.09375 -13.87149,6.173816 -14.18394,-15.446508 -31.0625,-19.71875 -1.94881,11.563751 -2.06359,24.05505 -13.125,31.0625 -7.9475,5.506512 -17.795569,-5.074658 -33.437504,-8.375 -1.687444,10.962076 8.032758,28.951465 -3.59375,34.625 -10.746991,7.789554 -21.471759,2.860059 -32.21875,3.59375 7.051629,11.145032 13.109252,22.292482 10.75,33.437502 -5.716065,9.60835 -17.435466,13.24012 -31.0625,14.9375 9.260785,9.07085 22.257961,17.51978 22.6875,28.0625 0.7557,7.86795 -13.164454,18.1533 -20.90625,27.4375 11.589469,3.80506 28.450154,3.87199 29.875,14.9375 4.210978,15.94042 -5.41247,23.58243 -8.375,35.21875 11.181197,-0.58797 24.490234,-6.48123 32.84375,0 10.833327,12.33914 6.019093,24.69211 8.375,37.03125 9.552882,-6.03859 19.103374,-15.60251 28.656254,-14.34375 16.73089,6.68698 15.7468,20.02451 20.875,31.0625 8.27427,-8.41327 14.57451,-22.7904 25.6875,-22.6875 20.14322,2.7681 20.92992,13.83448 31.03125,20.90625 3.80505,-11.3322 1.44831,-25.75987 13.75,-32.84375 19.95475,-4.82935 24.92748,5.29087 36.40625,8.9375 -0.54986,-11.41422 -7.11005,-24.03027 -0.59375,-34.03125 10.2006,-9.59989 25.17184,-4.90778 38.21875,-5.96875 -5.61605,-11.0082 -15.86437,-20.16838 -14.34375,-34.03125 5.43661,-10.88289 19.09445,-13.5548 32.25,-16.71875 -8.70919,-8.24642 -18.36917,-10.68968 -25.65625,-27.46875 l 21.46875,-26.84375 c -10.81074,-2.53903 -21.75823,-4.00944 -31.03125,-17.3125 -1.72648,-8.70678 3.26809,-19.136142 9.5625,-29.875002 -11.85548,2.675163 -23.63141,6.11725 -37.03125,-3.5625 -10.26874,-9.597632 1.24624,-27.704064 -5.96875,-31.65625 -9.21013,4.842779 -13.94299,13.534906 -33.4375,9.5625 -9.08469,3.337992 -5.43146,-17.285971 -16.125,-27.46875 z m -23.8125,71.875 c 36.76651,0 66.5625,29.563242 66.5625,66.000002 0,36.43676 -29.79599,65.96875 -66.5625,65.96875 -36.76651,0 -66.593754,-29.53199 -66.593754,-65.96875 0,-36.43676 29.827244,-66.000002 66.593754,-66.000002 z"
         style="fill:#000000;stroke:#000000;stroke-width:1px;stroke-linecap:butt;stroke-linejoin:miter;stroke-opacity:1"
         inkscape:connector-curvature="0" />
      <path
         inkscape:connector-curvature="0"
         id="path3872"
         d="m 154.375,54.75 c -60.280603,0 -109.15625,48.3358 -109.15625,107.96875 0,59.63296 48.875647,108 109.15625,108 60.2806,0 109.15625,-48.36704 109.15625,-108 C 263.53125,103.0858 214.6556,54.75 154.375,54.75 z m 0.5,9.375 c 6.80195,0 12.3125,5.510544 12.3125,12.3125 0,6.80196 -5.51055,12.3125 -12.3125,12.3125 -6.80196,0 -12.3125,-5.51054 -12.3125,-12.3125 0,-6.801956 5.51054,-12.3125 12.3125,-12.3125 z M 89.9375,85.78125 c 6.80195,0 12.3125,5.510544 12.3125,12.3125 0,6.80196 -5.51055,12.3125 -12.3125,12.3125 -6.80196,0 -12.3125,-5.51054 -12.3125,-12.3125 0,-6.801956 5.51054,-12.3125 12.3125,-12.3125 z M 218.34375,88.75 c 6.80195,0 12.3125,5.510544 12.3125,12.3125 0,6.80196 -5.51055,12.34375 -12.3125,12.34375 C 211.54179,113.40625 206,107.86446 206,101.0625 206,94.260544 211.54179,88.75 218.34375,88.75 z M 153.375,96.53125 c 37.7114,0 68.28125,29.86912 68.28125,66.71875 0,36.84962 -30.56985,66.75 -68.28125,66.75 -37.7114,0 -68.28125,-29.90038 -68.28125,-66.75 0,-36.84963 30.56985,-66.71875 68.28125,-66.71875 z m -90.3125,53.4375 c 6.80195,0 12.3125,5.51054 12.3125,12.3125 0,6.80196 -5.51055,12.3125 -12.3125,12.3125 -6.80196,0 -12.3125,-5.51054 -12.3125,-12.3125 0,-6.80196 5.51054,-12.3125 12.3125,-12.3125 z m 181.40625,1.5 c 6.80195,0 12.3125,5.51054 12.3125,12.3125 0,6.80196 -5.51055,12.3125 -12.3125,12.3125 -6.80196,0 -12.34375,-5.51054 -12.34375,-12.3125 0,-6.80196 5.54179,-12.3125 12.34375,-12.3125 z M 90.6875,213.40625 c 6.80195,0 12.3125,5.51054 12.3125,12.3125 0,6.80196 -5.51055,12.3125 -12.3125,12.3125 -6.80196,0 -12.3125,-5.51054 -12.3125,-12.3125 0,-6.80196 5.51054,-12.3125 12.3125,-12.3125 z m 128.375,0 c 6.80195,0 12.34375,5.51054 12.34375,12.3125 0,6.80196 -5.5418,12.3125 -12.34375,12.3125 -6.80196,0 -12.3125,-5.51054 -12.3125,-12.3125 0,-6.80196 5.51054,-12.3125 12.3125,-12.3125 z m -63.4375,27.625 c 6.80195,0 12.3125,5.51054 12.3125,12.3125 0,6.80196 -5.51055,12.3125 -12.3125,12.3125 -6.80196,0 -12.3125,-5.51054 -12.3125,-12.3125 0,-6.80196 5.51054,-12.3125 12.3125,-12.3125 z"
         style="opacity:0.93700023;fill:#000000;fill-opacity:0.6714976;fill-rule:evenodd;stroke:#000000;stroke-width:2.99908566;stroke-linejoin:bevel;stroke-miterlimit:4;stroke-opacity:1;stroke-dashoffset:0" />
      <path
         id="path3874"
         d="m 139.71518,79.866028 -33.78125,16.21875 3.90625,9.750002 -13.625004,13 -9.75,-3.25 -14.28125,33.125 7.78125,5.1875 0.65625,20.125 -9.09375,6.5 13.625,31.8125 11.0625,-3.25 16.218754,14.9375 -5.84375,9.75 34.40625,12.3125 2.59375,-8.4375 22.09375,0.65625 6.5,9.75 33.75,-16.25 -5.84375,-9.71875 14.9375,-14.3125 12.34375,3.25 13.625,-33.75 -11.6875,-2.59375 0,-20.125 10.40625,-5.21875 -14.28125,-35.0625 -11.6875,3.25 -13.65625,-11.03125 4.5625,-13.625002 -33.78125,-12.34375 -5.84375,10.375 -20.78125,-0.65625 -4.53125,-10.375 z m 14.90625,24.781252 c 32.68693,0 59.1875,25.86342 59.1875,57.78125 0,31.91783 -26.50057,57.8125 -59.1875,57.8125 -32.68694,0 -59.187504,-25.89467 -59.187504,-57.8125 0,-31.91783 26.500564,-57.78125 59.187504,-57.78125 z"
         style="fill:#000000;stroke:#000000;stroke-width:1px;stroke-linecap:butt;stroke-linejoin:miter;stroke-opacity:1"
         inkscape:connector-curvature="0" />
    </g>
    <g
       style="opacity:1"
       id="g3835">
      <path
         inkscape:connector-curvature="0"
         style="fill:#999999;stroke:#000000;stroke-width:1px;stroke-linecap:butt;stroke-linejoin:miter;stroke-opacity:1"
         d="m 176.87143,25.959778 c -7.2305,7.595992 -7.70058,15.949143 -20.73662,22.09375 -13.87149,6.173816 -17.91607,-15.446508 -34.79463,-19.71875 -1.94881,11.563751 -2.06359,24.05505 -13.125,31.0625 -7.9475,5.506512 -17.795569,-5.074658 -33.437504,-8.375 -1.687444,10.962076 8.032758,28.951465 -3.59375,34.625 -10.746991,7.789554 -21.471759,2.860059 -32.21875,3.59375 7.051629,11.145032 13.109252,22.292482 10.75,33.437502 -5.716065,9.60835 -17.435466,13.24012 -31.0625,14.9375 9.260785,9.07085 22.257961,17.51978 22.6875,28.0625 0.7557,7.86795 -13.164454,18.1533 -20.90625,27.4375 11.589469,3.80506 28.450154,3.87199 29.875,14.9375 4.210978,15.94042 -5.41247,23.58243 -8.375,35.21875 11.181197,-0.58797 24.490234,-6.48123 32.84375,0 10.833327,12.33914 6.019093,24.69211 8.375,37.03125 9.552882,-6.03859 19.103374,-15.60251 28.656254,-14.34375 16.73089,6.68698 15.7468,20.02451 20.875,31.0625 8.27427,-8.41327 14.57451,-22.7904 25.6875,-22.6875 20.14322,2.7681 20.92992,13.83448 31.03125,20.90625 3.80505,-11.3322 1.44831,-25.75987 13.75,-32.84375 19.95475,-4.82935 24.92748,5.29087 36.40625,8.9375 -0.54986,-11.41422 -7.11005,-24.03027 -0.59375,-34.03125 10.2006,-9.59989 25.17184,-4.90778 38.21875,-5.96875 -5.61605,-11.0082 -15.86437,-20.16838 -14.34375,-34.03125 5.43661,-10.88289 19.09445,-13.5548 32.25,-16.71875 -8.70919,-8.24642 -18.36917,-10.68968 -25.65625,-27.46875 l 21.46875,-26.84375 c -10.81074,-2.53903 -18.77252,0.46912 -28.04554,-12.83394 -1.72648,-8.70678 0.28238,-23.614702 6.57679,-34.353562 -11.85548,2.675163 -19.89928,6.11725 -33.29912,-3.5625 -10.26874,-9.597632 -2.48589,-27.704064 -9.70088,-31.65625 -9.21013,4.842779 -9.46443,15.027759 -28.95894,11.055353 -9.08469,3.337992 -9.91002,-18.778824 -20.60356,-28.961603 z m -23.8125,71.875 c 36.76651,0 66.5625,29.563242 66.5625,66.000002 0,36.43676 -29.79599,65.96875 -66.5625,65.96875 -36.76651,0 -66.593754,-29.53199 -66.593754,-65.96875 0,-36.43676 29.827244,-66.000002 66.593754,-66.000002 z"
         id="path2995"
         sodipodi:nodetypes="cccccccccccccccccccccccccccccccccsssss" />
      <path
         style="opacity:0.93700023000000021;fill:#333333;fill-opacity:0.67149760000000003;fill-rule:evenodd;stroke:#000000;stroke-width:2.99908566000000000;stroke-linejoin:bevel;stroke-miterlimit:4;stroke-opacity:1;stroke-dashoffset:0"
         d="M 154.375 54.75 C 94.094397 54.75 45.21875 103.0858 45.21875 162.71875 C 45.21875 222.35171 94.094397 270.71875 154.375 270.71875 C 214.6556 270.71875 263.53125 222.35171 263.53125 162.71875 C 263.53125 103.0858 214.6556 54.75 154.375 54.75 z M 154.875 64.125 C 161.67695 64.125 167.1875 69.635544 167.1875 76.4375 C 167.1875 83.23946 161.67695 88.75 154.875 88.75 C 148.07304 88.75 142.5625 83.23946 142.5625 76.4375 C 142.5625 69.635544 148.07304 64.125 154.875 64.125 z M 89.9375 85.78125 C 96.73945 85.78125 102.25 91.291794 102.25 98.09375 C 102.25 104.89571 96.73945 110.40625 89.9375 110.40625 C 83.13554 110.40625 77.625 104.89571 77.625 98.09375 C 77.625 91.291794 83.13554 85.78125 89.9375 85.78125 z M 218.34375 88.75 C 225.1457 88.75 230.65625 94.260544 230.65625 101.0625 C 230.65625 107.86446 225.1457 113.40625 218.34375 113.40625 C 211.54179 113.40625 206 107.86446 206 101.0625 C 206 94.260544 211.54179 88.75 218.34375 88.75 z M 153.375 96.53125 C 191.0864 96.53125 221.65625 126.40037 221.65625 163.25 C 221.65625 200.09962 191.0864 230 153.375 230 C 115.6636 230 85.09375 200.09962 85.09375 163.25 C 85.09375 126.40037 115.6636 96.53125 153.375 96.53125 z M 63.0625 149.96875 C 69.86445 149.96875 75.375 155.47929 75.375 162.28125 C 75.375 169.08321 69.86445 174.59375 63.0625 174.59375 C 56.26054 174.59375 50.75 169.08321 50.75 162.28125 C 50.75 155.47929 56.26054 149.96875 63.0625 149.96875 z M 244.46875 151.46875 C 251.2707 151.46875 256.78125 156.97929 256.78125 163.78125 C 256.78125 170.58321 251.2707 176.09375 244.46875 176.09375 C 237.66679 176.09375 232.125 170.58321 232.125 163.78125 C 232.125 156.97929 237.66679 151.46875 244.46875 151.46875 z M 90.6875 213.40625 C 97.48945 213.40625 103 218.91679 103 225.71875 C 103 232.52071 97.48945 238.03125 90.6875 238.03125 C 83.88554 238.03125 78.375 232.52071 78.375 225.71875 C 78.375 218.91679 83.88554 213.40625 90.6875 213.40625 z M 219.0625 213.40625 C 225.86445 213.40625 231.40625 218.91679 231.40625 225.71875 C 231.40625 232.52071 225.86445 238.03125 219.0625 238.03125 C 212.26054 238.03125 206.75 232.52071 206.75 225.71875 C 206.75 218.91679 212.26054 213.40625 219.0625 213.40625 z M 155.625 241.03125 C 162.42695 241.03125 167.9375 246.54179 167.9375 253.34375 C 167.9375 260.14571 162.42695 265.65625 155.625 265.65625 C 148.82304 265.65625 143.3125 260.14571 143.3125 253.34375 C 143.3125 246.54179 148.82304 241.03125 155.625 241.03125 z "
         id="path2997" />
      <path
         inkscape:connector-curvature="0"
         style="fill:#333333;stroke:#000000;stroke-width:1px;stroke-linecap:butt;stroke-linejoin:miter;stroke-opacity:1"
         d="m 139.71518,79.866028 -33.78125,16.21875 3.90625,9.750002 -13.625004,13 -9.75,-3.25 -14.28125,33.125 7.78125,5.1875 0.65625,20.125 -9.09375,6.5 13.625,31.8125 11.0625,-3.25 16.218754,14.9375 -5.84375,9.75 34.40625,12.3125 2.59375,-8.4375 22.09375,0.65625 6.5,9.75 33.75,-16.25 -5.84375,-9.71875 14.9375,-14.3125 12.34375,3.25 13.625,-33.75 -11.6875,-2.59375 0,-20.125 10.40625,-5.21875 -14.28125,-35.0625 -11.6875,3.25 -13.65625,-11.03125 4.5625,-13.625002 -33.78125,-12.34375 -5.84375,10.375 -20.78125,-0.65625 -4.53125,-10.375 z m 14.90625,24.781252 c 32.68693,0 59.1875,25.86342 59.1875,57.78125 0,31.91783 -26.50057,57.8125 -59.1875,57.8125 -32.68694,0 -59.187504,-25.89467 -59.187504,-57.8125 0,-31.91783 26.500564,-57.78125 59.187504,-57.78125 z"
         id="path3785" />
    </g>
  </g>
</svg>
