<?xml version="1.0" encoding="UTF-8" standalone="no"?>
<!-- Created with Inkscape (http://www.inkscape.org/) -->

<svg
   xmlns:osb="http://www.openswatchbook.org/uri/2009/osb"
   xmlns:dc="http://purl.org/dc/elements/1.1/"
   xmlns:cc="http://creativecommons.org/ns#"
   xmlns:rdf="http://www.w3.org/1999/02/22-rdf-syntax-ns#"
   xmlns:svg="http://www.w3.org/2000/svg"
   xmlns="http://www.w3.org/2000/svg"
   xmlns:xlink="http://www.w3.org/1999/xlink"
   xmlns:sodipodi="http://sodipodi.sourceforge.net/DTD/sodipodi-0.dtd"
   xmlns:inkscape="http://www.inkscape.org/namespaces/inkscape"
   width="210mm"
   height="297mm"
   id="svg2"
   version="1.1"
   inkscape:version="0.48.1 "
   sodipodi:docname="piñon.svg">
  <defs
     id="defs4">
    <linearGradient
       id="linearGradient5337"
       osb:paint="solid">
      <stop
         style="stop-color:#303030;stop-opacity:1;"
         offset="0"
         id="stop5339" />
    </linearGradient>
    <linearGradient
       id="linearGradient5273">
      <stop
         style="stop-color:#000000;stop-opacity:0.971223;"
         offset="0"
         id="stop5275" />
      <stop
         style="stop-color:#000000;stop-opacity:0;"
         offset="1"
         id="stop5277" />
    </linearGradient>
    <linearGradient
       id="linearGradient5265">
      <stop
         style="stop-color:#000000;stop-opacity:1;"
         offset="0"
         id="stop5267" />
      <stop
         style="stop-color:#000000;stop-opacity:0;"
         offset="1"
         id="stop5269" />
    </linearGradient>
    <linearGradient
       id="linearGradient5259"
       osb:paint="solid">
      <stop
         style="stop-color:#e6396e;stop-opacity:0;"
         offset="0"
         id="stop5261" />
    </linearGradient>
    <linearGradient
       inkscape:collect="always"
       xlink:href="#linearGradient5273"
       id="linearGradient5279"
       x1="-1263.3523"
       y1="135.3967"
       x2="-786.785"
       y2="135.3967"
       gradientUnits="userSpaceOnUse"
       gradientTransform="translate(2.1435469,4.2870939)" />
    <linearGradient
       inkscape:collect="always"
       xlink:href="#linearGradient5273"
       id="linearGradient5349"
       x1="-1261.2087"
       y1="139.68379"
       x2="-784.64148"
       y2="139.68379"
       gradientUnits="userSpaceOnUse" />
  </defs>
  <sodipodi:namedview
     id="base"
     pagecolor="#ffffff"
     bordercolor="#666666"
     borderopacity="1.0"
     inkscape:pageopacity="0.0"
     inkscape:pageshadow="2"
     inkscape:zoom="0.4665165"
     inkscape:cx="350"
     inkscape:cy="539.9183"
     inkscape:document-units="px"
     inkscape:current-layer="g3781"
     showgrid="false"
     inkscape:window-width="1366"
     inkscape:window-height="706"
     inkscape:window-x="-8"
     inkscape:window-y="-8"
     inkscape:window-maximized="1" />
  <metadata
     id="metadata7">
    <rdf:RDF>
      <cc:Work
         rdf:about="">
        <dc:format>image/svg+xml</dc:format>
        <dc:type
           rdf:resource="http://purl.org/dc/dcmitype/StillImage" />
        <dc:title />
      </cc:Work>
    </rdf:RDF>
  </metadata>
  <g
     inkscape:label="Capa 1"
     inkscape:groupmode="layer"
     id="layer1">
    <g
       style="display:inline"
       transform="translate(1391.7354,416.40993)"
       id="g3042">
      <g
         id="g3781"
         transform="translate(2.1435492,-81.454785)">
        <path
           style="fill:url(#linearGradient5349);fill-opacity:1.0;fill-rule:evenodd;stroke:url(#linearGradient5279);stroke-width:2.26300000999999980;stroke-linecap:butt;stroke-linejoin:miter;stroke-miterlimit:4;stroke-opacity:1;stroke-dasharray:none;opacity:1"
           d="m -1022.9251,-88.077824 c -51.6874,0 -99.5113,15.88258 -138.4721,42.842322 -59.7696,41.3588188 -98.6801,108.787176 -98.6801,184.935512 0,125.78563 106.1715,227.74539 237.1522,227.74539 130.98058,0 237.15215,-101.95976 237.15215,-227.74539 0,-125.785624 -106.17157,-227.777834 -237.15215,-227.777834 z m -2.0434,73.806378 c 89.3995,0 161.8889,69.577678 161.8889,155.431366 0,85.85368 -72.4894,155.4638 -161.8889,155.4638 -89.3994,0 -161.8579,-69.61012 -161.8579,-155.4638 0,-85.853688 72.4585,-155.431366 161.8579,-155.431366 z"
           id="path3761"
           inkscape:connector-curvature="0"
           sodipodi:nodetypes="sssssssssss" />
        <path
           sodipodi:type="arc"
           style="fill:#000000"
           id="path3763"
           sodipodi:cx="-980"
           sodipodi:cy="958.07648"
           sodipodi:rx="25.714285"
           sodipodi:ry="22.857143"
           d="m -954.28572,958.07648 c 0,12.62365 -11.51267,22.85714 -25.71428,22.85714 -14.20161,0 -25.7143,-10.23349 -25.7143,-22.85714 0,-12.62365 11.51269,-22.85715 25.7143,-22.85715 14.20161,0 25.71428,10.2335 25.71428,22.85715 z"
           transform="translate(154.28574,-802.85714)" />
        <path
           d="m -954.28572,958.07648 a 25.714285,22.857143 0 1 1 -51.42858,0 25.714285,22.857143 0 1 1 51.42858,0 z"
           sodipodi:ry="22.857143"
           sodipodi:rx="25.714285"
           sodipodi:cy="958.07648"
           sodipodi:cx="-980"
           id="path3765"
           style="fill:#000000"
           sodipodi:type="arc"
           transform="translate(-241.42717,-822.86541)" />
        <path
           sodipodi:type="arc"
           style="fill:#000000"
           id="path3767"
           sodipodi:cx="-980"
           sodipodi:cy="958.07648"
           sodipodi:rx="25.714285"
           sodipodi:ry="22.857143"
           d="m -954.28572,958.07648 c 0,12.62365 -11.51267,22.85714 -25.71428,22.85714 -14.20161,0 -25.7143,-10.23349 -25.7143,-22.85714 0,-12.62365 11.51269,-22.85715 25.7143,-22.85715 14.20161,0 25.71428,10.2335 25.71428,22.85715 z"
           transform="translate(89.290571,-960.00276)" />
        <path
           d="m -954.28572,958.07648 c 0,12.62365 -11.51267,22.85714 -25.71428,22.85714 -14.20161,0 -25.7143,-10.23349 -25.7143,-22.85714 0,-12.62365 11.51269,-22.85715 25.7143,-22.85715 14.20161,0 25.71428,10.2335 25.71428,22.85715 z"
           sodipodi:ry="22.857143"
           sodipodi:rx="25.714285"
           sodipodi:cy="958.07648"
           sodipodi:cx="-980"
           id="path3769"
           style="fill:#000000"
           sodipodi:type="arc"
           transform="translate(-51.428557,-1008.5714)" />
        <path
           sodipodi:type="arc"
           style="fill:#000000"
           id="path3771"
           sodipodi:cx="-980"
           sodipodi:cy="958.07648"
           sodipodi:rx="25.714285"
           sodipodi:ry="22.857143"
           d="m -954.28572,958.07648 c 0,12.62365 -11.51267,22.85714 -25.71428,22.85714 -14.20161,0 -25.7143,-10.23349 -25.7143,-22.85714 0,-12.62365 11.51269,-22.85715 25.7143,-22.85715 14.20161,0 25.71428,10.2335 25.71428,22.85715 z"
           transform="translate(-191.57489,-950.14492)"
           inkscape:transform-center-x="360"
           inkscape:transform-center-y="217.14286" />
        <path
           transform="translate(-63.576185,-627.85783)"
           d="m -954.28572,958.07648 c 0,12.62365 -11.51267,22.85714 -25.71428,22.85714 -14.20161,0 -25.7143,-10.23349 -25.7143,-22.85714 0,-12.62365 11.51269,-22.85715 25.7143,-22.85715 14.20161,0 25.71428,10.2335 25.71428,22.85715 z"
           sodipodi:ry="22.857143"
           sodipodi:rx="25.714285"
           sodipodi:cy="958.07648"
           sodipodi:cx="-980"
           id="path3773"
           style="fill:#000000"
           sodipodi:type="arc" />
        <path
           sodipodi:type="arc"
           style="fill:#000000"
           id="path3775"
           sodipodi:cx="-980"
           sodipodi:cy="958.07648"
           sodipodi:rx="25.714285"
           sodipodi:ry="22.857143"
           d="m -954.28572,958.07648 c 0,12.62365 -11.51267,22.85714 -25.71428,22.85714 -14.20161,0 -25.7143,-10.23349 -25.7143,-22.85714 0,-12.62365 11.51269,-22.85715 25.7143,-22.85715 14.20161,0 25.71428,10.2335 25.71428,22.85715 z"
           transform="translate(-184.29263,-687.86611)" />
        <path
           transform="translate(88.579706,-675.00759)"
           d="m -954.28572,958.07648 c 0,12.62365 -11.51267,22.85714 -25.71428,22.85714 -14.20161,0 -25.7143,-10.23349 -25.7143,-22.85714 0,-12.62365 11.51269,-22.85715 25.7143,-22.85715 14.20161,0 25.71428,10.2335 25.71428,22.85715 z"
           sodipodi:ry="22.857143"
           sodipodi:rx="25.714285"
           sodipodi:cy="958.07648"
           sodipodi:cx="-980"
           id="path3777"
           style="fill:#000000"
           sodipodi:type="arc" />
        <path
           sodipodi:type="arc"
           style="fill:#000000"
           id="path3779"
           sodipodi:cx="-1015.7407"
           sodipodi:cy="145.88071"
           sodipodi:rx="89.814812"
           sodipodi:ry="93.518517"
           d="m -925.92591,145.88071 c 0,51.64885 -40.21146,93.51851 -89.81479,93.51851 -49.6034,0 -89.8148,-41.86966 -89.8148,-93.51851 0,-51.648854 40.2114,-93.51852 89.8148,-93.51852 49.60333,0 89.81479,41.869666 89.81479,93.51852 z"
           transform="translate(-11.111111,0)" />
      </g>
    </g>
  </g>
</svg>
