<?xml version="1.0" encoding="UTF-8" standalone="no"?>
<svg
   xmlns:dc="http://purl.org/dc/elements/1.1/"
   xmlns:cc="http://creativecommons.org/ns#"
   xmlns:rdf="http://www.w3.org/1999/02/22-rdf-syntax-ns#"
   xmlns:svg="http://www.w3.org/2000/svg"
   xmlns="http://www.w3.org/2000/svg"
   xmlns:sodipodi="http://sodipodi.sourceforge.net/DTD/sodipodi-0.dtd"
   xmlns:inkscape="http://www.inkscape.org/namespaces/inkscape"
   version="1.1"
   id="svg2"
   xml:space="preserve"
   width="940.96002"
   height="574.62665"
   viewBox="0 0 940.96002 574.62665"
   sodipodi:docname="7155159.eps"><metadata
     id="metadata8"><rdf:RDF><cc:Work
         rdf:about=""><dc:format>image/svg+xml</dc:format><dc:type
           rdf:resource="http://purl.org/dc/dcmitype/StillImage" /></cc:Work></rdf:RDF></metadata><defs
     id="defs6" /><sodipodi:namedview
     pagecolor="#ffffff"
     bordercolor="#666666"
     borderopacity="1"
     objecttolerance="10"
     gridtolerance="10"
     guidetolerance="10"
     inkscape:pageopacity="0"
     inkscape:pageshadow="2"
     inkscape:window-width="640"
     inkscape:window-height="480"
     id="namedview4" /><g
     id="g10"
     inkscape:groupmode="layer"
     inkscape:label="ink_ext_XXXXXX"
     transform="matrix(1.3333333,0,0,-1.3333333,0,574.62667)"><g
       id="g12"
       transform="scale(0.1)"><path
         d="m 1902.44,3953.19 1.31,-0.08 -0.1,0.21 c -2.39,5.04 -44.49,95.93 -2.31,116.59 43.4,21.25 106.04,-21.16 106.04,-21.16 0,0 -39.45,173.35 72.09,201.52 111.55,28.16 190.01,-175.04 190.01,-175.04 0,0 51.77,63.15 72.27,-43.51 0,0 134.4,43.35 144.71,-105.77 0,0 44.69,27.8 39.65,-13.06 l -1.04,-6.27 -723.46,-1.73 c 0,0 70.39,49.38 100.83,48.3"
         style="fill:#f3f2f1;fill-opacity:1;fill-rule:evenodd;stroke:none"
         id="path14" /><path
         d="M 51.5273,8.37891 C 71.4531,37.3398 238.84,1142.38 238.84,1142.38 l 227.969,151.71 139.375,748.06 176.867,126.83 161.066,575.38 239.893,43.68 346.37,-123.81 184.36,-285.99 18.72,-375.87 128.9,827.18 81.19,77.47 92.95,629.21 314.57,120.75 626.32,-360.44 561.5,-1944.98 L 3576.91,28.3398 51.5273,8.37891"
         style="fill:#f3f2f1;fill-opacity:1;fill-rule:nonzero;stroke:none"
         id="path16" /><path
         d="M 213.191,0 450,991.781 238.84,1142.38 0,0 h 213.191"
         style="fill:#e7e8e5;fill-opacity:1;fill-rule:nonzero;stroke:none"
         id="path18" /><path
         d="M 466.809,1294.09 632.156,1217.62 662.516,935 747.523,1984.71 606.184,2042.15 466.809,1294.09"
         style="fill:#e7e8e5;fill-opacity:1;fill-rule:nonzero;stroke:none"
         id="path20" /><path
         d="m 783.051,2168.98 116.273,-56.42 127.506,585.42 -82.713,46.38 -161.066,-575.38"
         style="fill:#e7e8e5;fill-opacity:1;fill-rule:nonzero;stroke:none"
         id="path22" /><path
         d="m 1862.36,2829.55 -126.37,-814.84 37.79,-526.13 42.59,-731.74 176.12,1948.57 -130.13,124.14"
         style="fill:#e7e8e5;fill-opacity:1;fill-rule:nonzero;stroke:none"
         id="path24" /><path
         d="m 1943.55,2907.02 158.08,-112.61 30.3,697.59 -95.43,44.23 -92.95,-629.21"
         style="fill:#e7e8e5;fill-opacity:1;fill-rule:nonzero;stroke:none"
         id="path26" /><path
         d="m 2109.07,2941.84 202.42,-269.83 -209.86,122.4 z"
         style="fill:#e7e8e5;fill-opacity:1;fill-rule:nonzero;stroke:none"
         id="path28" /><path
         d="m 186.188,896.332 c 9.41,0 16.414,-195.953 203.167,-158.531 318.141,63.75 1405.635,369.149 1405.635,369.149 l 159.36,-50.92 157.01,-19.7 1307.74,730.17 34.95,-127.59 -1331.02,-659.48 -168.68,6.66 -178.18,70.9 -1406.389,-401.029 -222.91,46.551 39.317,193.82"
         style="fill:#dadbd8;fill-opacity:1;fill-rule:evenodd;stroke:none"
         id="path30" /><path
         d="m 3555.72,793.59 -1656.26,-478.469 -176.4,148.57 c 0,0 -1443.427,-281.89 -1464.595,-274.07 L 31.1836,158.531 6.5625,31.4023 219.75,27.4688 1680.72,315.121 l 127.01,-86.012 1755.67,310.11 -7.68,254.371"
         style="fill:#dadbd8;fill-opacity:1;fill-rule:evenodd;stroke:none"
         id="path32" /><path
         d="m 718.035,1620.57 c 0,0 216.461,173.78 485.665,285.12 L 1731.84,2035 c -15.73,-3.85 211.83,130.3 211.83,130.3 0,0 272.22,-71.96 485.41,-50.36 l 150.91,97.83 c 216.91,18.61 723.92,-47.26 723.92,-47.26 l 28.15,-97.52 c 0,0 -533.88,77.57 -745.46,65 0,0 -104.62,-90.19 -157.52,-93.84 l -487.68,25.79 c 0,0 -205.41,-164.9 -202.08,-149.15 L 1214.09,1795.1 C 937.469,1654.01 701.195,1412.63 701.195,1412.63 l -180.445,170.99 22.09,118.55 175.195,-81.6"
         style="fill:#dadbd8;fill-opacity:1;fill-rule:evenodd;stroke:none"
         id="path34" /><path
         d="m 1986.56,3198.19 c 0.33,2.23 116.57,46.87 116.57,46.87 l 953.95,-224.56 -21.01,72.78 -904.14,226.08 -134.24,-45.84 -11.13,-75.33"
         style="fill:#dadbd8;fill-opacity:1;fill-rule:evenodd;stroke:none"
         id="path36" /><path
         d="m 7026.4,3151.74 -475.6,198.88 -250.2,346.43 h -352.85 l -673.61,-365.67 -141.14,-6.42 -365.68,-134.73 -64.15,-949.47 -250.2,-89.82 -96.23,-705.69 c 0,0 -391.34,-263.03 -397.76,-282.28 -6.41,-19.25 -179.63,-705.689 -179.63,-705.689 L 5677.14,8.78906 7026.4,13.7891 V 3151.74"
         style="fill:#f3f2f1;fill-opacity:1;fill-rule:nonzero;stroke:none"
         id="path38" /><path
         d="m 5133,3324.96 -11.72,-1160.51 154.28,-308.55 -1.42,1475.47 -141.14,-6.41"
         style="fill:#e7e8e5;fill-opacity:1;fill-rule:nonzero;stroke:none"
         id="path40" /><path
         d="M 6300.6,3697.05 6404.57,1762.96 6550.8,3350.62 Z"
         style="fill:#e7e8e5;fill-opacity:1;fill-rule:nonzero;stroke:none"
         id="path42" /><path
         d="m 6300.6,3697.05 -360.53,-31.87 -665.93,-333.81 673.62,365.68 h 352.84"
         style="fill:#ffffff;fill-opacity:1;fill-rule:nonzero;stroke:none"
         id="path44" /><path
         d="m 5133,3324.96 -201.97,-74.41 -17.84,-75.31 -9.57,65.21 -136.3,-50.22 215.15,98.83 150.53,35.9"
         style="fill:#ffffff;fill-opacity:1;fill-rule:nonzero;stroke:none"
         id="path46" /><path
         d="m 4703.17,2240.75 -238.57,-96.51 -107.86,-698.99 -397.76,-282.28 372.1,290.4 121.89,697.57 250.2,89.81"
         style="fill:#ffffff;fill-opacity:1;fill-rule:nonzero;stroke:none"
         id="path48" /><path
         d="m 7026.4,1938.89 c 0,0 -332.76,31.07 -640.72,104.66 -307.95,73.59 -622.83,187.65 -622.83,187.65 l -487.29,-49.56 -153.77,-17.41 -402.96,308.32 -8.49,-125.72 400.02,-232.89 165.2,5.89 505.72,67.22 606.9,-199.15 640.23,-154.01 -2.01,105"
         style="fill:#dadbd8;fill-opacity:1;fill-rule:evenodd;stroke:none"
         id="path50" /><path
         d="m 7023.79,1281.65 c -0.13,4.98 -1242.51,147.71 -1242.51,147.71 l -153.6,-116.73 -1236.55,322.35 -34.39,-189.73 1350.81,-200.2 110.59,67.58 1210.88,-225.64 -5.23,194.66"
         style="fill:#dadbd8;fill-opacity:1;fill-rule:evenodd;stroke:none"
         id="path52" /><path
         d="m 7019.98,2427.26 c 0,0 -288.66,185.94 -552.31,284.34 l -110.53,-37.69 c -244.58,91.3 -489.54,182.85 -580.77,217.25 -89.7,33.84 -300,-13.73 -508.79,5.36 l -147.8,86.46 c -212.44,16.45 -364.9,23.05 -364.9,23.05 l -5.2,-76.97 c 0,0 156.42,-5.48 363.62,-16.59 0,0 102.47,-79.7 154.28,-82.93 l 477.61,22.8 c 58.32,-21.49 338.63,-148.8 617.23,-276.72 l 95.07,38.25 c 270.92,-124.69 570.92,-381.99 570.92,-381.99 l -8.43,195.38"
         style="fill:#dadbd8;fill-opacity:1;fill-rule:evenodd;stroke:none"
         id="path54" /><path
         d="m 7015.67,412.359 c 0.11,0.02 -0.09,1.352 -0.6,3.922 -0.61,2.918 -1.4,6.66 -2.39,11.348 -2.35,10.402 -5.64,24.973 -9.82,43.512 -8.91,38.168 -21.63,92.621 -37.29,159.718 -32.19,135.09 -76.49,320.981 -125.41,526.311 -11.89,49.42 -23.51,97.71 -34.71,144.26 l -0.19,0.8 -0.52,0.6 c -113.57,131.31 -213.2,246.49 -284.78,329.25 -35.62,40.77 -64.24,73.54 -84.29,96.48 -9.73,10.95 -17.37,19.55 -22.88,25.74 -2.46,2.68 -4.44,4.84 -6.02,6.56 -1.38,1.46 -2.12,2.17 -2.2,2.1 -0.07,-0.07 0.52,-0.91 1.76,-2.5 1.47,-1.82 3.31,-4.11 5.6,-6.95 5.31,-6.37 12.67,-15.22 22.06,-26.48 19.71,-23.26 47.84,-56.47 82.86,-97.79 71.16,-83.14 170.21,-198.86 283.12,-330.77 l -0.71,1.38 c 11.16,-46.56 22.74,-94.86 34.59,-144.29 49.65,-205.138 94.59,-390.869 127.26,-525.841 16.51,-66.879 29.9,-121.16 39.29,-159.199 4.69,-18.418 8.38,-32.891 11.01,-43.211 1.25,-4.629 2.24,-8.321 3.02,-11.2 0.71,-2.507 1.13,-3.777 1.24,-3.75"
         style="fill:#dadbd8;fill-opacity:1;fill-rule:nonzero;stroke:none"
         id="path56" /><path
         d="m 6731.1,412.371 c 0.03,0.09 -1.39,0.68 -4.19,1.75 -3.06,1.129 -7.18,2.66 -12.51,4.629 -11.34,4.07 -27.65,9.922 -48.66,17.449 -42.81,15.09 -104.73,36.922 -182.35,64.281 -156.08,54.469 -375.25,130.961 -628.81,219.461 l 1.95,-1.89 c -39.14,103.351 -81.39,214.918 -125.07,330.279 -34.68,91.4 -68.45,180.4 -100.73,265.46 l -0.21,0.55 -0.38,0.44 c -74.54,84.97 -144.89,165.16 -209.43,238.74 l 0.43,-0.66 c -88.94,182.52 -163.45,335.43 -215.87,442.98 -26.23,53.37 -46.93,95.47 -61.2,124.5 -7.07,14.15 -12.54,25.09 -16.37,32.77 -1.82,3.52 -3.23,6.27 -4.31,8.36 -0.99,1.86 -1.53,2.79 -1.6,2.76 -0.07,-0.04 0.33,-1.04 1.17,-2.97 0.98,-2.14 2.25,-4.95 3.89,-8.56 3.65,-7.77 8.85,-18.85 15.56,-33.16 13.93,-29.2 34.13,-71.54 59.73,-125.22 51.88,-107.81 125.64,-261.07 213.69,-444.03 l 0.17,-0.35 0.27,-0.31 c 64.4,-73.7 134.59,-154.04 208.96,-239.14 l -0.59,0.99 c 32.22,-85.08 65.94,-174.1 100.56,-265.52 43.78,-115.331 86.1,-226.87 125.32,-330.19 l 0.53,-1.411 1.42,-0.488 c 253.88,-87.59 473.32,-163.312 629.58,-217.219 77.89,-26.613 140.02,-47.832 182.97,-62.511 21.17,-7.102 37.59,-12.61 49.01,-16.442 5.41,-1.758 9.59,-3.109 12.7,-4.117 2.86,-0.891 4.33,-1.301 4.37,-1.211"
         style="fill:#dadbd8;fill-opacity:1;fill-rule:nonzero;stroke:none"
         id="path58" /><path
         d="m 5633.54,1850.26 c 1.82,-0.32 74.39,402.22 162.07,898.98 87.71,496.93 157.32,899.9 155.5,900.22 -1.82,0.33 -74.38,-402.12 -162.08,-899.06 -87.68,-496.76 -157.31,-899.82 -155.49,-900.14"
         style="fill:#dadbd8;fill-opacity:1;fill-rule:nonzero;stroke:none"
         id="path60" /><path
         d="m 4080.66,2929.57 -0.77,-0.05 0.05,0.13 c 1.41,2.96 26.15,56.38 1.36,68.52 -25.5,12.48 -62.31,-12.44 -62.31,-12.44 0,0 23.18,101.87 -42.37,118.43 -65.55,16.55 -111.66,-102.87 -111.66,-102.87 0,0 -30.42,37.11 -42.47,-25.57 0,0 -78.99,25.48 -85.05,-62.16 0,0 -26.26,16.34 -23.3,-7.67 l 0.61,-3.69 425.16,-1.01 c 0,0 -41.36,29.01 -59.25,28.38"
         style="fill:#e7e8e5;fill-opacity:1;fill-rule:evenodd;stroke:none"
         id="path62" /><path
         d="m 409.117,3382.91 1.879,-0.11 -0.141,0.31 c -3.417,7.2 -63.593,137.11 -3.308,166.63 62.027,30.37 151.562,-30.24 151.562,-30.24 0,0 -56.39,247.77 103.039,288.02 159.438,40.26 271.582,-250.17 271.582,-250.17 0,0 73.99,90.26 103.29,-62.19 0,0 192.1,61.95 206.84,-151.18 0,0 63.87,39.73 56.67,-18.68 l -1.48,-8.95 -1034.046,-2.47 c 0,0 100.605,70.57 144.113,69.03"
         style="fill:#e7e8e5;fill-opacity:1;fill-rule:evenodd;stroke:none"
         id="path64" /><path
         d="m 6235.99,3912.19 -1.75,-0.11 0.13,0.29 c 3.18,6.68 59.01,127.21 3.07,154.61 -57.55,28.17 -140.62,-28.07 -140.62,-28.07 0,0 52.32,229.89 -95.6,267.24 -147.93,37.35 -251.98,-232.11 -251.98,-232.11 0,0 -68.64,83.74 -95.83,-57.71 0,0 -178.24,57.48 -191.91,-140.26 0,0 -59.26,36.86 -52.58,-17.33 l 1.38,-8.31 959.4,-2.3 c 0,0 -93.35,65.48 -133.71,64.06"
         style="fill:#f3f2f1;fill-opacity:1;fill-rule:evenodd;stroke:none"
         id="path66" /><path
         d="m 7057.23,11.2695 c 0,0 -6.02,-0.1679 -17.77,-0.2304 -11.81,-0.0274 -29.26,-0.0703 -52.13,-0.1289 -45.89,0.0117 -113.46,0.0117 -200.45,0.0117 -174.14,0.2695 -426.01,0.6601 -737.21,1.1367 -622.56,1.2617 -1482.46,3.0039 -2432.2,4.9336 -950.1,1.25 -1810.12,0.2383 -2432.61,-1.9414 C 873.656,13.7813 621.816,12.75 447.695,12.0313 360.715,11.6719 293.164,11.3906 247.273,11.1992 c -22.859,-0.039 -40.304,-0.0586 -52.121,-0.0781 -11.742,0.0078 -17.757,0.1484 -17.757,0.1484 0,0 6.011,0.211 17.753,0.3828 11.813,0.1368 29.262,0.3399 52.118,0.5977 45.886,0.4219 113.437,1.0313 200.414,1.8086 174.125,1.1016 425.965,2.7031 737.17,4.6719 622.49,3.1211 1482.52,4.7109 2432.62,3.4609 949.75,-2.5195 1809.65,-4.793 2432.21,-6.4492 311.2,-1.1836 563.06,-2.1328 737.21,-2.793 86.99,-0.4297 154.55,-0.7578 200.45,-0.9883 22.86,-0.1718 40.31,-0.3007 52.13,-0.3789 11.74,-0.1211 17.76,-0.3125 17.76,-0.3125"
         style="fill:#17282f;fill-opacity:1;fill-rule:nonzero;stroke:none"
         id="path68" /><path
         d="M 6498.8,23.7617 5339.86,865.461 4726.26,912.621 4307.61,1207.98 3346.5,1089.92 3081.84,618.719 2395.68,607.891 1949.22,462.691 1822.37,232.719 1132.33,26.5195 6498.8,23.7617"
         style="fill:#ba6258;fill-opacity:1;fill-rule:nonzero;stroke:none"
         id="path70" /><path
         d="m 1678.03,397.809 -17.4,-21.758 v -51.34 l 70.26,39.18 -52.86,33.918"
         style="fill:#ba6258;fill-opacity:1;fill-rule:nonzero;stroke:none"
         id="path72" /><path
         d="m 1544.25,446.77 -71.43,-28.411 27.34,-69.507 63.68,35.707 -19.59,62.211"
         style="fill:#ba6258;fill-opacity:1;fill-rule:nonzero;stroke:none"
         id="path74" /><path
         d="m 1449.22,280.02 -29.96,-13.821 29.96,-44.929 47.23,6.91 24.2,40.32 -71.43,11.52"
         style="fill:#ba6258;fill-opacity:1;fill-rule:nonzero;stroke:none"
         id="path76" /><path
         d="m 1592.03,289.809 -8.07,-21.887 26.5,-8.063 24.19,29.95 -25.34,10.371 -17.28,-10.371"
         style="fill:#ba6258;fill-opacity:1;fill-rule:nonzero;stroke:none"
         id="path78" /><path
         d="m 4307.61,1207.98 -264.58,-32.5 621.77,-326.988 675.06,16.969 -609.72,49.211 -422.53,293.308"
         style="fill:#6f3530;fill-opacity:1;fill-rule:nonzero;stroke:none"
         id="path80" /><path
         d="M 5114.67,848.492 5679.31,584.289 6498.8,23.7617 5339.86,865.461 l -249.9,-6.281 24.71,-10.688"
         style="fill:#6f3530;fill-opacity:1;fill-rule:nonzero;stroke:none"
         id="path82" /><path
         d="m 3153.73,746.699 57.17,101.793 h 463.72 l 602.28,203.998 48.88,-25.71 -674.56,-268.948 -497.49,-11.133"
         style="fill:#8d4c45;fill-opacity:1;fill-rule:nonzero;stroke:none"
         id="path84" /><path
         d="m 4325.78,1026.78 -48.88,25.71 169.66,57.46 31.71,-22.37 -152.49,-60.8"
         style="fill:#542625;fill-opacity:1;fill-rule:nonzero;stroke:none"
         id="path86" /><path
         d="m 1892.86,360.52 -4.99,0.742 61.35,101.429 -56.36,-102.171"
         style="fill:#babcba;fill-opacity:1;fill-rule:nonzero;stroke:none"
         id="path88" /><path
         d="m 2660.67,246.262 -767.81,114.258 56.36,102.171 764.7,-64.882 733.2,149.441 924.24,-183.93 c -7.11,-13.082 -14.25,-26.199 -21.41,-39.359 L 4329.7,300.18 c 0,0 -840.34,161.3 -881.51,161.3 -0.46,0 -0.82,-0.019 -1.07,-0.058 -11.06,-1.731 -166.97,-53.121 -328.13,-106.774 l -32.22,43.161 -418.44,-137.95 -7.66,-13.597"
         style="fill:#8d4c45;fill-opacity:1;fill-rule:nonzero;stroke:none"
         id="path90" /><path
         d="m 5822.77,514.742 -81.23,58.988 7.38,2.399 83.23,-58.859 -9.38,-2.528"
         style="fill:#babcba;fill-opacity:1;fill-rule:nonzero;stroke:none"
         id="path92" /><path
         d="m 5278.44,367.609 c -22.33,10.391 -45.59,21.2 -69.7,32.411 l 501.12,163.378 82.97,-56.757 -514.39,-139.032"
         style="fill:#8d4c45;fill-opacity:1;fill-rule:nonzero;stroke:none"
         id="path94" /><path
         d="m 5792.83,506.641 -82.97,56.757 31.68,10.332 81.23,-58.988 -29.94,-8.101"
         style="fill:#542625;fill-opacity:1;fill-rule:nonzero;stroke:none"
         id="path96" /><path
         d="m 2153.97,39.8906 c -17.39,0.0078 -544.66,107.2614 -544.66,107.2614 l 121.58,36.328 402.32,-116.4605 470.14,77.4725 -30.97,-55.0115 C 2468.18,77.25 2162.2,41.2891 2154.27,39.8984 c -0.07,-0.0078 -0.17,-0.0078 -0.3,-0.0078"
         style="fill:#8d4c45;fill-opacity:1;fill-rule:nonzero;stroke:none"
         id="path98" /><path
         d="M 2537.59,27.7109 2668.33,259.859 3086.77,397.809 3307.84,67.0195 2537.59,27.7109"
         style="fill:#ba6258;fill-opacity:1;fill-rule:nonzero;stroke:none"
         id="path100" /><path
         d="M 3086.77,397.809 2875.43,328.141 3045.87,21.6602 h 321.62 L 3086.77,397.809"
         style="fill:#6f3530;fill-opacity:1;fill-rule:nonzero;stroke:none"
         id="path102" /><path
         d="m 2850.49,120.492 -248.14,20.887 31.95,57.371 222.82,-41.141 90.12,41.403 18.86,-33.91 -115.61,-44.61"
         style="fill:#8d4c45;fill-opacity:1;fill-rule:nonzero;stroke:none"
         id="path104" /><path
         d="m 2966.1,165.102 -18.86,33.91 214.38,98.48 32.99,-44.211 -228.51,-88.179"
         style="fill:#542625;fill-opacity:1;fill-rule:nonzero;stroke:none"
         id="path106" /><path
         d="m 3363.78,26.5313 c -0.07,-0.0508 -0.59,0.5273 -1.56,1.6992 -1.12,1.3906 -2.5,3.1289 -4.22,5.2812 -3.85,4.9805 -9.17,11.8672 -15.95,20.6485 -13.96,18.4218 -33.89,44.6992 -58.71,77.4298 -49.84,66.422 -119.26,158.949 -198.61,264.699 l 2.8,-0.91 c -37.94,-11.789 -77.5,-24.09 -118.08,-36.699 -109.29,-33.75 -211.26,-65.25 -296.78,-91.668 l 1.27,1.039 c -40.67,-72.25 -74.5,-132.352 -98.36,-174.7502 -11.83,-20.7188 -21.19,-37.0899 -27.77,-48.6289 -3.14,-5.3399 -5.61,-9.5508 -7.46,-12.711 -1.72,-2.8593 -2.65,-4.3007 -2.76,-4.25 -0.1,0.0586 0.64,1.6211 2.16,4.5782 1.71,3.2422 3.99,7.5625 6.88,13.0429 6.34,11.668 15.33,28.25 26.71,49.2188 23.47,42.6092 56.75,103.0312 96.74,175.6402 l 0.43,0.77 0.85,0.269 c 85.45,26.629 187.34,58.391 296.55,92.43 40.58,12.57 80.16,24.832 118.11,36.578 l 1.72,0.543 1.07,-1.449 c 78.77,-106.172 147.69,-199.082 197.17,-265.773 24.3,-33.11 43.82,-59.6996 57.5,-78.3285 6.48,-9 11.57,-16.0703 15.25,-21.1797 1.58,-2.2617 2.84,-4.082 3.86,-5.5391 0.85,-1.2617 1.25,-1.9297 1.19,-1.9804"
         style="fill:#17282f;fill-opacity:1;fill-rule:nonzero;stroke:none"
         id="path108" /><path
         d="m 5486.62,23.1602 c -2.76,8.289 -184.99,331.3318 -184.99,331.3318 l -601.92,278.867 -215.36,-69.027 -219.29,-403.281 -0.02,-139.1096 1221.58,1.2188"
         style="fill:#ba6258;fill-opacity:1;fill-rule:nonzero;stroke:none"
         id="path110" /><path
         d="m 5486.62,23.1602 c 0,0 -1.88,-0.1094 -5.8,-0.1797 -4.16,-0.0391 -9.97,-0.1016 -17.52,-0.1797 -15.77,-0.1016 -38.69,-0.25 -68.26,-0.4297 -59.95,-0.2695 -146.81,-0.6602 -255.4,-1.1406 -218.42,-0.6094 -524.19,-1.4805 -874.6,-2.461 l -3.17,-0.0078 v 3.1797 c -0.01,44.0586 -0.02,91.2496 -0.04,139.1096 v 0.808 l 0.4,0.731 c 28.03,51.57 57.65,106.058 87.69,161.32 44.95,82.621 88.96,163.52 131.62,241.949 l 0.61,1.121 1.23,0.391 c 73.96,23.668 145.89,46.68 215.39,68.91 l 1.15,0.371 1.08,-0.511 C 4937.7,526.07 5144.93,429.699 5302.52,356.41 l 0.62,-0.289 0.33,-0.59 c 57.94,-103.992 104.09,-186.82 135.87,-243.859 15.49,-28.4103 27.47,-50.3907 35.69,-65.4806 3.85,-7.3711 6.81,-13.0312 8.92,-17.0625 1.95,-4.0391 2.67,-5.9687 2.67,-5.9687 -7.88,13.9218 -70.79,125.1288 -186.84,330.2888 l 0.95,-0.879 c -157.79,72.832 -365.3,168.61 -602.31,278 l 2.23,-0.14 c -69.48,-22.309 -141.39,-45.399 -215.32,-69.141 l 1.83,1.512 c -42.64,-78.442 -86.62,-159.352 -131.53,-241.992 -30.06,-55.25 -59.69,-109.739 -87.74,-161.297 l 0.39,1.539 C 4268.26,113.18 4268.24,66 4268.22,21.9414 l -3.18,3.1797 c 349.36,-0.2891 654.22,-0.5391 871.99,-0.7188 108.97,-0.2734 196.13,-0.4804 256.3,-0.6328 29.93,-0.1211 53.09,-0.2187 69.05,-0.289 7.75,-0.0703 13.71,-0.1211 17.97,-0.1485 4.07,-0.0625 6.27,-0.1718 6.27,-0.1718"
         style="fill:#6f3530;fill-opacity:1;fill-rule:nonzero;stroke:none"
         id="path112" /><path
         d="m 5301.63,354.492 -601.92,278.867 507.53,-306.328 49.04,-304.8122 230.34,0.9414 -184.99,331.3318"
         style="fill:#6f3530;fill-opacity:1;fill-rule:nonzero;stroke:none"
         id="path114" /><path
         d="m 4578.42,409.16 -162.75,22.121 c 8.9,16.379 17.76,32.68 26.57,48.879 l 139.43,-27.691 329.87,48.562 3.01,2.66 19.61,-11.839 -355.74,-82.692"
         style="fill:#8d4c45;fill-opacity:1;fill-rule:nonzero;stroke:none"
         id="path116" /><path
         d="m 4415.67,431.281 -0.13,0.02 25.4,49.109 1.3,-0.25 c -8.81,-16.199 -17.67,-32.5 -26.57,-48.879"
         style="fill:#542625;fill-opacity:1;fill-rule:nonzero;stroke:none"
         id="path118" /><path
         d="m 4978.85,506.93 c -6.91,3.211 -13.84,6.441 -20.82,9.691 l 21.4,-9.492 -0.58,-0.199"
         style="fill:#8d4c45;fill-opacity:1;fill-rule:nonzero;stroke:none"
         id="path120" /><path
         d="m 4975.23,505.711 -38.35,17.769 1.9,1.672 19.25,-8.531 c 6.98,-3.25 13.91,-6.48 20.82,-9.691 l -3.62,-1.219"
         style="fill:#542625;fill-opacity:1;fill-rule:nonzero;stroke:none"
         id="path122" /><path
         d="m 4934.16,491.852 -19.61,11.839 22.33,19.789 38.35,-17.769 -41.07,-13.859"
         style="fill:#542625;fill-opacity:1;fill-rule:nonzero;stroke:none"
         id="path124" /><path
         d="m 4268.25,101.652 c 0.01,19.289 0.02,38.879 0.03,58.567 0.6,1.101 1.19,2.203 1.79,3.293 l 318.23,77.328 632.46,-60.777 9.36,4.746 6.62,-41.098 -648.44,72.43 -320.05,-114.489"
         style="fill:#8d4c45;fill-opacity:1;fill-rule:nonzero;stroke:none"
         id="path126" /><path
         d="m 4265.04,100.5 v 61.789 l 5.03,1.223 c -0.6,-1.09 -1.19,-2.192 -1.79,-3.293 -0.01,-19.688 -0.02,-39.278 -0.03,-58.567 l -3.21,-1.152 m 1118.93,106.512 -24.28,43.48 v 0 l 24.81,-43.262 -0.53,-0.218"
         style="fill:#542625;fill-opacity:1;fill-rule:nonzero;stroke:none"
         id="path128" /><path
         d="m 5236.74,143.711 v 0 l -6.62,41.098 129.57,65.683 24.28,-43.48 -147.23,-63.301"
         style="fill:#542625;fill-opacity:1;fill-rule:nonzero;stroke:none"
         id="path130" /><path
         d="m 5384.46,1234.08 c 18.98,-8.24 32.94,-25.78 39.95,-45.25 7.01,-19.48 7.64,-40.75 5.31,-61.31 -4.51,-39.78 -27.12,-79.94 -51.46,-111.73 -33.5,29.24 -41.2,80.24 -43.49,106.36 -3.61,41.28 14.93,118.09 49.69,111.93"
         style="fill:#f2575d;fill-opacity:1;fill-rule:nonzero;stroke:none"
         id="path132" /><path
         d="m 5417.21,950.129 c -5.37,22.492 3.99,47.152 21.25,62.531 17.26,15.38 41.37,21.88 64.42,20.12 10.66,-0.81 22.18,-3.92 28.28,-12.7 5.7,-8.2 5.06,-19.65 0.43,-28.498 -4.63,-8.863 -12.64,-15.48 -21.1,-20.793 -29.03,-18.219 -60.46,-30.508 -93.28,-20.66"
         style="fill:#f2575d;fill-opacity:1;fill-rule:nonzero;stroke:none"
         id="path134" /><path
         d="m 5374.24,828.148 c -0.2,0.043 0.26,2.942 1.2,8.161 1.05,5.75 2.41,13.171 4.05,22.089 3.7,18.461 8.45,44.911 22.8,70.582 14.15,25.61 33.97,44.469 50.65,53.829 8.28,4.793 15.53,7.652 20.65,9.132 2.53,0.848 4.59,1.18 5.95,1.508 1.37,0.293 2.1,0.403 2.13,0.301 0.23,-0.648 -11.61,-2.781 -27.67,-12.699 -16.11,-9.641 -35.25,-28.301 -49.18,-53.481 -14.06,-25.14 -19.11,-51.218 -23.32,-69.578 -2.03,-9.262 -3.68,-16.762 -4.96,-21.91 -1.28,-5.16 -2.11,-7.98 -2.3,-7.934"
         style="fill:#17282f;fill-opacity:1;fill-rule:nonzero;stroke:none"
         id="path136" /><path
         d="m 5375.5,1174.35 c 0.1,0 0.24,-1.23 0.41,-3.57 0.16,-2.65 0.36,-6.05 0.61,-10.25 0.48,-8.91 1,-21.81 1.51,-37.75 1.04,-31.87 1.85,-75.93 1.64,-124.6 -0.22,-48.68 -1.41,-92.739 -2.72,-124.61 -0.65,-15.929 -1.28,-28.82 -1.83,-37.718 -0.29,-4.2 -0.52,-7.602 -0.7,-10.25 -0.19,-2.34 -0.34,-3.571 -0.44,-3.563 -0.1,0 -0.15,1.242 -0.15,3.59 0.04,2.652 0.09,6.051 0.16,10.262 0.22,9.281 0.53,22.078 0.91,37.75 0.79,31.871 1.65,75.898 1.87,124.55 0.2,48.639 -0.28,92.669 -0.79,124.549 -0.24,15.66 -0.44,28.47 -0.59,37.75 -0.02,4.21 -0.04,7.62 -0.06,10.27 0.02,2.35 0.07,3.58 0.17,3.59"
         style="fill:#17282f;fill-opacity:1;fill-rule:nonzero;stroke:none"
         id="path138" /><path
         d="m 5359.24,925.91 c -7.62,48.141 -40.06,91.65 -84.01,112.71 -11.2,5.36 -25.82,8.86 -35.02,0.54 -9.21,-8.34 -7.15,-23.31 -2.64,-34.9 18.76,-48.201 69.16,-82.229 120.88,-81.619"
         style="fill:#f2575d;fill-opacity:1;fill-rule:nonzero;stroke:none"
         id="path140" /><path
         d="m 5280.66,1000.88 c 0.08,0.18 2.6,-0.931 7.1,-3.099 2.27,-1.07 5.03,-2.39 8.04,-4.281 3.01,-1.879 6.64,-3.711 10.22,-6.41 3.66,-2.578 7.74,-5.328 11.7,-8.809 4.17,-3.242 8.22,-7.16 12.45,-11.312 8.26,-8.5 16.57,-18.66 23.66,-30.399 6.99,-11.8 12.05,-23.918 15.59,-35.238 1.59,-5.723 3.13,-11.141 3.94,-16.363 1.13,-5.16 1.55,-10.059 2.01,-14.52 0.61,-4.437 0.4,-8.508 0.55,-12.058 0.17,-3.551 -0.06,-6.61 -0.27,-9.102 -0.36,-4.98 -0.66,-7.719 -0.86,-7.699 -0.65,0.019 0.49,11.062 -1.46,28.648 -0.58,4.391 -1.11,9.203 -2.33,14.262 -0.9,5.121 -2.5,10.441 -4.13,16.039 -3.62,11.09 -8.66,22.941 -15.52,34.543 -6.98,11.527 -15.07,21.547 -23.09,30.02 -4.12,4.14 -8.04,8.07 -12.09,11.339 -3.84,3.508 -7.79,6.309 -11.33,8.969 -14.39,10.32 -24.48,14.91 -24.18,15.47"
         style="fill:#17282f;fill-opacity:1;fill-rule:nonzero;stroke:none"
         id="path142" /><path
         d="m 4803.11,3575.42 c 0.17,-0.39 6.84,3.06 19.64,7.12 12.75,4 32.03,8.25 55.97,7.13 23.77,-1.06 52.43,-8.04 78.56,-25.94 26.06,-17.53 49.49,-45.48 60.93,-80.09 l 0.32,-0.92 2.09,-5.92 1.82,5.95 c 10.63,34.79 32.42,63.61 57.12,82.89 24.75,19.59 52.37,29.25 75.8,32.95 23.58,3.75 43.13,2.05 56.26,-0.17 13.18,-2.26 20.25,-4.65 20.37,-4.25 0.04,0.13 -1.7,0.79 -5.06,1.91 -3.36,1.14 -8.41,2.58 -15.02,3.9 -13.16,2.73 -32.95,4.92 -56.99,1.47 -23.87,-3.39 -52.23,-12.95 -77.67,-32.84 -25.4,-19.56 -47.82,-48.98 -58.73,-84.66 l 3.91,0.03 -0.33,0.94 c -11.76,35.58 -35.9,64.15 -62.71,81.94 -26.9,18.18 -56.36,25 -80.55,25.71 -24.39,0.76 -43.87,-4.01 -56.59,-8.52 -6.4,-2.22 -11.22,-4.36 -14.39,-6 -3.18,-1.6 -4.82,-2.5 -4.75,-2.63"
         style="fill:#17282f;fill-opacity:1;fill-rule:nonzero;stroke:none"
         id="path144" /><path
         d="m 4005.85,3815.41 c 0.15,-0.33 3.87,1.45 10.92,3.57 7.01,2.09 17.57,4.31 30.64,3.61 12.97,-0.66 28.57,-4.54 42.76,-14.32 14.16,-9.59 26.89,-24.82 33.11,-43.63 l 0.18,-0.5 2.09,-5.92 1.82,5.95 c 5.78,18.93 17.62,34.64 31.05,45.19 13.45,10.71 28.48,16.04 41.27,18.14 12.87,2.14 23.57,1.31 30.78,0.2 7.24,-1.13 11.16,-2.32 11.27,-1.98 0.04,0.13 -0.9,0.55 -2.74,1.23 -1.83,0.68 -4.6,1.53 -8.24,2.32 -7.25,1.61 -18.18,2.92 -31.51,1.09 -13.22,-1.79 -28.99,-7.03 -43.14,-18.03 -14.12,-10.82 -26.6,-27.13 -32.66,-46.97 l 3.91,0.03 -0.19,0.53 c -6.54,19.79 -19.98,35.64 -34.89,45.48 -14.97,10.06 -31.35,13.78 -44.75,14.09 -13.52,0.34 -24.28,-2.4 -31.27,-4.99 -3.51,-1.29 -6.15,-2.52 -7.87,-3.48 -1.73,-0.93 -2.61,-1.49 -2.54,-1.61"
         style="fill:#17282f;fill-opacity:1;fill-rule:nonzero;stroke:none"
         id="path146" /><path
         d="m 4518,3987.82 c -0.22,-0.28 4.24,-4.07 11.88,-11.29 7.66,-7.21 18.2,-18.26 29.5,-33.24 22.68,-29.56 47.01,-77.7 51.39,-135.01 l 0.17,-1.75 4.09,0.03 c 1.76,28.31 8.81,54.77 18.68,77.23 9.83,22.53 22.07,41.2 33.94,55.49 11.84,14.32 22.89,24.67 30.91,31.29 8,6.65 12.68,10.06 12.47,10.36 -0.08,0.12 -1.32,-0.62 -3.62,-2.14 -2.25,-1.59 -5.78,-3.67 -9.85,-6.99 -8.38,-6.28 -19.85,-16.4 -32.13,-30.67 -12.29,-14.23 -24.98,-33.01 -35.17,-55.82 -10.22,-22.74 -17.53,-49.66 -19.33,-78.52 l 4.09,0.02 -0.17,1.78 c -4.45,58.31 -29.65,107.04 -53.17,136.46 -11.72,14.93 -22.69,25.76 -30.72,32.66 -3.9,3.58 -7.29,5.94 -9.45,7.69 -2.21,1.69 -3.42,2.53 -3.51,2.42"
         style="fill:#17282f;fill-opacity:1;fill-rule:nonzero;stroke:none"
         id="path148" /><path
         d="m 2822.3,3315.69 c 0,0 -57.05,-87.44 -97.31,-187.86 -24.29,-60.57 -42.49,-310.91 -22.32,-349.02 24.09,-45.51 67.39,-65.38 116.19,-81.8 92.09,-30.97 257.27,-57.53 257.27,-57.53 l 58.93,66.74 -257.19,133.74 107.45,382.67 -163.02,93.06"
         style="fill:#ba6258;fill-opacity:1;fill-rule:nonzero;stroke:none"
         id="path150" /><path
         d="m 3074.32,2666.41 80.47,-41.59 c 0,0 40.2,24.4 57.91,-0.15 17.71,-24.55 -1.47,-45.47 -1.47,-45.47 0,0 -32.89,1.55 -36.09,-3.83 -3.21,-5.37 -3.98,-21.82 16.46,-24.68 20.44,-2.87 52.28,5.54 52.28,5.54 0,0 48.33,18.98 50.87,30.57 2.55,11.6 35.2,24.16 36.58,34.86 1.38,10.71 -3.22,30.36 -3.22,30.36 0,0 -31.68,49.5 -38.7,56.31 -7.01,6.8 -156.25,13.63 -156.25,13.63 l -58.84,-55.55"
         style="fill:#ba6258;fill-opacity:1;fill-rule:nonzero;stroke:none"
         id="path152" /><path
         d="m 3067.1,2657.51 c 0,0 40.5,-54.75 52.34,-69 11.85,-14.24 56.57,-27.21 66.51,-36.49 9.94,-9.28 35.25,-39.07 48.07,-34.75 12.83,4.31 20.02,26.3 9.86,38.96 -10.17,12.67 -53.86,27.96 -56.87,42.4 -3.01,14.45 -7.91,39.76 -8.37,44.14 -0.47,4.38 -95.06,32.39 -95.06,32.39 l -16.48,-17.65"
         style="fill:#ba6258;fill-opacity:1;fill-rule:nonzero;stroke:none"
         id="path154" /><path
         d="m 3116.37,2585.07 49.81,26.97 66.13,-10.74 95.8,50.72 c 0,0 -29.98,50.92 -38.7,56.31 -9.72,6.01 -156.15,15.69 -156.25,13.63 l -39.78,20.63 -46.06,-119.59 52.06,-15.39 16.99,-22.54"
         style="fill:#33535f;fill-opacity:1;fill-rule:nonzero;stroke:none"
         id="path156" /><path
         d="m 3217.04,2632.19 c 15.84,-11.22 19.59,-33.15 8.38,-49 -11.22,-15.84 -33.16,-19.59 -49,-8.37 -15.84,11.21 -19.59,33.15 -8.38,48.99 11.22,15.84 33.16,19.59 49,8.38"
         style="fill:#17282f;fill-opacity:1;fill-rule:nonzero;stroke:none"
         id="path158" /><path
         d="m 3280.83,2646.96 c 1.01,0.87 10.95,-11.57 14.29,-30.41 3.5,-18.82 -1.44,-33.96 -2.68,-33.5 -1.54,0.28 0.87,14.96 -2.45,32.57 -3.08,17.63 -10.49,30.53 -9.16,31.34"
         style="fill:#6f3530;fill-opacity:1;fill-rule:nonzero;stroke:none"
         id="path160" /><path
         d="m 3252.99,2560.82 c 0.38,-1.08 -17.37,-9.49 -41.28,-14.66 -5.87,-1.16 -12.01,-2.32 -17.85,-0.87 -5.99,1.23 -10.2,6.58 -10.64,11.02 -0.72,4.47 0.66,8.04 2.12,9.94 1.49,1.94 2.79,2.43 2.98,2.19 0.67,-0.41 -3.41,-4.37 -1.51,-11.33 0.91,-3.33 3.65,-6.34 8.13,-7.14 4.44,-0.91 9.89,0.1 15.74,1.3 23.15,4.99 41.8,11.19 42.31,9.55"
         style="fill:#6f3530;fill-opacity:1;fill-rule:nonzero;stroke:none"
         id="path162" /><path
         d="m 3133.1,2722.46 c 1.38,-0.44 -5.7,-26.3 -15.16,-57.94 -9.6,-31.61 -17.25,-57.21 -18.56,-56.91 -1.49,0.34 3.96,26.73 13.57,58.41 9.48,31.7 18.79,56.88 20.15,56.44"
         style="fill:#17282f;fill-opacity:1;fill-rule:nonzero;stroke:none"
         id="path164" /><path
         d="m 2886.9,1142.29 c 0,0 -66.64,-20.65 -124.35,-16.68 -57.72,3.98 -143.12,22.93 -174.53,29.53 -31.42,6.61 -122.33,-5.74 -129.25,26.06 -6.92,31.8 38.62,150.24 38.62,150.24 0,0 26.14,-34.62 57.81,-32.9 31.67,1.73 92.99,19.21 92.99,19.21 0,0 26.03,41.84 44.23,43.73 18.19,1.9 12.93,-49.9 12.93,-49.9 0,0 45.41,-61.44 76.14,-74.39 30.72,-12.95 32.01,-22.29 67.61,-22.65 35.59,-0.37 52.85,-13.15 52.85,-13.15 0,0 16.77,-28.87 8.59,-39.48 -8.18,-10.61 -23.64,-19.62 -23.64,-19.62"
         style="fill:#17282f;fill-opacity:1;fill-rule:nonzero;stroke:none"
         id="path166" /><path
         d="m 2910.96,1162.52 c -7.22,-11.88 -23.96,-20.7 -23.96,-20.7 0,0 -66.63,-20.66 -124.35,-16.69 -57.72,3.98 -143.12,22.93 -174.53,29.54 -31.41,6.6 -122.33,-5.75 -129.25,26.05 -1.98,8.7 -1.63,17.65 1.01,26.84 0,0 92.65,-23.49 137.21,-22.03 44.56,1.45 139.99,-28.37 190.32,-27.21 50.34,1.17 106.83,14.28 106.83,14.28 l 16.39,9.17 c 2.09,-7.3 4.67,-12.34 0.33,-19.25"
         style="fill:#33535f;fill-opacity:1;fill-rule:nonzero;stroke:none"
         id="path168" /><path
         d="m 2770.08,1245.75 c -0.88,0.03 -1.23,-8.1 -5.9,-16.6 -4.51,-8.57 -11.11,-13.35 -10.59,-14.06 0.27,-0.72 8.23,3.32 13.19,12.66 5.06,9.29 4.04,18.16 3.3,18"
         style="fill:#ffffff;fill-opacity:1;fill-rule:nonzero;stroke:none"
         id="path170" /><path
         d="m 2740.66,1271.05 c -0.89,0.13 -1.98,-9.61 -8.46,-19.29 -6.32,-9.8 -14.82,-14.67 -14.35,-15.43 0.18,-0.73 9.98,3.28 16.82,13.81 6.94,10.44 6.73,21.04 5.99,20.91"
         style="fill:#ffffff;fill-opacity:1;fill-rule:nonzero;stroke:none"
         id="path172" /><path
         d="m 2719.64,1295.31 c -0.77,0.4 -4.86,-6.36 -11.32,-13.48 -6.41,-7.18 -12.71,-11.96 -12.23,-12.68 0.38,-0.66 7.7,3.19 14.42,10.7 6.76,7.47 9.83,15.15 9.13,15.46"
         style="fill:#ffffff;fill-opacity:1;fill-rule:nonzero;stroke:none"
         id="path174" /><path
         d="m 2546.25,1225.85 c -0.04,-0.39 4.51,-1.29 11.95,-2.19 7.43,-0.9 17.75,-1.74 29.17,-2.07 11.43,-0.31 21.78,-0.04 29.25,0.44 7.48,0.48 12.07,1.12 12.05,1.52 -0.05,0.85 -18.49,0.33 -41.21,0.99 -22.72,0.61 -41.11,2.16 -41.21,1.31"
         style="fill:#ffffff;fill-opacity:1;fill-rule:nonzero;stroke:none"
         id="path176" /><path
         d="m 2681.43,1356.64 c 0.16,-0.43 -4.14,-2.98 -9.76,-9.98 -5.73,-6.8 -13.29,-17.22 -21.63,-30.13 l -0.47,-0.72 -0.87,-0.22 c -15.76,-3.97 -34.58,-8.4 -54.87,-12.63 -14.7,-2.89 -28.32,-5.95 -41.75,-6.97 -14.08,-0.1 -24.81,6.82 -32.72,12.49 -7.95,5.98 -13.45,11.81 -17.05,15.96 -3.58,4.18 -5.19,6.78 -4.92,7 0.63,0.61 8.34,-8.95 24.1,-19.95 7.85,-5.14 18.32,-11.12 30.43,-10.71 12.25,1.19 26.4,4.41 40.86,7.28 19.93,4.3 38.56,8.32 54.89,11.84 l -1.34,-0.94 c 8.86,12.86 16.98,22.97 23.43,29.44 6.31,6.66 11.54,8.74 11.67,8.24"
         style="fill:#33535f;fill-opacity:1;fill-rule:nonzero;stroke:none"
         id="path178" /><path
         d="m 2555.97,1966.58 -32.32,-125.51 c -7.9,-30.69 -12.3,-62.17 -13.13,-93.84 l 1.21,-232.09 -12.49,-202.61 91.33,-48.05 79.58,48.83 c 0,0 139.91,628.85 155.52,689.67 15.6,60.83 -5.38,138.88 -5.38,138.88 l -264.32,-175.28"
         style="fill:#ba6258;fill-opacity:1;fill-rule:nonzero;stroke:none"
         id="path180" /><path
         d="m 2515.47,1801.36 271,16.99 45.28,177.59 -275.78,-29.36 c 0,0 -38.58,-151.45 -40.5,-165.22"
         style="fill:#17282f;fill-opacity:1;fill-rule:nonzero;stroke:none"
         id="path182" /><path
         d="m 2208.66,2333.45 275.62,-347.36 5.97,-56.32 255.66,27.12 -7.24,216.01 -530.01,160.55"
         style="fill:#33535f;fill-opacity:1;fill-rule:nonzero;stroke:none"
         id="path184" /><path
         d="m 2936.25,3454.12 c 10.46,36.65 21.2,73.45 37.82,107.76 16.61,34.31 39.53,66.31 70.5,88.54 4.69,3.37 39.22,23.94 43.67,20.25 3.19,-2.63 -24.51,-24.85 -24.78,-28.97 -2.56,-39.34 -20.96,-76.33 -45.53,-107.16 -24.56,-30.83 -51.07,-55.59 -81.68,-80.42"
         style="fill:#17282f;fill-opacity:1;fill-rule:nonzero;stroke:none"
         id="path186" /><path
         d="m 3282.69,3409.48 c 47.72,75.2 29.65,174.44 -41.48,228.05 l -7.06,5.33 c -79.58,53 -169.04,15.02 -219.82,-65.98 l -172.4,-265.2 3.62,-176.96 105.89,-38.28 c 15.26,22.18 71.63,102.65 71.8,102.54 0,0 81.86,-43.84 137.98,28.73 27.11,35.06 77.07,111.8 121.47,181.77"
         style="fill:#ba6258;fill-opacity:1;fill-rule:nonzero;stroke:none"
         id="path188" /><path
         d="m 3023.24,3198.98 c 0,0 -48.22,32.09 -74.13,100.09 0,0 -18.57,-72.37 59.5,-120.87 l 14.63,20.78"
         style="fill:#6f3530;fill-opacity:1;fill-rule:nonzero;stroke:none"
         id="path190" /><path
         d="m 3208.25,3361.23 c -3.97,-5.68 -12.05,-6.99 -18.05,-2.96 -5.98,4.03 -7.64,11.89 -3.67,17.57 3.97,5.67 12.05,6.99 18.04,2.96 6,-4.03 7.65,-11.9 3.68,-17.57"
         style="fill:#17282f;fill-opacity:1;fill-rule:nonzero;stroke:none"
         id="path192" /><path
         d="m 3242.72,3388.87 c -2.32,-0.39 -5.82,11.45 -17.11,19.91 -11.14,8.61 -23.77,9.04 -23.95,11.35 -0.14,1.05 3.04,2.52 8.61,2.43 5.5,-0.06 13.46,-2.08 20.45,-7.39 6.98,-5.33 10.93,-12.35 12.33,-17.55 1.46,-5.27 0.78,-8.62 -0.33,-8.75"
         style="fill:#17282f;fill-opacity:1;fill-rule:nonzero;stroke:none"
         id="path194" /><path
         d="m 3105.42,3432.28 c -3.97,-5.67 -12.04,-6.99 -18.04,-2.95 -5.99,4.02 -7.65,11.88 -3.68,17.56 3.97,5.66 12.05,6.99 18.04,2.96 6,-4.03 7.65,-11.9 3.68,-17.57"
         style="fill:#17282f;fill-opacity:1;fill-rule:nonzero;stroke:none"
         id="path196" /><path
         d="m 3131.5,3465.72 c -2.33,-0.38 -5.85,11.46 -17.12,19.92 -11.14,8.6 -23.77,9.04 -23.95,11.34 -0.14,1.06 3.02,2.54 8.61,2.43 5.5,-0.05 13.45,-2.07 20.45,-7.39 6.98,-5.32 10.93,-12.35 12.33,-17.55 1.45,-5.26 0.77,-8.61 -0.32,-8.75"
         style="fill:#17282f;fill-opacity:1;fill-rule:nonzero;stroke:none"
         id="path198" /><path
         d="m 3105.58,3352.5 c 0.43,0.68 8.34,-3.39 20.77,-10.48 3.1,-1.88 6.26,-3.36 8.22,-1.76 2.24,1.57 3.37,5.57 4.5,9.97 2.54,8.99 5.21,18.42 8,28.3 11.69,40.06 22.46,72.13 24.07,71.65 1.61,-0.49 -6.56,-33.36 -18.25,-73.42 -2.95,-9.83 -5.75,-19.2 -8.45,-28.16 -1.38,-4.09 -2.3,-9.2 -7.01,-12.41 -2.4,-1.56 -5.68,-1.53 -7.9,-0.64 -2.27,0.83 -3.91,2.02 -5.39,3 -11.88,7.99 -18.99,13.27 -18.56,13.95"
         style="fill:#17282f;fill-opacity:1;fill-rule:nonzero;stroke:none"
         id="path200" /><path
         d="m 3149.08,3491.2 c -3.59,-1.83 -11.13,8.32 -22.91,17.32 -11.57,9.26 -23.36,14.24 -22.3,18.04 0.55,1.78 4.56,2.86 10.57,2.08 5.98,-0.74 13.82,-3.62 20.83,-9.1 6.99,-5.48 11.57,-12.31 13.61,-17.83 2.08,-5.55 1.86,-9.6 0.2,-10.51"
         style="fill:#17282f;fill-opacity:1;fill-rule:nonzero;stroke:none"
         id="path202" /><path
         d="m 3274.88,3431.26 c -4.26,-0.86 -11.57,8.6 -22.62,16.87 -10.8,8.59 -21.85,13.3 -22.04,17.59 0,2 3.38,3.51 9.29,2.94 5.85,-0.52 14.1,-3.5 21.61,-9.29 7.51,-5.8 12.44,-12.99 14.38,-18.47 1.99,-5.54 1.34,-9.14 -0.62,-9.64"
         style="fill:#17282f;fill-opacity:1;fill-rule:nonzero;stroke:none"
         id="path204" /><path
         d="m 2979.43,3518.13 c -0.85,1.48 -39.12,52.82 -75.27,1.53 -36.15,-51.28 22.8,-77 23.93,-75.59 1.12,1.41 51.34,74.06 51.34,74.06"
         style="fill:#ba6258;fill-opacity:1;fill-rule:nonzero;stroke:none"
         id="path206" /><path
         d="m 2926.11,3474.54 c -0.11,0.32 -1.33,0.01 -3.33,0.38 -1.94,0.36 -4.81,1.68 -6.77,4.57 -4.02,5.81 -2.52,17.62 3.75,27.05 3.16,4.75 7.27,8.51 11.52,11.02 4.21,2.65 8.48,3.56 11.55,2.12 3.16,-1.28 3.94,-4.27 3.55,-6.16 -0.33,-1.92 -1.37,-2.72 -1.16,-3 0.05,-0.22 1.7,0.09 2.78,2.5 0.51,1.17 0.76,2.8 0.25,4.64 -0.52,1.86 -1.97,3.65 -4.02,4.78 -4.15,2.52 -10.27,1.39 -14.94,-1.37 -4.89,-2.62 -9.63,-6.77 -13.17,-12.11 -6.96,-10.57 -8.49,-23.97 -2.58,-31.34 2.94,-3.48 6.72,-4.51 9.13,-4.4 2.48,0.15 3.56,1.1 3.44,1.32"
         style="fill:#6f3530;fill-opacity:1;fill-rule:nonzero;stroke:none"
         id="path208" /><path
         d="m 3308.44,3518.06 c 11.54,-1.17 5.18,43.22 -8.9,66.73 -21.29,35.53 -62.66,76.96 -96.87,88.64 -41.19,14.05 -81.65,16.71 -120.62,-2.67 -38.96,-19.38 -70.72,-51.4 -94.47,-87.88 -7.25,-11.13 -13.99,-23.29 -14.54,-36.55 -0.69,-16.4 8.17,-33.15 -3.32,-48.47 -4.2,-5.6 -6.58,-12.54 -5.54,-19.46 2.5,-16.58 20.58,-15.13 32.43,-9.34 25.33,12.36 43.28,35.62 60.3,58.08 12.09,15.98 24.39,32.32 30.69,51.34 3.42,10.35 4.99,21.28 8.98,31.43 4,10.14 11.11,19.86 21.48,23.23 1.69,0.55 4.16,1 7.13,1.34 23.47,2.7 46.58,-7.62 60.42,-26.77 21.95,-30.38 60.95,-80.07 80.74,-79.17 28.46,1.29 39.32,7.46 39.32,7.46 l 2.77,-17.94"
         style="fill:#17282f;fill-opacity:1;fill-rule:nonzero;stroke:none"
         id="path210" /><path
         d="m 3064.23,3370.47 c 1.85,-1.11 -6.26,-13.02 -1.86,-28.42 4.36,-15.42 17.95,-22.76 16.91,-24.49 -0.35,-0.86 -4.4,-0.38 -9.86,3.14 -5.37,3.41 -11.88,10.34 -14.57,19.76 -2.67,9.43 -0.61,18.16 2.32,23.32 2.95,5.28 6.29,7.32 7.06,6.69"
         style="fill:#17282f;fill-opacity:1;fill-rule:nonzero;stroke:none"
         id="path212" /><path
         d="m 2972.58,3690.03 c -2.17,1.53 -2.31,4.66 -0.29,6.37 22,18.65 135.25,103.34 273.64,1.98 135.57,-99.31 158.55,-268.55 162.14,-308.35 0.31,-3.42 -3.55,-5.6 -6.36,-3.62 l -429.13,303.62"
         style="fill:#f2575d;fill-opacity:1;fill-rule:nonzero;stroke:none"
         id="path214" /><path
         d="m 2974.66,3565.69 c -18.57,47.95 -21.82,90.77 -6.24,127.28 l 422.1,-298.64 c 0,0 -74.89,1.3 -107.09,15.38 l 12.91,24 c 0,0 -195.54,145.83 -267.01,151.56 l -31.59,3.9 -23.08,-23.48"
         style="fill:#33535f;fill-opacity:1;fill-rule:nonzero;stroke:none"
         id="path216" /><path
         d="m 3044.7,3609.46 c 0,0 -75.97,-98.16 -113.48,-186.02 -38.95,-91.23 41.71,-165.88 41.71,-165.88 0,0 -51.62,101.48 1.62,185.2 48.22,75.83 99.21,146.85 99.21,146.85 l -29.06,19.85"
         style="fill:#33535f;fill-opacity:1;fill-rule:nonzero;stroke:none"
         id="path218" /><path
         d="m 3291.61,3512.44 c -6.7,0 -13.31,4.15 -19.01,8.19 -49.37,34.96 -96.27,73.43 -140.22,115.02 0,0 -6.71,4.19 -4.6,10.1 0.67,1.86 2.41,2.5 4.49,2.5 4.51,0 10.59,-3.02 10.59,-3.02 48.12,-25.26 94.91,-53.03 140.15,-83.15 8.9,-5.93 18.2,-12.48 22.42,-22.31 4.22,-9.84 0.71,-23.75 -9.57,-26.73 -1.42,-0.41 -2.84,-0.6 -4.25,-0.6"
         style="fill:#cc4341;fill-opacity:1;fill-rule:nonzero;stroke:none"
         id="path220" /><path
         d="m 3064.17,3742.1 v 0 c 0,0 0,0.01 0.01,0.01 l -0.01,-0.01"
         style="fill:#a7a9a8;fill-opacity:1;fill-rule:nonzero;stroke:none"
         id="path222" /><path
         d="m 3178.93,3659.04 c -6.7,0 -13.31,4.15 -19,8.18 -33.08,23.43 -65.05,48.42 -95.76,74.88 l 0.01,0.01 c 14.47,3.29 29.5,5.1 45.19,5.16 20.61,-12.39 40.94,-25.26 60.96,-38.59 8.91,-5.93 18.2,-12.48 22.42,-22.32 4.22,-9.84 0.72,-23.74 -9.56,-26.73 -1.42,-0.41 -2.84,-0.59 -4.26,-0.59"
         style="fill:#cc4341;fill-opacity:1;fill-rule:nonzero;stroke:none"
         id="path224" /><path
         d="m 3106.29,3651.29 c -2.85,0 -6.61,1.16 -8.85,2.67 -11.72,7.95 -31.03,20.21 -27.69,30.06 1.55,5.36 7.37,8.64 12.97,8.64 0.19,0 0.39,0 0.58,-0.01 5.77,-0.24 11.07,-3.35 15.44,-7.11 5.41,-4.67 9.83,-10.48 12.87,-16.95 1.44,-3.05 2.58,-6.38 2.22,-9.72 -0.36,-3.35 -2.59,-6.69 -5.88,-7.41 -0.5,-0.12 -1.06,-0.17 -1.66,-0.17"
         style="fill:#cc4341;fill-opacity:1;fill-rule:nonzero;stroke:none"
         id="path226" /><path
         d="m 2975.35,3570.41 -0.19,-63.23 15.26,1.62 7.99,83.25 -23.06,-21.64"
         style="fill:#33535f;fill-opacity:1;fill-rule:nonzero;stroke:none"
         id="path228" /><path
         d="m 3921.99,2232.94 -7.55,99.71 c 10.79,0.82 21.77,1.35 32.64,1.57 l 2.01,-99.98 c -9.02,-0.18 -18.14,-0.62 -27.1,-1.3 z m 81.39,-0.63 c -9.05,0.82 -18.18,1.39 -27.14,1.71 l 3.56,99.94 c 10.78,-0.38 21.74,-1.08 32.6,-2.06 z m -135.19,-6.46 -18.51,98.27 c 10.63,2.01 21.48,3.74 32.25,5.16 l 13.08,-99.14 c -8.95,-1.18 -17.97,-2.62 -26.82,-4.29 z m 188.83,-1.46 c -8.8,1.8 -17.8,3.38 -26.74,4.7 l 14.61,98.93 c 10.77,-1.59 21.59,-3.5 32.19,-5.66 z m -241.57,-11.52 -29.12,95.66 c 10.31,3.14 20.89,6.05 31.44,8.66 l 23.92,-97.1 c -8.8,-2.17 -17.63,-4.6 -26.24,-7.22 z m 294.09,-2.27 c -8.56,2.76 -17.32,5.33 -26.03,7.61 l 25.37,96.73 c 10.51,-2.76 21.07,-5.85 31.39,-9.18 z m -343.77,-17.21 -41.11,91.16 c 9.53,4.3 19.43,8.51 29.42,12.52 l 37.27,-92.79 c -8.71,-3.5 -17.24,-7.13 -25.58,-10.89 z m 394.47,-2.25 c -8.18,3.66 -16.61,7.18 -25.06,10.42 l 35.86,93.35 c 10.15,-3.9 20.31,-8.12 30.15,-12.54 z m -443.84,-22.68 -49.08,87.14 c 9.2,5.17 18.74,10.27 28.37,15.13 l 45.07,-89.27 c -8.29,-4.19 -16.49,-8.55 -24.36,-13 z m 492.15,-2.23 c -7.8,4.57 -15.8,8.98 -23.82,13.11 l 45.86,88.87 c 9.62,-4.96 19.23,-10.26 28.56,-15.74 z m -538.64,-26.96 -57.32,81.93 c 8.78,6.15 17.86,12.17 27,17.9 l 53.15,-84.71 c -7.73,-4.84 -15.4,-9.93 -22.83,-15.12 z m 583.82,-3.03 c -7.17,5.34 -14.64,10.59 -22.2,15.61 l 55.3,83.33 c 9.08,-6.03 18.05,-12.34 26.69,-18.78 z m -626.75,-30.5 -65.64,75.45 c 8.14,7.08 16.6,14.05 25.14,20.7 l 61.5,-78.84 c -7.14,-5.57 -14.2,-11.39 -21,-17.31 z m 668.4,-4.29 c -6.56,6.14 -13.41,12.17 -20.34,17.96 l 64.1,76.76 c 8.33,-6.96 16.56,-14.23 24.47,-21.59 z m -707.21,-33.48 -73.66,67.63 c 7.27,7.92 14.93,15.81 22.77,23.44 l 69.78,-71.62 c -6.51,-6.35 -12.86,-12.89 -18.89,-19.45 z m 744.71,-5.59 c -5.8,6.77 -11.93,13.52 -18.2,20.06 l 72.17,69.22 c 7.55,-7.86 14.92,-16 21.93,-24.16 z m -778.8,-36.19 -81.05,58.59 c 6.38,8.81 13.11,17.57 20.01,26.02 l 77.46,-63.24 c -5.67,-6.95 -11.19,-14.13 -16.42,-21.37 z m 811.74,-6.78 c -5.03,7.39 -10.36,14.76 -15.85,21.92 l 79.36,60.84 c 6.62,-8.64 13.05,-17.53 19.13,-26.45 z m -840.63,-38.63 -87.41,48.57 c 5.31,9.55 10.96,19.06 16.81,28.24 l 84.37,-53.68 c -4.79,-7.53 -9.42,-15.31 -13.77,-23.13 z m 868.7,-7.84 c -4.25,8.01 -8.75,15.95 -13.39,23.63 l 85.62,51.66 c 5.57,-9.23 10.99,-18.79 16.09,-28.4 z m -891.99,-40.69 -92.55,37.88 c 4.12,10.06 8.6,20.16 13.32,30 l 90.17,-43.23 c -3.87,-8.08 -7.56,-16.37 -10.94,-24.65 z m 914.73,-8.59 c -3.37,8.48 -6.97,16.88 -10.71,24.97 l 90.78,41.93 c 4.49,-9.72 8.83,-19.82 12.86,-29.99 z m -932.14,-42.38 -96.35,26.79 c 2.94,10.56 6.2,21.09 9.69,31.31 l 94.63,-32.34 c -2.87,-8.39 -5.55,-17.06 -7.97,-25.76 z m 949.84,-10.67 c -2.38,8.73 -5.02,17.49 -7.86,26.02 l -0.46,1.36 94.7,32.13 0.64,-1.91 c 3.43,-10.29 6.6,-20.81 9.46,-31.29 z m -961.29,-42.12 -98.78,15.61 c 1.7,10.74 3.73,21.57 6.02,32.17 l 97.74,-21.17 c -1.9,-8.77 -3.58,-17.72 -4.98,-26.61 z m 972.67,-10.95 c -1.38,8.82 -3.05,17.8 -4.96,26.7 l 97.78,20.95 c 2.29,-10.67 4.29,-21.47 5.97,-32.09 z m -978.14,-43 -99.89,4.61 c 0.51,10.88 1.31,21.83 2.39,32.55 l 99.5,-10.08 c -0.91,-8.92 -1.58,-18.02 -2,-27.08 z m 983.62,-10.96 c -0.4,8.91 -1.06,18.01 -1.98,27.05 l 99.49,10.06 c 1.11,-10.88 1.91,-21.84 2.4,-32.6 z m -1082.97,-49.6 c -0.67,10.82 -1.06,21.77 -1.15,32.55 l 100,0.84 c 0.08,-9.01 0.4,-18.16 0.95,-27.22 z m 1182.21,-11.26 -99.78,6.58 c 0.59,9.02 0.93,18.13 1.02,27.1 l 100,-0.97 c -0.11,-10.83 -0.53,-21.83 -1.24,-32.71 z m -1174.79,-53.34 c -1.81,10.71 -3.34,21.54 -4.56,32.21 l 99.34,11.41 c 1.03,-8.94 2.32,-18.03 3.83,-27.02 z m 1166.91,-11.48 -98.46,17.46 c 1.6,8.99 2.95,18.05 4.04,26.91 l 99.25,-12.11 c -1.29,-10.65 -2.92,-21.5 -4.83,-32.26 z m -1152.83,-51.93 c -2.86,10.36 -5.51,20.96 -7.85,31.51 l 97.61,21.7 c 1.98,-8.88 4.2,-17.8 6.62,-26.53 z m 1137.85,-11.61 -95.96,28.13 c 2.57,8.79 4.92,17.64 6.98,26.35 l 97.32,-22.99 c -2.46,-10.42 -5.26,-21.01 -8.34,-31.49 z m -1117.32,-49.98 c -3.94,10.07 -7.67,20.34 -11.06,30.55 l 94.88,31.58 c 2.86,-8.58 5.99,-17.22 9.3,-25.7 z m 1095.44,-11.59 -92.25,38.59 c 3.48,8.33 6.77,16.85 9.79,25.35 l 94.22,-33.5 c -3.62,-10.2 -7.59,-20.44 -11.76,-30.44 z m -1068.68,-47.6 c -4.96,9.61 -9.72,19.47 -14.15,29.27 l 91.13,41.17 c 3.72,-8.24 7.72,-16.51 11.89,-24.58 z m 1040.25,-11.09 -87.5,48.4 c 4.38,7.93 8.59,16.04 12.52,24.14 l 89.98,-43.61 c -4.71,-9.71 -9.75,-19.45 -15,-28.93 z m -1007.43,-45.07 c -5.9,8.97 -11.67,18.27 -17.15,27.65 l 86.33,50.47 c 4.6,-7.87 9.43,-15.67 14.37,-23.18 z m 972.71,-10.23 -81.64,57.75 c 5.21,7.35 10.26,14.95 15.05,22.57 l 84.71,-53.15 c -5.76,-9.17 -11.86,-18.32 -18.12,-27.17 z m -934.05,-42.21 c -6.89,8.35 -13.64,17.01 -20.06,25.72 l 80.52,59.32 c 5.34,-7.27 10.97,-14.48 16.71,-21.45 z m 893.53,-8.89 -74.84,66.33 c 6,6.76 11.86,13.76 17.45,20.8 l 78.34,-62.15 c -6.71,-8.45 -13.75,-16.85 -20.95,-24.98 z m -849.25,-39.18 c -7.76,7.54 -15.45,15.43 -22.83,23.45 l 73.57,67.74 c 6.12,-6.65 12.48,-13.19 18.91,-19.43 z m 803.32,-7.18 -67.06,74.2 c 6.69,6.03 13.29,12.33 19.6,18.72 l 71.06,-70.38 c -7.62,-7.68 -15.56,-15.27 -23.6,-22.54 z m -753.74,-35.71 c -8.55,6.58 -17.1,13.56 -25.41,20.75 l 65.42,75.63 c 6.88,-5.95 13.93,-11.71 20.96,-17.12 z m 703.02,-5.25 -58.49,81.09 c 7.35,5.32 14.61,10.85 21.56,16.47 l 62.83,-77.8 c -8.35,-6.74 -17.06,-13.39 -25.9,-19.76 z m -648.67,-31.72 c -9.4,5.62 -18.75,11.58 -27.76,17.72 l 56.29,82.65 c 7.37,-5.02 15.03,-9.9 22.74,-14.51 z m 593.6,-3.46 -49.12,87.11 c 7.83,4.41 15.66,9.11 23.28,13.99 l 53.81,-84.3 c -9.16,-5.84 -18.57,-11.49 -27.97,-16.8 z m -535.34,-26.81 c -10.04,4.48 -20,9.28 -29.6,14.27 l 46.14,88.73 c 7.85,-4.08 16,-8.01 24.24,-11.69 z m 476.71,-2.05 -39.1,92.03 c 8.25,3.5 16.53,7.3 24.63,11.29 l 44.2,-89.69 c -9.77,-4.82 -19.77,-9.41 -29.73,-13.63 z m -415.21,-21.11 c -10.42,3.23 -20.88,6.82 -31.08,10.66 l 35.22,93.59 c 8.35,-3.14 16.91,-6.07 25.47,-8.72 z m 352.34,-1.07 -26.02,96.56 c 4.06,1.09 8.13,2.22 12.22,3.39 4.11,1.37 8.19,2.79 12.26,4.27 l 34.12,-94.01 c -5.27,-1.91 -10.6,-3.76 -15.95,-5.52 l -1.82,-0.57 c -4.96,-1.43 -9.9,-2.79 -14.81,-4.12 z m -62.6,-13.98 -17.54,98.46 c 8.99,1.6 18.05,3.42 27.19,5.46 l 21.84,-97.58 c -10.47,-2.34 -21.06,-4.47 -31.49,-6.34 z m -226.08,-0.66 c -10.73,2 -21.51,4.34 -32.07,6.94 l 24,97.07 c 8.66,-2.14 17.53,-4.05 26.35,-5.69 z m 162.11,-7.71 -8.22,99.67 c 8.96,0.73 18.16,1.72 27.32,2.93 l 13.07,-99.14 c -10.78,-1.41 -21.6,-2.58 -32.17,-3.46 z m -97.36,-0.61 c -10.83,0.78 -21.73,1.87 -32.43,3.24 l 12.68,99.2 c 8.9,-1.14 18,-2.05 27.04,-2.71 z m 45.04,-1.6 c -4.03,0.01 -8.32,0.03 -12.51,0.11 l 1.92,99.98 c 3.49,-0.06 7.01,-0.07 10.54,-0.09 5.59,0 11.15,0.1 16.73,0.28 l 3.34,-99.94 c -6.71,-0.23 -13.38,-0.34 -20.02,-0.34"
         style="fill:#17282f;fill-opacity:1;fill-rule:nonzero;stroke:none"
         id="path230" /><path
         d="m 2322.12,1202.71 c -136.57,-45.18 -247.28,-81.69 -247.32,-81.55 -0.05,0.13 110.59,36.87 247.15,82.05 136.48,45.16 247.21,81.68 247.26,81.54 0.04,-0.14 -110.62,-36.88 -247.09,-82.04"
         style="fill:#dadbd8;fill-opacity:1;fill-rule:nonzero;stroke:none"
         id="path232" /><path
         d="m 2336.35,1123.67 c -143.76,-5.09 -260.27,-9.11 -260.27,-8.97 -0.01,0.13 116.49,4.38 260.25,9.48 143.66,5.1 260.19,9.12 260.2,8.98 0,-0.14 -116.52,-4.39 -260.18,-9.49"
         style="fill:#dadbd8;fill-opacity:1;fill-rule:nonzero;stroke:none"
         id="path234" /><path
         d="m 2327.73,1043.89 c -139.38,35.61 -252.3,64.58 -252.26,64.71 0.03,0.13 113.01,-28.62 252.38,-64.23 139.27,-35.59 252.22,-64.569 252.18,-64.698 -0.03,-0.133 -113.03,28.628 -252.3,64.218"
         style="fill:#dadbd8;fill-opacity:1;fill-rule:nonzero;stroke:none"
         id="path236" /><path
         d="m 2297.1,969.75 c -123.9,73.09 -224.25,132.42 -224.18,132.53 0.07,0.12 100.53,-59.02 224.42,-132.108 123.81,-73.043 224.18,-132.383 224.12,-132.5 -0.07,-0.121 -100.55,59.039 -224.36,132.078"
         style="fill:#dadbd8;fill-opacity:1;fill-rule:nonzero;stroke:none"
         id="path238" /><path
         d="m 2246.99,907.121 c -98.46,104.869 -178.18,189.929 -178.08,190.019 0.1,0.09 79.97,-84.82 178.44,-189.691 98.4,-104.789 178.13,-189.867 178.03,-189.957 -0.1,-0.094 -79.99,84.84 -178.39,189.629"
         style="fill:#dadbd8;fill-opacity:1;fill-rule:nonzero;stroke:none"
         id="path240" /><path
         d="m 2181.24,861.09 c -64.86,128.402 -117.32,232.51 -117.2,232.57 0.12,0.06 52.78,-103.941 117.64,-232.34 64.81,-128.308 117.28,-232.441 117.16,-232.5 -0.12,-0.058 -52.79,103.969 -117.6,232.27"
         style="fill:#dadbd8;fill-opacity:1;fill-rule:nonzero;stroke:none"
         id="path242" /><path
         d="m 2105.2,835.332 c -26.58,141.379 -48.01,255.958 -47.87,255.988 0.14,0.03 21.79,-114.519 48.37,-255.89 26.56,-141.278 48,-255.891 47.86,-255.918 -0.14,-0.02 -21.8,114.547 -48.36,255.82"
         style="fill:#dadbd8;fill-opacity:1;fill-rule:nonzero;stroke:none"
         id="path244" /><path
         d="m 2025,831.898 c 14.41,143.133 26.19,259.102 26.33,259.092 0.14,-0.01 -11.43,-116.021 -25.83,-259.138 -14.4,-143.032 -26.19,-259.032 -26.32,-259.02 -0.14,0.02 11.42,116.039 25.82,259.066"
         style="fill:#dadbd8;fill-opacity:1;fill-rule:nonzero;stroke:none"
         id="path246" /><path
         d="m 1947.12,851.18 c 53.95,133.351 97.77,241.38 97.89,241.33 0.13,-0.05 -43.49,-108.158 -97.44,-241.51 -53.91,-133.262 -97.74,-241.309 -97.87,-241.258 -0.12,0.047 43.51,108.18 97.42,241.438"
         style="fill:#dadbd8;fill-opacity:1;fill-rule:nonzero;stroke:none"
         id="path248" /><path
         d="m 1877.74,891.441 c 89.01,112.999 161.23,204.509 161.34,204.429 0.1,-0.08 -71.94,-91.73 -160.95,-204.729 -88.95,-112.93 -161.18,-204.461 -161.29,-204.379 -0.1,0.078 71.96,91.75 160.9,204.679"
         style="fill:#dadbd8;fill-opacity:1;fill-rule:nonzero;stroke:none"
         id="path250" /><path
         d="m 1822.42,949.512 c 117.22,83.378 212.28,150.858 212.36,150.748 0.08,-0.11 -94.85,-67.77 -212.07,-151.151 -117.15,-83.32 -212.22,-150.808 -212.3,-150.699 -0.08,0.11 94.87,67.781 212.01,151.102"
         style="fill:#dadbd8;fill-opacity:1;fill-rule:nonzero;stroke:none"
         id="path252" /><path
         d="m 1785.68,1020.87 c 135.9,47.16 246.07,85.28 246.12,85.15 0.04,-0.13 -110.05,-38.46 -245.95,-85.62 -135.81,-47.13 -246,-85.259 -246.04,-85.13 -0.05,0.14 110.07,38.472 245.87,85.6"
         style="fill:#dadbd8;fill-opacity:1;fill-rule:nonzero;stroke:none"
         id="path254" /><path
         d="m 1770.29,1099.68 c 143.67,7.25 260.1,13.01 260.11,12.87 0.01,-0.14 -116.42,-6.13 -260.08,-13.38 -143.57,-7.24 -260.03,-13.01 -260.03,-12.87 -0.01,0.14 116.43,6.13 260,13.38"
         style="fill:#dadbd8;fill-opacity:1;fill-rule:nonzero;stroke:none"
         id="path256" /><path
         d="m 1777.72,1179.58 c 139.89,-33.54 253.22,-60.83 253.19,-60.96 -0.03,-0.14 -113.42,26.94 -253.3,60.48 -139.79,33.52 -253.15,60.82 -253.12,60.95 0.03,0.13 113.45,-26.95 253.23,-60.47"
         style="fill:#dadbd8;fill-opacity:1;fill-rule:nonzero;stroke:none"
         id="path258" /><path
         d="m 1807.26,1254.17 c 124.96,-71.26 226.17,-129.1 226.1,-129.22 -0.06,-0.11 -101.39,57.54 -226.35,128.8 -124.87,71.2 -226.11,129.06 -226.04,129.17 0.07,0.12 101.41,-57.54 226.29,-128.75"
         style="fill:#dadbd8;fill-opacity:1;fill-rule:nonzero;stroke:none"
         id="path260" /><path
         d="m 1856.42,1317.53 c 100.02,-103.39 181,-187.25 180.9,-187.34 -0.1,-0.1 -81.23,83.61 -181.25,187 -99.95,103.32 -180.94,187.2 -180.84,187.29 0.1,0.1 81.25,-83.63 181.19,-186.95"
         style="fill:#dadbd8;fill-opacity:1;fill-rule:nonzero;stroke:none"
         id="path262" /><path
         d="m 1921.48,1364.53 c 66.76,-127.42 120.77,-230.73 120.65,-230.79 -0.12,-0.06 -54.32,103.15 -121.08,230.57 -66.71,127.33 -120.73,230.66 -120.61,230.73 0.12,0.06 54.33,-103.17 121.04,-230.51"
         style="fill:#dadbd8;fill-opacity:1;fill-rule:nonzero;stroke:none"
         id="path264" /><path
         d="m 1997.15,1391.42 c 28.67,-140.97 51.79,-255.23 51.65,-255.26 -0.14,-0.03 -23.49,114.19 -52.15,255.15 -28.65,140.87 -51.77,255.15 -51.63,255.18 0.14,0.03 23.49,-114.21 52.13,-255.07"
         style="fill:#dadbd8;fill-opacity:1;fill-rule:nonzero;stroke:none"
         id="path266" /><path
         d="m 2077.29,1396.04 c -12.28,-143.32 -22.34,-259.46 -22.47,-259.45 -0.14,0.01 9.7,116.17 21.98,259.49 12.26,143.23 22.33,259.4 22.47,259.38 0.13,-0.01 -9.71,-116.19 -21.98,-259.42"
         style="fill:#dadbd8;fill-opacity:1;fill-rule:nonzero;stroke:none"
         id="path268" /><path
         d="m 2155.45,1377.91 c -51.98,-134.13 -94.21,-242.78 -94.34,-242.74 -0.12,0.05 41.9,108.79 93.89,242.92 51.95,134.03 94.18,242.71 94.31,242.66 0.13,-0.05 -41.91,-108.8 -93.86,-242.84"
         style="fill:#dadbd8;fill-opacity:1;fill-rule:nonzero;stroke:none"
         id="path270" /><path
         d="m 2225.41,1338.68 c -87.33,-114.31 -158.19,-206.87 -158.3,-206.79 -0.11,0.08 70.58,92.78 157.92,207.08 87.27,114.23 158.15,206.82 158.25,206.73 0.11,-0.08 -70.59,-92.8 -157.87,-207.02"
         style="fill:#dadbd8;fill-opacity:1;fill-rule:nonzero;stroke:none"
         id="path272" /><path
         d="m 2281.59,1281.43 c -115.97,-85.11 -210.01,-154 -210.09,-153.89 -0.08,0.11 93.83,69.17 209.8,154.28 115.89,85.06 209.95,153.96 210.03,153.85 0.08,-0.11 -93.85,-69.19 -209.74,-154.24"
         style="fill:#dadbd8;fill-opacity:1;fill-rule:nonzero;stroke:none"
         id="path274" /><path
         d="m 2319.38,1210.62 c -135.2,-49.13 -244.81,-88.84 -244.85,-88.71 -0.05,0.13 109.48,40.05 244.68,89.18 135.1,49.1 244.73,88.82 244.78,88.69 0.04,-0.13 -109.51,-40.06 -244.61,-89.16"
         style="fill:#dadbd8;fill-opacity:1;fill-rule:nonzero;stroke:none"
         id="path276" /><path
         d="m 2017.66,1603.55 -7.52,99.73 c 10.83,0.81 21.8,1.34 32.6,1.56 l 2.06,-99.98 c -8.98,-0.18 -18.11,-0.62 -27.14,-1.31 z m 81.39,-0.61 c -9.06,0.82 -18.18,1.39 -27.11,1.71 l 3.52,99.94 c 10.76,-0.38 21.73,-1.08 32.62,-2.06 z m -135.16,-6.47 -18.52,98.26 c 10.63,2.02 21.48,3.74 32.24,5.17 l 13.09,-99.14 c -8.95,-1.18 -17.97,-2.63 -26.81,-4.29 z m 188.87,-1.45 c -8.88,1.81 -17.88,3.4 -26.76,4.7 l 14.57,98.93 c 10.69,-1.57 21.52,-3.48 32.19,-5.64 z m -241.64,-11.54 -29.11,95.67 c 10.46,3.18 21.05,6.09 31.47,8.65 l 23.85,-97.11 c -8.67,-2.13 -17.48,-4.55 -26.21,-7.21 z m 294.16,-2.26 c -8.66,2.78 -17.45,5.35 -26.12,7.63 l 25.44,96.71 c 10.4,-2.73 20.92,-5.81 31.29,-9.15 z m -343.83,-17.23 -41.09,91.17 c 9.59,4.33 19.4,8.51 29.42,12.52 l 37.26,-92.79 c -8.71,-3.51 -17.24,-7.14 -25.59,-10.9 z m 394.52,-2.23 c -8.24,3.69 -16.69,7.2 -25.09,10.43 l 35.84,93.36 c 10.09,-3.88 20.23,-8.09 30.13,-12.52 z m -443.87,-22.65 -49.11,87.11 c 9.24,5.2 18.8,10.31 28.44,15.16 l 44.99,-89.31 c -8.25,-4.15 -16.43,-8.52 -24.32,-12.96 z m 492.13,-2.26 c -7.85,4.61 -15.86,9.03 -23.82,13.13 l 45.86,88.87 c 9.55,-4.93 19.15,-10.22 28.55,-15.73 z m -538.62,-26.98 -57.32,81.95 c 8.77,6.13 17.84,12.14 26.97,17.89 l 53.19,-84.69 c -7.74,-4.86 -15.43,-9.95 -22.84,-15.15 z m 583.86,-3.03 c -7.25,5.39 -14.73,10.67 -22.25,15.65 l 55.32,83.31 c 8.99,-5.97 17.96,-12.28 26.64,-18.74 z m -626.78,-30.48 -65.67,75.42 c 8.15,7.1 16.61,14.07 25.16,20.73 l 61.48,-78.87 c -7.13,-5.56 -14.19,-11.38 -20.97,-17.28 z m 668.41,-4.28 c -6.61,6.15 -13.46,12.2 -20.36,17.97 l 64.09,76.75 c 8.29,-6.92 16.51,-14.17 24.44,-21.56 z m -707.24,-33.51 -73.66,67.64 c 7.27,7.92 14.93,15.81 22.77,23.44 l 69.78,-71.62 c -6.51,-6.35 -12.87,-12.9 -18.89,-19.46 z m 744.75,-5.58 c -5.89,6.85 -12.02,13.61 -18.23,20.07 l 72.15,69.24 c 7.47,-7.77 14.84,-15.9 21.92,-24.14 z m -778.84,-36.19 -81.04,58.6 c 6.37,8.81 13.1,17.57 20,26.01 l 77.46,-63.24 c -5.67,-6.94 -11.19,-14.13 -16.42,-21.37 z m 811.79,-6.8 c -5.11,7.49 -10.46,14.88 -15.88,21.96 l 79.35,60.84 c 6.54,-8.51 12.96,-17.4 19.11,-26.4 z m -840.68,-38.61 -87.4,48.58 c 5.31,9.55 10.96,19.05 16.8,28.23 l 84.37,-53.67 c -4.79,-7.53 -9.42,-15.31 -13.77,-23.14 z m 868.67,-7.77 c -4.19,7.9 -8.68,15.84 -13.36,23.59 l 85.62,51.67 c 5.63,-9.34 11.05,-18.91 16.11,-28.44 z m -891.96,-40.75 -92.54,37.87 c 4.11,10.07 8.59,20.17 13.31,30 l 90.18,-43.22 c -3.88,-8.09 -7.56,-16.38 -10.95,-24.65 z m 914.74,-8.57 c -3.34,8.41 -6.94,16.82 -10.72,25 l 90.8,41.89 c 4.53,-9.8 8.85,-19.88 12.86,-29.97 z m -932.15,-42.41 -96.35,26.8 c 2.94,10.56 6.2,21.08 9.69,31.31 l 94.63,-32.35 c -2.87,-8.38 -5.55,-17.06 -7.97,-25.76 z m 949.86,-10.65 c -2.38,8.71 -5.03,17.47 -7.87,26.04 l -0.53,1.6 94.87,31.63 0.67,-2.05 c 3.31,-9.96 6.48,-20.46 9.33,-30.91 z m -961.3,-42.13 -98.78,15.6 c 1.7,10.75 3.73,21.58 6.02,32.17 l 97.74,-21.17 c -1.9,-8.77 -3.58,-17.71 -4.98,-26.6 z m 972.69,-10.95 c -1.4,8.9 -3.07,17.87 -4.97,26.67 l 97.77,21.02 c 2.28,-10.61 4.29,-21.42 5.98,-32.12 z m -978.16,-43.01 -99.89,4.61 c 0.5,10.88 1.31,21.84 2.39,32.55 l 99.5,-10.08 c -0.91,-8.91 -1.58,-18.01 -2,-27.08 z m 983.62,-10.94 c -0.4,8.98 -1.07,18.07 -1.98,27.03 l 99.49,10.1 c 1.09,-10.8 1.9,-21.77 2.39,-32.62 z M 1463.91,1084.6 c -0.67,10.82 -1.05,21.77 -1.14,32.55 l 100,0.84 c 0.07,-9.02 0.39,-18.17 0.95,-27.22 z m 1182.22,-11.22 -99.78,6.52 c 0.59,9.03 0.94,18.16 1.03,27.15 l 99.99,-1.02 c -0.11,-10.82 -0.52,-21.8 -1.24,-32.65 z m -1174.79,-53.39 c -1.8,10.7 -3.34,21.53 -4.56,32.21 l 99.34,11.4 c 1.03,-8.93 2.32,-18.03 3.83,-27.01 z m 1166.89,-11.53 -98.43,17.59 c 1.58,8.85 2.93,17.87 4.02,26.83 l 99.27,-12.07 c -1.32,-10.79 -2.95,-21.68 -4.86,-32.35 z M 1485.42,956.59 c -2.86,10.351 -5.51,20.961 -7.85,31.5 l 97.61,21.7 c 1.97,-8.87 4.2,-17.798 6.62,-26.52 z m 1137.83,-11.668 -95.92,28.258 c 2.56,8.691 4.9,17.531 6.96,26.261 l 97.33,-22.941 c -2.47,-10.508 -5.29,-21.129 -8.37,-31.578 z m -1117.3,-49.93 c -3.94,10.067 -7.66,20.34 -11.05,30.547 l 94.88,31.582 c 2.86,-8.59 5.98,-17.23 9.3,-25.711 z m 1095.44,-11.57 -92.25,38.59 c 3.5,8.367 6.8,16.89 9.8,25.34 l 94.22,-33.493 c -3.61,-10.16 -7.57,-20.398 -11.77,-30.437 z M 1532.71,835.809 c -4.96,9.613 -9.73,19.461 -14.15,29.273 l 91.13,41.168 c 3.72,-8.238 7.72,-16.52 11.88,-24.578 z m 1040.22,-11.118 -87.46,48.469 c 4.35,7.86 8.56,15.981 12.51,24.102 l 89.98,-43.614 c -4.74,-9.769 -9.79,-19.507 -15.03,-28.957 z m -1007.4,-45.043 c -5.9,8.961 -11.67,18.274 -17.15,27.641 l 86.33,50.473 c 4.6,-7.871 9.43,-15.66 14.37,-23.172 z m 972.72,-10.207 -81.66,57.719 c 5.21,7.371 10.28,14.969 15.07,22.602 l 84.69,-53.18 c -5.75,-9.16 -11.84,-18.293 -18.1,-27.141 z M 1604.2,727.199 c -6.89,8.352 -13.64,17.012 -20.06,25.723 l 80.51,59.308 c 5.35,-7.261 10.98,-14.48 16.71,-21.441 z m 893.49,-8.89 -74.79,66.371 c 5.93,6.691 11.79,13.679 17.42,20.781 l 78.35,-62.152 c -6.77,-8.539 -13.83,-16.938 -20.98,-25 z m -849.21,-39.168 c -7.77,7.539 -15.46,15.429 -22.83,23.449 l 73.56,67.73 c 6.12,-6.64 12.49,-13.179 18.92,-19.422 z m 803.3,-7.18 -67.05,74.199 c 6.65,6 13.25,12.301 19.62,18.731 l 71.02,-70.391 c -7.65,-7.719 -15.59,-15.301 -23.59,-22.539 z m -753.73,-35.719 c -8.61,6.617 -17.17,13.61 -25.43,20.77 l 65.48,75.59 c 6.8,-5.903 13.84,-11.653 20.92,-17.102 z m 703.01,-5.25 -58.48,81.117 c 7.39,5.332 14.64,10.86 21.55,16.442 l 62.86,-77.77 c -8.33,-6.73 -17.06,-13.39 -25.93,-19.789 z M 1752.4,599.281 c -9.42,5.617 -18.75,11.578 -27.75,17.699 l 56.28,82.661 c 7.37,-5.02 15.03,-9.911 22.76,-14.52 z m 593.58,-3.472 -49.07,87.132 c 7.79,4.391 15.63,9.09 23.27,13.969 l 53.8,-84.289 c -9.18,-5.859 -18.6,-11.519 -28,-16.812 z M 1810.72,568.98 c -10.02,4.469 -20,9.27 -29.66,14.301 l 46.15,88.711 c 7.87,-4.09 16.01,-8.023 24.19,-11.66 z m 476.67,-2.019 -39.11,92.027 c 8.23,3.504 16.52,7.301 24.62,11.293 l 44.21,-89.691 c -9.77,-4.82 -19.77,-9.399 -29.72,-13.629 z m -415.22,-21.109 c -10.44,3.238 -20.89,6.82 -31.07,10.648 l 35.22,93.602 c 8.33,-3.153 16.9,-6.082 25.45,-8.723 z m 352.34,-1.082 -26.01,96.57 c 4.05,1.09 8.12,2.211 12.2,3.379 4.12,1.371 8.21,2.801 12.27,4.269 l 34.13,-93.996 c -5.29,-1.922 -10.61,-3.773 -15.97,-5.543 l -1.8,-0.547 c -4.95,-1.433 -9.89,-2.8 -14.82,-4.132 z m -62.6,-13.969 -17.55,98.461 c 8.99,1.597 18.04,3.41 27.18,5.449 l 21.85,-97.57 c -10.46,-2.352 -21.05,-4.481 -31.48,-6.34 z m -226.08,-0.672 c -10.74,2 -21.53,4.332 -32.07,6.941 l 24.01,97.071 c 8.66,-2.141 17.52,-4.051 26.34,-5.692 z m 162.12,-7.699 -8.23,99.672 c 8.97,0.738 18.17,1.73 27.33,2.929 l 13.05,-99.14 c -10.75,-1.422 -21.57,-2.582 -32.15,-3.461 z m -97.37,-0.621 c -10.83,0.8 -21.74,1.89 -32.42,3.25 l 12.67,99.203 c 8.9,-1.153 17.99,-2.051 27.03,-2.723 z m 45.03,-1.598 c -4.15,-0.02 -8.32,0.019 -12.49,0.109 l 1.91,99.981 c 3.5,-0.071 7.09,-0.121 10.53,-0.09 5.58,0 11.14,0.098 16.74,0.289 l 3.34,-99.949 c -6.72,-0.219 -13.4,-0.34 -20.03,-0.34"
         style="fill:#17282f;fill-opacity:1;fill-rule:nonzero;stroke:none"
         id="path278" /><path
         d="m 2208.79,645.07 c -257.79,-85.558 -536.12,54.059 -621.68,311.852 -85.56,257.778 54.06,536.118 311.85,621.678 257.78,85.56 536.12,-54.06 621.68,-311.85 85.56,-257.79 -54.06,-536.121 -311.85,-621.68 z m -336.86,1014.96 c -302.76,-100.48 -466.74,-427.38 -366.26,-730.139 100.49,-302.762 427.39,-466.743 730.15,-366.262 302.76,100.492 466.74,427.391 366.25,730.151 -100.48,302.76 -427.38,466.74 -730.14,366.25"
         style="fill:#17282f;fill-opacity:1;fill-rule:nonzero;stroke:none"
         id="path280" /><path
         d="m 2055.32,1599.04 c -51.92,0 -104.07,-8.35 -154.79,-25.18 -124.19,-41.23 -224.89,-128.33 -283.56,-245.3 -58.67,-116.96 -68.28,-249.76 -27.06,-373.951 68.14,-205.32 259.94,-335.578 465.3,-335.597 51.05,-0.012 102.9,8.039 153.94,24.976 124.19,41.223 224.89,128.332 283.56,245.293 58.67,116.959 68.28,249.759 27.06,373.949 -41.21,124.19 -128.33,224.89 -245.29,283.57 -69.19,34.7 -143.94,52.24 -219.16,52.24 z m -0.1,-990.028 c -209.57,0 -405.26,132.918 -474.8,342.449 -86.83,261.589 55.36,545.059 316.96,631.889 126.73,42.07 262.24,32.24 381.59,-27.62 119.34,-59.86 208.23,-162.64 250.29,-289.35 86.83,-261.6 -55.36,-545.048 -316.96,-631.88 -52.07,-17.289 -105.01,-25.488 -157.08,-25.488"
         style="fill:#dadbd8;fill-opacity:1;fill-rule:nonzero;stroke:none"
         id="path282" /><path
         d="m 4231.93,1773.14 c -136.56,-45.21 -247.26,-81.74 -247.31,-81.61 -0.04,0.13 110.59,36.87 247.15,82.08 136.47,45.18 247.2,81.72 247.24,81.59 0.04,-0.13 -110.61,-36.88 -247.08,-82.06"
         style="fill:#dadbd8;fill-opacity:1;fill-rule:nonzero;stroke:none"
         id="path284" /><path
         d="m 4246,1694.25 c -143.85,-1.32 -260.42,-2.29 -260.42,-2.15 0,0.14 116.57,1.32 260.41,2.65 143.75,1.32 260.34,2.28 260.34,2.14 0.01,-0.13 -116.59,-1.32 -260.33,-2.64"
         style="fill:#dadbd8;fill-opacity:1;fill-rule:nonzero;stroke:none"
         id="path286" /><path
         d="m 4230.04,1616 c -131.1,59.2 -237.3,107.27 -237.25,107.4 0.06,0.12 106.35,-47.75 237.46,-106.95 131.01,-59.15 237.24,-107.24 237.18,-107.36 -0.06,-0.12 -106.37,47.76 -237.39,106.91"
         style="fill:#dadbd8;fill-opacity:1;fill-rule:nonzero;stroke:none"
         id="path288" /><path
         d="m 4182.62,1551.47 c -97.75,105.55 -176.88,191.15 -176.78,191.24 0.1,0.1 79.4,-85.36 177.14,-190.9 97.68,-105.47 176.82,-191.09 176.72,-191.18 -0.1,-0.1 -79.41,85.38 -177.08,190.84"
         style="fill:#dadbd8;fill-opacity:1;fill-rule:nonzero;stroke:none"
         id="path290" /><path
         d="m 4116.43,1505.88 c -66.42,127.6 -120.15,231.05 -120.03,231.11 0.12,0.06 54.03,-103.29 120.45,-230.89 66.37,-127.51 120.11,-230.99 120,-231.05 -0.12,-0.06 -54.05,103.32 -120.42,230.83"
         style="fill:#dadbd8;fill-opacity:1;fill-rule:nonzero;stroke:none"
         id="path292" /><path
         d="m 4042,1475.53 c -41.8,137.64 -75.57,249.22 -75.43,249.26 0.14,0.05 34.13,-111.46 75.94,-249.1 41.77,-137.55 75.55,-249.15 75.41,-249.19 -0.14,-0.05 -34.14,111.49 -75.92,249.03"
         style="fill:#dadbd8;fill-opacity:1;fill-rule:nonzero;stroke:none"
         id="path294" /><path
         d="m 3962.64,1463.3 c -1.46,143.84 -2.53,260.41 -2.39,260.41 0.14,0 1.44,-116.57 2.9,-260.41 1.46,-143.74 2.53,-260.34 2.39,-260.34 -0.14,0 -1.44,116.59 -2.9,260.34"
         style="fill:#dadbd8;fill-opacity:1;fill-rule:nonzero;stroke:none"
         id="path296" /><path
         d="m 3883.1,1473.93 c 39.1,138.43 70.88,250.59 71.02,250.55 0.13,-0.03 -31.45,-112.25 -70.54,-250.69 -39.07,-138.34 -70.87,-250.52 -71,-250.48 -0.13,0.04 31.46,112.28 70.52,250.62"
         style="fill:#dadbd8;fill-opacity:1;fill-rule:nonzero;stroke:none"
         id="path298" /><path
         d="m 3809.75,1506.4 c 76.16,122.03 137.97,220.87 138.09,220.8 0.11,-0.07 -61.51,-99.03 -137.67,-221.06 -76.11,-121.95 -137.94,-220.81 -138.05,-220.74 -0.12,0.07 61.52,99.05 137.63,221"
         style="fill:#dadbd8;fill-opacity:1;fill-rule:nonzero;stroke:none"
         id="path300" /><path
         d="m 3748.4,1558.05 c 107.32,95.79 194.36,173.34 194.45,173.24 0.09,-0.1 -86.81,-77.81 -194.13,-173.6 -107.24,-95.72 -194.3,-173.29 -194.39,-173.18 -0.09,0.1 86.83,77.82 194.07,173.54"
         style="fill:#dadbd8;fill-opacity:1;fill-rule:nonzero;stroke:none"
         id="path302" /><path
         d="m 3704.06,1624.93 c 129.98,61.63 235.36,111.47 235.42,111.34 0.06,-0.12 -105.23,-50.16 -235.21,-111.78 -129.89,-61.58 -235.3,-111.43 -235.36,-111.31 -0.06,0.12 105.25,50.17 235.15,111.75"
         style="fill:#dadbd8;fill-opacity:1;fill-rule:nonzero;stroke:none"
         id="path304" /><path
         d="m 3680.18,1701.61 c 142,23.02 257.09,41.56 257.11,41.42 0.03,-0.14 -115.03,-18.91 -257.02,-41.93 -141.9,-23 -257.02,-41.54 -257.04,-41.4 -0.02,0.14 115.06,18.91 256.95,41.91"
         style="fill:#dadbd8;fill-opacity:1;fill-rule:nonzero;stroke:none"
         id="path306" /><path
         d="m 3678.78,1781.86 c 142.71,-18.01 258.36,-32.71 258.34,-32.85 -0.02,-0.13 -115.69,14.35 -258.41,32.36 -142.62,18 -258.28,32.7 -258.27,32.84 0.02,0.14 115.72,-14.35 258.34,-32.35"
         style="fill:#dadbd8;fill-opacity:1;fill-rule:nonzero;stroke:none"
         id="path308" /><path
         d="m 3700,1859.24 c 131.97,-57.26 238.87,-103.76 238.81,-103.89 -0.05,-0.12 -107.04,46.18 -239,103.44 -131.87,57.21 -238.8,103.72 -238.74,103.85 0.05,0.12 107.06,-46.19 238.93,-103.4"
         style="fill:#dadbd8;fill-opacity:1;fill-rule:nonzero;stroke:none"
         id="path310" /><path
         d="m 3741.98,1927.58 c 110.74,-91.81 200.41,-166.29 200.33,-166.4 -0.09,-0.1 -89.9,74.22 -200.65,166.03 -110.66,91.74 -200.35,166.25 -200.27,166.35 0.09,0.1 89.92,-74.23 200.59,-165.98"
         style="fill:#dadbd8;fill-opacity:1;fill-rule:nonzero;stroke:none"
         id="path312" /><path
         d="m 3801.43,1981.43 c 80.39,-119.3 145.44,-216.03 145.33,-216.11 -0.11,-0.07 -65.35,96.54 -145.74,215.83 -80.33,119.21 -145.4,215.97 -145.29,216.04 0.11,0.08 65.37,-96.55 145.7,-215.76"
         style="fill:#dadbd8;fill-opacity:1;fill-rule:nonzero;stroke:none"
         id="path314" /><path
         d="m 3873.58,2016.32 c 43.1,-137.24 77.92,-248.49 77.79,-248.53 -0.13,-0.04 -35.16,111.15 -78.26,248.39 -43.07,137.14 -77.9,248.42 -77.77,248.46 0.13,0.04 35.17,-111.17 78.24,-248.32"
         style="fill:#dadbd8;fill-opacity:1;fill-rule:nonzero;stroke:none"
         id="path316" /><path
         d="m 3953.17,2024.24 c -14.38,-143.13 -26.13,-259.11 -26.26,-259.09 -0.13,0.01 11.42,116.01 25.8,259.14 14.36,143.03 26.12,259.04 26.25,259.02 0.13,-0.01 -11.42,-116.04 -25.79,-259.07"
         style="fill:#dadbd8;fill-opacity:1;fill-rule:nonzero;stroke:none"
         id="path318" /><path
         d="m 4030.46,2002.76 c -59.4,-131.01 -107.64,-237.13 -107.76,-237.08 -0.12,0.06 47.92,106.27 107.32,237.28 59.37,130.92 107.61,237.07 107.74,237.02 0.12,-0.06 -47.94,-106.3 -107.3,-237.22"
         style="fill:#dadbd8;fill-opacity:1;fill-rule:nonzero;stroke:none"
         id="path320" /><path
         d="m 4098.89,1960.59 c -89.1,-112.93 -161.4,-204.38 -161.5,-204.3 -0.11,0.09 72.01,91.68 161.11,204.61 89.04,112.85 161.35,204.33 161.45,204.24 0.11,-0.09 -72.02,-91.69 -161.06,-204.55"
         style="fill:#dadbd8;fill-opacity:1;fill-rule:nonzero;stroke:none"
         id="path322" /><path
         d="m 4156.66,1904.63 c -109.62,-93.15 -198.53,-168.54 -198.62,-168.44 -0.09,0.11 88.67,75.68 198.29,168.83 109.54,93.08 198.47,168.49 198.56,168.39 0.1,-0.11 -88.69,-75.7 -198.23,-168.78"
         style="fill:#dadbd8;fill-opacity:1;fill-rule:nonzero;stroke:none"
         id="path324" /><path
         d="m 4202.7,1838.68 c -125.31,-70.66 -226.91,-127.81 -226.98,-127.69 -0.07,0.13 101.42,57.48 226.73,128.13 125.22,70.6 226.84,127.77 226.91,127.65 0.07,-0.13 -101.44,-57.49 -226.66,-128.09"
         style="fill:#dadbd8;fill-opacity:1;fill-rule:nonzero;stroke:none"
         id="path326" /><path
         d="m 4115.42,1277.87 c -257.79,-85.56 -536.13,54.06 -621.69,311.85 -85.56,257.78 54.06,536.12 311.85,621.68 257.79,85.56 536.13,-54.06 621.68,-311.85 85.56,-257.79 -54.06,-536.12 -311.84,-621.68 z m -336.87,1014.96 c -302.76,-100.48 -466.74,-427.38 -366.25,-730.14 100.48,-302.76 427.38,-466.74 730.14,-366.26 302.77,100.49 466.74,427.39 366.26,730.15 -100.49,302.76 -427.38,466.74 -730.15,366.25"
         style="fill:#17282f;fill-opacity:1;fill-rule:nonzero;stroke:none"
         id="path328" /><path
         d="m 3961.1,2231.63 c -51.06,0 -102.91,-8.03 -153.95,-24.97 -256.36,-85.09 -395.7,-362.88 -310.62,-619.25 85.09,-256.36 362.89,-395.7 619.24,-310.62 124.19,41.22 224.9,128.33 283.57,245.29 58.67,116.96 68.28,249.76 27.06,373.95 -68.15,205.33 -259.94,335.6 -465.3,335.6 z m 0.75,-989.83 c -209.58,0 -405.27,132.92 -474.81,342.47 -86.82,261.6 55.37,545.05 316.97,631.88 261.55,86.82 545.06,-55.37 631.88,-316.97 86.83,-261.59 -55.37,-545.06 -316.97,-631.89 -52.05,-17.27 -105.01,-25.49 -157.07,-25.49"
         style="fill:#dadbd8;fill-opacity:1;fill-rule:nonzero;stroke:none"
         id="path330" /><path
         d="m 3264.13,2307.32 c -8.6,-2.85 -18.44,-0.65 -24.99,6.42 l -173.87,187.71 c -8.93,9.65 -8.35,24.71 1.3,33.65 9.66,8.92 24.71,8.36 33.65,-1.29 l 173.86,-187.71 c 8.93,-9.64 8.35,-24.71 -1.29,-33.65 -2.58,-2.38 -5.54,-4.09 -8.66,-5.13"
         style="fill:#dadbd8;fill-opacity:1;fill-rule:nonzero;stroke:none"
         id="path332" /><path
         d="m 3912.61,1745.92 -793.35,683.78 46.82,42.89 793.35,-683.78 -46.82,-42.89"
         style="fill:#f2575d;fill-opacity:1;fill-rule:nonzero;stroke:none"
         id="path334" /><path
         d="m 2379.94,1823.87 c -9.52,-3.6 -20.65,-0.78 -27.22,7.68 L 2169.07,2068 c -8.07,10.38 -6.19,25.34 4.2,33.41 10.36,8.08 25.34,6.18 33.41,-4.2 l 183.65,-236.45 c 8.06,-10.39 6.19,-25.35 -4.2,-33.41 -1.93,-1.5 -4.02,-2.66 -6.19,-3.48"
         style="fill:#dadbd8;fill-opacity:1;fill-rule:nonzero;stroke:none"
         id="path336" /><path
         d="m 2801.8,1236.05 -541.93,707.07 50.39,38.63 541.92,-707.07 -50.38,-38.63"
         style="fill:#f2575d;fill-opacity:1;fill-rule:nonzero;stroke:none"
         id="path338" /><path
         d="m 2193.82,1128.69 c 9.01,2.9 390.92,-41.12 427.47,-42.13 36.55,-1.01 256.42,97.26 256.42,97.26 l -111.44,126.07 -572.45,-181.2"
         style="fill:#f2575d;fill-opacity:1;fill-rule:nonzero;stroke:none"
         id="path340" /><path
         d="m 2880.26,1207.43 -819.45,-165.11 -22.12,59.52 791.96,154.89 398.08,1091.98 59.65,-21.75 -408.12,-1119.53"
         style="fill:#f2575d;fill-opacity:1;fill-rule:nonzero;stroke:none"
         id="path342" /><path
         d="m 2535.36,1604.46 -38.34,28.25 706.31,780.55 38.34,-28.26 -706.31,-780.54"
         style="fill:#f2575d;fill-opacity:1;fill-rule:nonzero;stroke:none"
         id="path344" /><path
         d="m 2071.93,1114.42 -43.93,18.38 479.97,533.4 43.93,-18.38 -479.97,-533.4"
         style="fill:#f2575d;fill-opacity:1;fill-rule:nonzero;stroke:none"
         id="path346" /><path
         d="m 2226.85,1166.1 c 27.52,-82.92 -17.39,-172.452 -100.31,-199.971 -82.92,-27.52 -172.45,17.391 -199.97,100.311 -27.52,82.91 17.39,172.44 100.31,199.97 82.92,27.51 172.45,-17.4 199.97,-100.31"
         style="fill:#17282f;fill-opacity:1;fill-rule:nonzero;stroke:none"
         id="path348" /><path
         d="m 2131.94,1135.37 c 10.47,-31.54 -6.61,-65.61 -38.16,-76.08 -31.55,-10.47 -65.62,6.62 -76.09,38.17 -10.47,31.54 6.62,65.61 38.17,76.08 31.55,10.47 65.61,-6.62 76.08,-38.17"
         style="fill:#dadbd8;fill-opacity:1;fill-rule:nonzero;stroke:none"
         id="path350" /><path
         d="m 2351.09,871.691 -4.15,9.098 c 4.83,2.211 585.97,276.461 645.61,304.621 l -175.2,309.02 8.7,4.94 180.51,-318.41 -4.87,-2.3 c -26.35,-12.44 -645.48,-304.629 -650.6,-306.969"
         style="fill:#17282f;fill-opacity:1;fill-rule:nonzero;stroke:none"
         id="path352" /><path
         d="m 3195.56,2517.23 c -1.04,-0.35 -2.12,-0.64 -3.24,-0.84 l -117.01,-21.41 c -12.93,-2.37 -25.34,6.2 -27.7,19.13 -2.37,12.94 6.1,25.41 19.13,27.71 l 117.01,21.41 c 12.93,2.37 25.34,-6.2 27.7,-19.13 2.17,-11.82 -4.8,-23.2 -15.89,-26.87"
         style="fill:#17282f;fill-opacity:1;fill-rule:nonzero;stroke:none"
         id="path354" /><path
         d="m 2168.92,987.68 62.77,6.66 98.52,-150.781 55.72,27.921 -134.22,184.74 -43.47,12.18 -39.32,-80.72"
         style="fill:#17282f;fill-opacity:1;fill-rule:nonzero;stroke:none"
         id="path356" /><path
         d="m 3036.62,1377.47 c 31.58,-95.13 -19.95,-197.84 -115.08,-229.42 -95.13,-31.57 -197.84,19.95 -229.41,115.08 -31.57,95.13 19.95,197.85 115.08,229.42 95.13,31.57 197.84,-19.95 229.41,-115.08"
         style="fill:#dadbd8;fill-opacity:1;fill-rule:nonzero;stroke:none"
         id="path358" /><path
         d="m 2955.19,1350.7 c 16.85,-50.78 -10.65,-105.61 -61.43,-122.47 -50.78,-16.85 -105.61,10.65 -122.46,61.43 -16.86,50.78 10.64,105.61 61.43,122.47 50.77,16.85 105.6,-10.65 122.46,-61.43"
         style="fill:#17282f;fill-opacity:1;fill-rule:nonzero;stroke:none"
         id="path360" /><path
         d="m 2892.35,1998.04 196.24,184.61 c 7.04,6.62 17.89,7.03 25.41,0.96 5.35,-4.33 8,-11.19 6.95,-18 l -128.28,-464.44 265.02,654.79 -28.9,38.53 -335.74,-403.04"
         style="fill:#f2575d;fill-opacity:1;fill-rule:nonzero;stroke:none"
         id="path362" /><path
         d="m 3134.26,1256.43 c -5.12,-9.94 -15.9,-16.28 -27.71,-15.19 l -275.63,25.37 c -15.54,1.44 -26.98,15.19 -25.54,30.73 1.41,15.56 15.18,26.99 30.72,25.55 l 275.63,-25.37 c 15.54,-1.43 26.98,-15.19 25.54,-30.73 -0.33,-3.73 -1.39,-7.23 -3.01,-10.36"
         style="fill:#17282f;fill-opacity:1;fill-rule:nonzero;stroke:none"
         id="path364" /><path
         d="m 3134.26,1256.43 c -0.22,0.09 1.08,2.37 1.99,7.08 0.75,4.59 1.07,12.21 -3.78,19.88 -2.33,3.8 -5.95,7.4 -10.74,9.89 -4.8,2.64 -10.66,2.98 -17.31,3.45 -13.18,1.1 -28.08,2.34 -44.48,3.71 -33.13,2.88 -72.31,6.3 -115.75,10.09 -21.8,1.96 -44.66,4.01 -68.34,6.14 -11.85,1.08 -23.91,2.18 -36.14,3.29 -11.71,2.33 -23.64,-2.98 -28.99,-13.44 -5.41,-10.23 -2.82,-23.68 5.81,-30.97 4.17,-3.77 9.49,-5.93 15.06,-6.41 6.02,-0.56 12,-1.12 17.92,-1.68 23.69,-2.23 46.54,-4.38 68.33,-6.44 43.41,-4.21 82.55,-8 115.66,-11.21 32.84,-3.08 59.69,-6.41 77.77,-7.59 9.03,0.59 15.11,5.15 18.36,8.49 3.35,3.44 4.39,5.86 4.63,5.72 0,0 -0.64,-2.62 -3.85,-6.42 -3.12,-3.7 -9.3,-8.84 -18.98,-9.81 -18.82,0.56 -45.23,3.33 -78.27,5.95 -33.13,2.89 -72.31,6.3 -115.76,10.09 -21.8,1.96 -44.66,4.02 -68.35,6.14 -5.93,0.54 -11.91,1.08 -17.93,1.63 -6.5,0.54 -13.05,3.16 -18.03,7.66 -10.36,8.75 -13.53,24.93 -7,37.24 3.2,6.1 8.37,11.13 14.6,13.9 6.06,2.99 13.58,3.17 19.49,2.31 12.24,-1.14 24.29,-2.26 36.14,-3.37 23.67,-2.23 46.52,-4.39 68.31,-6.44 43.4,-4.21 82.54,-8 115.65,-11.21 16.38,-1.65 31.24,-3.15 44.41,-4.47 6.38,-0.57 13.04,-1.12 18.2,-4.16 5.16,-2.85 8.95,-6.88 11.32,-11.04 4.92,-8.42 4.17,-16.47 3.06,-21.14 -0.61,-2.41 -1.38,-4.14 -1.96,-5.26 -0.58,-1.12 -0.97,-1.64 -1.05,-1.6"
         style="fill:#33535f;fill-opacity:1;fill-rule:nonzero;stroke:none"
         id="path366" /><path
         d="m 3018.66,1212.05 c -12.89,1.68 -23.94,11.23 -26.9,24.65 -3.78,17.13 7.04,34.07 24.16,37.84 l 146.49,32.3 c 17.08,3.77 34.05,-7.05 37.84,-24.17 3.77,-17.13 -7.05,-34.07 -24.17,-37.84 l -146.48,-32.3 c -3.7,-0.8 -7.39,-0.94 -10.94,-0.48"
         style="fill:#17282f;fill-opacity:1;fill-rule:nonzero;stroke:none"
         id="path368" /><path
         d="m 4113.55,1801.14 c 27.52,-82.91 -17.39,-172.44 -100.31,-199.96 -82.92,-27.53 -172.45,17.39 -199.97,100.3 -27.52,82.92 17.39,172.45 100.31,199.97 82.92,27.52 172.45,-17.39 199.97,-100.31"
         style="fill:#17282f;fill-opacity:1;fill-rule:nonzero;stroke:none"
         id="path370" /><path
         d="m 4017.2,1776.82 c 10.48,-31.55 -6.61,-65.61 -38.16,-76.08 -31.55,-10.47 -65.61,6.62 -76.08,38.16 -10.47,31.55 6.61,65.61 38.16,76.09 31.55,10.47 65.61,-6.62 76.08,-38.17"
         style="fill:#dadbd8;fill-opacity:1;fill-rule:nonzero;stroke:none"
         id="path372" /><path
         d="m 3963.8,1959.88 c -7.43,0 -14.89,-0.4 -22.39,-1.19 -55.39,-5.88 -105.18,-32.97 -140.19,-76.3 -35.02,-43.32 -51.06,-97.68 -45.18,-153.08 12.13,-114.35 115.08,-197.49 229.37,-185.38 55.39,5.88 105.18,32.98 140.19,76.3 35.02,43.33 51.06,97.7 45.18,153.09 -5.88,55.39 -32.97,105.17 -76.3,140.18 -37.46,30.28 -83.18,46.38 -130.68,46.38 z m -0.56,-427.12 c -110.24,0 -205.26,83.47 -217.14,195.5 -6.17,58.05 10.65,115.02 47.34,160.42 36.69,45.4 88.87,73.8 146.91,79.95 58.08,6.15 115.02,-10.65 160.42,-47.34 45.4,-36.69 73.8,-88.87 79.95,-146.92 6.17,-58.04 -10.65,-115.02 -47.34,-160.42 -36.69,-45.41 -88.87,-73.81 -146.91,-79.96 -7.8,-0.83 -15.55,-1.23 -23.23,-1.23"
         style="fill:#f2575d;fill-opacity:1;fill-rule:nonzero;stroke:none"
         id="path374" /><path
         d="m 1967.15,2093.24 c 0,0 -23.13,-28.67 -4.03,-50.04 19.09,-21.38 205.06,-0.72 205.06,-0.72 l 54.73,33.83 c 0,0 115.13,121.4 119.93,129.14 4.79,7.74 -7.55,27.03 -20.32,23.8 -12.76,-3.23 -143.05,-66.32 -190.74,-89.19 -58.89,-28.25 -128.8,-13.99 -164.63,-46.82"
         style="fill:#17282f;fill-opacity:1;fill-rule:nonzero;stroke:none"
         id="path376" /><path
         d="m 3168.56,3602.7 c 0.08,0.08 1.04,-0.63 2.81,-2.04 2.23,-1.85 4.74,-3.93 7.65,-6.32 7.4,-6.17 16.79,-14 27.99,-23.35 11.89,-9.76 26.49,-20.78 43.08,-32.56 8.34,-5.88 17.04,-12.03 26.05,-18.39 4.51,-2.94 9.45,-5.73 14.7,-6.01 5.23,-0.38 10.28,2.59 12.6,7.53 2.43,4.83 2.77,10.7 1.23,15.76 -1.65,5.08 -5.08,9.52 -8.95,13.2 -7.92,7.3 -17.37,12.67 -25.74,18.38 -17.04,11.12 -32.61,20.79 -45.7,28.88 -12.45,7.61 -22.88,13.99 -31.1,19.02 -3.21,1.99 -5.98,3.7 -8.43,5.23 -1.92,1.22 -2.9,1.9 -2.85,1.99 0.06,0.09 1.14,-0.4 3.16,-1.45 2.54,-1.37 5.41,-2.93 8.73,-4.71 7.53,-4.18 18.37,-10.34 31.63,-18.19 13.26,-7.86 28.97,-17.34 46.12,-28.36 8.46,-5.68 17.83,-10.86 26.29,-18.57 4.12,-3.9 7.88,-8.64 9.81,-14.49 1.77,-5.87 1.42,-12.41 -1.42,-18.12 -2.64,-5.83 -9.24,-9.77 -15.54,-9.2 -6.32,0.39 -11.57,3.52 -16.23,6.57 -9.01,6.43 -17.71,12.64 -26.04,18.59 -16.52,11.93 -31.07,23.2 -42.81,33.2 -11.77,9.96 -21.01,18.33 -27.38,24.13 -2.76,2.57 -5.15,4.79 -7.26,6.76 -1.64,1.57 -2.47,2.44 -2.4,2.52"
         style="fill:#17282f;fill-opacity:1;fill-rule:nonzero;stroke:none"
         id="path378" /><path
         d="m 3098.74,3685.54 c 0.22,0.11 0.75,-0.69 2.03,-1.72 1.26,-1.1 3.39,-2.19 6.03,-4.1 2.84,-2.01 4.65,-5.67 6.16,-9.59 1.46,-3.97 1.85,-9.52 -1.09,-14.09 -2.71,-4.86 -9.19,-6.35 -13.31,-4.64 -4.29,1.4 -7.23,4.1 -9.49,6.16 -4.41,4.35 -7.53,6.27 -7.41,6.64 0.15,0.48 4.02,-0.99 8.83,-4.95 2.43,-1.86 5.28,-4.08 8.89,-5.09 3.55,-1.13 7.67,-0.09 9.85,3.55 4.42,7.24 -0.37,16.73 -3.85,20.31 -2.2,1.94 -4.37,3.48 -5.47,4.94 -1.16,1.45 -1.34,2.51 -1.17,2.58"
         style="fill:#17282f;fill-opacity:1;fill-rule:nonzero;stroke:none"
         id="path380" /><path
         d="m 3134.3,3732.3 c 0.13,0.17 2.34,-1.16 6.35,-3.55 5.05,-3.11 10.64,-6.54 16.86,-10.36 7.05,-4.51 15.49,-9.78 24.27,-16.73 2.16,-1.78 4.38,-3.66 6.34,-6.14 1.78,-2.41 3.35,-5.06 4.59,-7.95 2.38,-5.64 3.66,-13.01 0.04,-19.31 -3.57,-6.31 -10.79,-9.03 -17.04,-9.05 -3.19,-0.09 -6.32,0.47 -9.22,1.49 -2.97,1.14 -5.34,2.75 -7.71,4.23 -9.31,6.14 -17.15,12.26 -23.73,17.45 -13.12,10.39 -20.51,17.76 -20.08,18.17 0.17,0.15 2.06,-1.57 5.75,-4.43 4.7,-3.6 9.89,-7.57 15.68,-11.99 6.71,-4.93 14.7,-10.88 23.92,-16.77 4.58,-3.07 9.51,-5.4 15.32,-5.09 5.58,0.06 11.57,2.49 14.39,7.53 2.95,5.04 2.01,11.38 -0.15,16.59 -1.11,2.64 -2.54,5.11 -4.17,7.37 -1.6,2.08 -3.69,3.93 -5.77,5.68 -8.45,6.89 -16.78,12.38 -23.64,17.11 -13.85,9.29 -22.32,15.31 -22,15.75"
         style="fill:#17282f;fill-opacity:1;fill-rule:nonzero;stroke:none"
         id="path382" /><path
         d="m 2696.95,2073.01 -8.86,-129.31 c -2.17,-31.61 -0.75,-63.36 4.22,-94.65 l 43.56,-227.97 40.6,-206.42 82.67,-25.64 69.33,62.54 c 0,0 22.76,643.82 27,706.48 4.24,62.65 -30.64,135.56 -30.64,135.56 l -227.88,-220.59"
         style="fill:#ba6258;fill-opacity:1;fill-rule:nonzero;stroke:none"
         id="path384" /><path
         d="m 2690.33,1976.37 258.45,27.42 c 0,0 10.15,151.43 6.84,177.13 -3.32,25.69 -5.35,69.83 -21.67,90.82 -16.31,21 -237.38,-186.25 -237.38,-186.25 l -6.24,-109.12"
         style="fill:#17282f;fill-opacity:1;fill-rule:nonzero;stroke:none"
         id="path386" /><path
         d="m 2404.75,2680.59 c 0,0 523.94,-340.71 541.1,-407.59 l -320.92,-257.86 c 0,0 -479.09,365.26 -527.42,404.48 -48.33,39.22 -187.84,171.64 -81.14,381.71 l 53.94,83.01 361.87,-153 -27.43,-50.75"
         style="fill:#33535f;fill-opacity:1;fill-rule:nonzero;stroke:none"
         id="path388" /><path
         d="m 2945.85,2273.01 c 0.1,-0.13 -1.98,-2.01 -6.06,-5.49 -4.43,-3.7 -10.43,-8.72 -18.01,-15.06 -16.16,-13.22 -39.02,-31.94 -67.33,-55.11 -57.76,-46.69 -137.67,-111.28 -227.9,-184.23 l -1.58,-1.27 -1.61,1.23 c -15.47,11.82 -31.76,24.28 -48.31,36.92 -103.33,79.4 -196.85,151.25 -264.96,203.59 -33.48,26.04 -60.7,47.21 -79.93,62.17 -9.1,7.22 -16.3,12.93 -21.57,17.11 -2.23,1.84 -4.05,3.33 -5.53,4.56 -1.23,1.05 -1.83,1.62 -1.78,1.69 0.06,0.07 0.77,-0.36 2.1,-1.27 1.57,-1.11 3.49,-2.47 5.85,-4.15 5.41,-3.98 12.81,-9.44 22.16,-16.33 19.48,-14.64 47.03,-35.36 80.94,-60.85 68.35,-52.03 162.19,-123.46 265.88,-202.38 16.54,-12.66 32.83,-25.12 48.29,-36.95 l -3.19,-0.04 c 90.67,72.42 170.95,136.54 228.97,182.89 28.73,22.66 51.93,40.95 68.33,53.89 7.82,6.04 14.01,10.82 18.58,14.35 4.27,3.23 6.55,4.85 6.66,4.73"
         style="fill:#17282f;fill-opacity:1;fill-rule:nonzero;stroke:none"
         id="path390" /><path
         d="m 3172.8,1322.99 c 0,0 -61.74,-32.48 -119.22,-39.1 -57.47,-6.63 -144.9,-3.59 -176.98,-2.83 -32.09,0.75 -119.23,-27.98 -131.84,2.02 -12.61,30 26.46,158.29 26.46,158.29 0,0 16.11,-32.79 46.93,-25.31 30.82,7.47 87.92,35.85 87.92,35.85 0,0 17.96,45.9 35.5,51.08 17.54,5.18 21.82,-46.7 21.82,-46.7 0,0 55.87,-52.12 88.45,-59.25 32.57,-7.12 35.54,-16.06 70.61,-9.92 35.06,6.13 54.36,-3.28 54.36,-3.28 0,0 21.76,-25.33 15.65,-37.25 -6.11,-11.92 -19.66,-23.6 -19.66,-23.6"
         style="fill:#17282f;fill-opacity:1;fill-rule:nonzero;stroke:none"
         id="path392" /><path
         d="m 3192.77,1347.27 c -4.93,-13 -19.78,-24.73 -19.78,-24.73 0,0 -61.74,-32.48 -119.22,-39.11 -57.47,-6.62 -144.89,-3.58 -176.99,-2.82 -32.09,0.75 -119.22,-27.98 -131.83,2.02 -3.54,8.19 -4.82,17.05 -3.91,26.58 0,0 95.38,-6.19 138.93,3.37 43.54,9.57 142.81,-2.33 192.09,8.01 49.28,10.33 102.42,33.53 102.42,33.53 l 14.45,12.01 c 3.38,-6.8 6.84,-11.28 3.84,-18.86"
         style="fill:#33535f;fill-opacity:1;fill-rule:nonzero;stroke:none"
         id="path394" /><path
         d="m 3039.06,1403.37 c -0.88,-0.12 0.27,-8.18 -2.77,-17.39 -2.87,-9.25 -8.49,-15.15 -7.85,-15.76 0.4,-0.65 7.49,4.77 10.66,14.86 3.28,10.06 0.66,18.6 -0.04,18.29"
         style="fill:#ffffff;fill-opacity:1;fill-rule:nonzero;stroke:none"
         id="path396" /><path
         d="m 3005.51,1422.88 c -0.9,-0.03 -0.19,-9.8 -4.8,-20.51 -4.42,-10.79 -11.89,-17.12 -11.28,-17.79 0.31,-0.69 9.21,5.05 14.01,16.65 4.92,11.54 2.78,21.91 2.07,21.65"
         style="fill:#ffffff;fill-opacity:1;fill-rule:nonzero;stroke:none"
         id="path398" /><path
         d="m 2980.41,1442.9 c -0.82,0.26 -3.61,-7.14 -8.66,-15.33 -4.99,-8.23 -10.31,-14.07 -9.71,-14.69 0.5,-0.58 6.99,4.54 12.23,13.15 5.28,8.58 6.89,16.69 6.14,16.87"
         style="fill:#ffffff;fill-opacity:1;fill-rule:nonzero;stroke:none"
         id="path400" /><path
         d="m 2822.63,1342.95 c 0.03,-0.39 4.67,-0.44 12.14,0.03 7.47,0.47 17.77,1.52 29.06,3.29 11.29,1.78 21.42,3.93 28.68,5.77 7.26,1.84 11.66,3.31 11.57,3.69 -0.21,0.84 -18.25,-3.04 -40.71,-6.54 -22.44,-3.55 -40.8,-5.38 -40.74,-6.24"
         style="fill:#ffffff;fill-opacity:1;fill-rule:nonzero;stroke:none"
         id="path402" /><path
         d="m 2684.43,1912.85 c 0.36,0.04 1.22,-4.44 2.47,-12.58 1.36,-9.18 3.07,-20.72 5.1,-34.46 4.28,-29.09 10.52,-69.21 18.6,-113.32 8.12,-44.12 16.54,-83.85 22.87,-112.56 2.98,-13.56 5.48,-24.96 7.47,-34.02 1.72,-8.04 2.51,-12.54 2.16,-12.63 -0.34,-0.09 -1.8,4.23 -4.12,12.14 -2.35,7.89 -5.47,19.39 -9.09,33.66 -7.27,28.54 -16.28,68.25 -24.41,112.47 -8.1,44.21 -13.78,84.52 -17.13,113.78 -1.68,14.63 -2.86,26.49 -3.47,34.71 -0.63,8.21 -0.8,12.77 -0.45,12.81"
         style="fill:#6f3530;fill-opacity:1;fill-rule:nonzero;stroke:none"
         id="path404" /><path
         d="m 2537.66,3366.04 c -61.89,-11.08 -136.77,-40.21 -189.24,-74.86 -58.7,-38.76 -133.17,-69.46 -182.84,-119.27 -24.89,-24.96 -43.36,-43.88 -52.91,-77.8 -9.55,-33.93 31.55,-99.46 61.77,-117.6 l 540.84,348.16 c -47.39,41.32 -115.73,52.44 -177.62,41.37"
         style="fill:#17282f;fill-opacity:1;fill-rule:nonzero;stroke:none"
         id="path406" /><path
         d="m 2824.89,2911.1 c 6.11,-0.7 71.28,-20.01 71.28,-20.01 l 55.67,193.3 -142.41,-121.63 15.46,-51.66"
         style="fill:#f2575d;fill-opacity:1;fill-rule:nonzero;stroke:none"
         id="path408" /><path
         d="m 2867.33,3336.96 c 0,0 -77.73,24.72 -182.12,-5.73 -83.04,-24.22 -509.45,-348.66 -533.87,-365.11 -24.42,-16.44 -128.64,-94.69 -158.51,-166.27 -28.01,-67.11 -43.18,-138.74 -17.94,-141.61 10.77,-1.22 56.3,9.63 113.05,20.48 76.21,14.56 172.67,29.13 232.39,14.48 104.21,-25.57 183.06,-103.68 199.34,-88.88 16.28,14.8 436.72,485.16 436.72,485.16 l 14.56,39.16 -103.62,208.32"
         style="fill:#f2575d;fill-opacity:1;fill-rule:nonzero;stroke:none"
         id="path410" /><path
         d="m 2402.04,3158.89 c 0,0 163.47,-332.84 393.21,-177.65 107.37,72.52 112.25,180.32 112.25,180.32 l -28.21,-1.58 c 0,0 -66.12,-167.45 -224.83,-137.41 -128.88,24.4 -204.28,172.78 -204.28,172.78 l -48.14,-36.46"
         style="fill:#17282f;fill-opacity:1;fill-rule:nonzero;stroke:none"
         id="path412" /><path
         d="m 2179.47,2754.32 c 0.03,0.36 5.24,0.04 14.66,-0.84 9.42,-0.79 22.98,-2.7 39.61,-5.76 16.66,-2.98 36.28,-7.66 57.77,-13.92 21.41,-6.5 44.65,-14.73 68.35,-25.01 23.65,-10.46 45.45,-21.97 64.75,-33.3 19.18,-11.55 35.92,-22.8 49.4,-33.02 13.53,-10.15 24.12,-18.83 31.09,-25.22 7.03,-6.32 10.79,-9.94 10.56,-10.21 -0.24,-0.27 -4.46,2.83 -11.86,8.65 -7.34,5.89 -18.23,14.09 -31.95,23.8 -27.39,19.46 -67.11,43.88 -114.08,64.53 -47,20.51 -91.87,33.16 -124.75,40.09 -16.44,3.5 -29.85,5.96 -39.16,7.36 -9.3,1.49 -14.43,2.49 -14.39,2.85"
         style="fill:#17282f;fill-opacity:1;fill-rule:nonzero;stroke:none"
         id="path414" /><path
         d="m 2202.52,2823.66 c 0.15,0.33 3.97,-1.02 10.77,-3.74 6.82,-2.69 16.52,-6.99 28.33,-12.65 23.64,-11.3 55.5,-28.74 88.62,-51.24 33.09,-22.56 61.01,-45.8 80.19,-63.64 9.61,-8.91 17.17,-16.35 22.16,-21.71 5.03,-5.33 7.69,-8.39 7.44,-8.64 -0.26,-0.26 -3.4,2.32 -8.85,7.18 -5.41,4.9 -13.32,11.91 -23.2,20.42 -19.73,17.06 -47.8,39.68 -80.67,62.08 -32.9,22.35 -64.24,40.17 -87.35,52.26 -11.54,6.06 -20.96,10.85 -27.51,14.09 -6.52,3.28 -10.07,5.26 -9.93,5.59"
         style="fill:#17282f;fill-opacity:1;fill-rule:nonzero;stroke:none"
         id="path416" /><path
         d="m 2946.74,3083.85 c 0.54,-0.33 -4.37,-9.47 -14.37,-22.81 -9.91,-13.4 -24.97,-30.77 -42,-49.46 -17.04,-18.7 -32.44,-35.56 -42.99,-48.26 -10.63,-12.62 -16.57,-20.95 -17.25,-20.51 -0.54,0.32 4.37,9.46 14.36,22.8 9.91,13.4 24.98,30.77 42.02,49.47 17.03,18.69 32.43,35.55 42.98,48.25 10.63,12.62 16.58,20.95 17.25,20.52"
         style="fill:#17282f;fill-opacity:1;fill-rule:nonzero;stroke:none"
         id="path418" /><path
         d="m 2302.52,3147.74 -125.06,-78.09 c 3.26,-170.35 160.69,-264.33 261.81,-362.25 18.62,-18.03 113.72,-77.39 113.72,-77.39 l 62.51,67.64 c -122.51,123.53 -328.08,225.79 -312.98,450.09"
         style="fill:#17282f;fill-opacity:1;fill-rule:nonzero;stroke:none"
         id="path420" /><path
         d="m 2912.74,3228.69 c -12.25,52.52 -49.31,99.4 -98.96,120.47 -58.94,25.01 -126.27,12.81 -189.05,0.21 l -19.9,-54.49 c 48.19,18.93 100.17,31.87 151.56,25.56 51.38,-6.31 98.4,-40.94 121.49,-87.28 25.12,-50.44 1.32,-123.06 -10.31,-178.19 29.23,45.33 57.42,121.19 45.17,173.72"
         style="fill:#17282f;fill-opacity:1;fill-rule:nonzero;stroke:none"
         id="path422" /><path
         d="m 2600.44,3358.31 c 0.04,-0.18 -1.76,-0.91 -5.25,-2.15 -4.05,-1.37 -9.12,-3.09 -15.32,-5.19 -6.68,-2.13 -14.83,-4.82 -24.16,-8.32 -9.34,-3.45 -20.11,-7.02 -31.68,-11.85 -23.4,-8.99 -50.73,-21 -80.47,-35.58 -29.58,-14.88 -61.47,-32.51 -93.72,-53.01 -32.13,-20.73 -61.49,-42.33 -87.38,-62.97 -25.68,-20.92 -48.03,-40.72 -65.99,-58.21 -9.22,-8.49 -16.97,-16.78 -24.01,-23.83 -7.08,-7 -12.93,-13.28 -17.67,-18.46 -4.49,-4.75 -8.17,-8.63 -11.11,-11.74 -2.58,-2.64 -4.01,-3.98 -4.14,-3.86 -0.14,0.11 1.02,1.68 3.35,4.55 2.75,3.28 6.19,7.39 10.4,12.41 4.51,5.39 10.16,11.89 17.06,19.11 6.86,7.26 14.45,15.76 23.55,24.45 17.69,17.89 39.89,38.08 65.53,59.3 25.86,20.96 55.3,42.79 87.6,63.63 32.43,20.62 64.57,38.22 94.41,52.94 30.01,14.41 57.62,26.13 81.28,34.72 11.7,4.62 22.59,7.96 32.06,11.16 9.44,3.25 17.7,5.66 24.49,7.5 6.33,1.72 11.5,3.13 15.63,4.25 3.58,0.92 5.49,1.32 5.54,1.15"
         style="fill:#33535f;fill-opacity:1;fill-rule:nonzero;stroke:none"
         id="path424" /><path
         d="m 2269.47,3188.39 c -1.11,-0.91 -9.15,7.04 -17.96,17.75 -8.81,10.73 -15.05,20.15 -13.94,21.07 1.11,0.91 9.15,-7.04 17.97,-17.76 8.8,-10.72 15.05,-20.15 13.93,-21.06"
         style="fill:#33535f;fill-opacity:1;fill-rule:nonzero;stroke:none"
         id="path426" /><path
         d="m 2599.9,2680.77 6.98,7.54 c -0.04,-0.05 -0.09,-0.1 -0.13,-0.15 -2.12,-2.58 -4.32,-5.22 -6.85,-7.39 m 15.08,17.41 c -1.66,1.67 -3.34,3.33 -5.03,5 20.42,22.64 43.14,47.88 66.89,74.31 l 0.61,-3.26 c -20.82,-25.35 -41.65,-50.7 -62.47,-76.05"
         style="fill:#9fa1a1;fill-opacity:1;fill-rule:nonzero;stroke:none"
         id="path428" /><path
         d="m 2609.95,2703.18 c -21.33,20.99 -44.93,41.4 -69.32,61.99 0.61,9.77 1.92,19.53 3.37,29.21 8.54,56.75 22.12,112.74 40.52,167.09 19.27,-9.43 39.78,-16.31 61.41,-19.5 l 30.91,-164.48 c -23.75,-26.43 -46.47,-51.67 -66.89,-74.31"
         style="fill:#cc4341;fill-opacity:1;fill-rule:nonzero;stroke:none"
         id="path430" /><path
         d="m 2645.93,2941.97 c -21.63,3.19 -42.14,10.07 -61.41,19.5 4.78,14.11 9.88,28.11 15.3,41.99 l 37.71,-16.75 8.4,-44.74"
         style="fill:#0f191d;fill-opacity:1;fill-rule:nonzero;stroke:none"
         id="path432" /><path
         d="m 2587.44,2675.84 c -6.51,0 -13.14,3.26 -18.43,7.37 -15.76,12.25 -24.51,31.84 -27.42,51.58 -1.49,10.06 -1.6,20.22 -0.96,30.38 24.39,-20.59 47.99,-41 69.32,-61.99 1.69,-1.67 3.37,-3.33 5.03,-5 -2.7,-3.29 -5.4,-6.58 -8.1,-9.87 l -6.98,-7.54 c -1.87,-1.61 -3.91,-2.95 -6.22,-3.82 -2.04,-0.77 -4.13,-1.11 -6.24,-1.11"
         style="fill:#0f191d;fill-opacity:1;fill-rule:nonzero;stroke:none"
         id="path434" /><path
         d="m 2725.37,3224.54 c 0,0 -57.05,-87.44 -97.31,-187.86 -24.29,-60.57 -81.99,-263.23 -61.82,-301.34 24.08,-45.51 93.64,-80.2 142.44,-96.62 92.09,-30.97 270.52,-90.39 270.52,-90.39 l 27.15,116.31 -257.53,133.62 139.57,333.22 -163.02,93.06"
         style="fill:#ba6258;fill-opacity:1;fill-rule:nonzero;stroke:none"
         id="path436" /><path
         d="m 2571.2,3012.37 251.39,-108.92 c 0,0 61.16,202.9 71.17,245.18 10.01,42.27 -27.14,131.47 -69.95,142.97 -42.81,11.49 -113.08,-7.07 -141.24,-50.83 -28.17,-43.77 -111.37,-228.4 -111.37,-228.4"
         style="fill:#f2575d;fill-opacity:1;fill-rule:nonzero;stroke:none"
         id="path438" /><path
         d="m 2571.2,3012.37 c -0.08,-0.07 0.2,0.88 0.94,2.72 0.84,2.02 1.91,4.58 3.24,7.78 3.13,7.12 7.49,17.04 13.02,29.65 11.49,25.66 28.26,62.74 50.02,108.09 11,22.62 22.87,47.47 37.51,73.33 14.08,26.9 42.6,46.9 74.72,56.33 16.13,4.82 33.4,7.75 51.15,6.94 8.86,-0.36 17.82,-1.39 26.6,-4.66 4.57,-1.37 8.35,-4.12 12.4,-6.48 3.52,-2.97 7.47,-5.59 10.52,-9.08 13.04,-13.23 22.99,-29.36 30.64,-46.62 7.55,-17.31 13.43,-35.79 15.44,-55.28 0.61,-6.57 0.75,-13.19 0.05,-19.79 -0.83,-6.74 -2.55,-12.86 -4.16,-19.03 -3.39,-12.24 -6.75,-24.37 -10.08,-36.37 -6.95,-23.88 -13.74,-47.24 -20.35,-69.96 -13.58,-45.28 -26.38,-87.99 -38.12,-127.13 l -0.73,-2.43 -2.31,1.02 c -75.31,33.14 -138.12,60.78 -182.5,80.32 -21.52,9.59 -38.55,17.18 -50.57,22.54 -5.51,2.51 -9.87,4.49 -13.14,5.98 -2.94,1.36 -4.4,2.08 -4.29,2.13 0.11,0.04 1.79,-0.6 4.94,-1.87 3.43,-1.41 7.98,-3.29 13.74,-5.67 12.25,-5.16 29.59,-12.46 51.51,-21.68 44.28,-18.88 106.95,-45.6 182.09,-77.64 l -3.03,-1.41 c 11.57,39.18 24.2,81.93 37.6,127.26 6.55,22.71 13.3,46.07 20.19,69.95 3.31,11.97 6.66,24.07 10.03,36.29 1.6,6.11 3.29,12.29 4.01,18.29 0.65,6.12 0.53,12.41 -0.06,18.7 -1.92,18.7 -7.64,36.81 -14.99,53.66 -7.42,16.84 -17.15,32.55 -29.5,45.12 -2.91,3.35 -6.58,5.74 -9.86,8.56 -3.7,2.13 -7.19,4.71 -11.22,5.89 -7.83,2.98 -16.63,4.08 -25.07,4.43 -17.05,0.83 -33.87,-1.95 -49.54,-6.57 -31.37,-9.15 -58.63,-28.06 -72.38,-53.93 -14.65,-25.49 -26.74,-50.29 -37.93,-72.76 -22.16,-45.09 -39.43,-81.92 -51.49,-107.32 -5.91,-12.43 -10.56,-22.21 -13.9,-29.24 -1.53,-3.1 -2.75,-5.59 -3.71,-7.56 -0.83,-1.61 -1.35,-2.44 -1.43,-2.5"
         style="fill:#17282f;fill-opacity:1;fill-rule:nonzero;stroke:none"
         id="path440" /><path
         d="m 2947.51,2609.09 80.48,-41.59 c 0,0 40.2,24.4 57.91,-0.15 17.71,-24.55 -1.47,-45.47 -1.47,-45.47 0,0 -32.89,1.55 -36.09,-3.83 -3.21,-5.37 -3.98,-21.82 16.46,-24.68 20.44,-2.87 52.28,5.54 52.28,5.54 0,0 48.33,18.98 50.87,30.57 2.55,11.6 35.2,24.16 36.58,34.86 1.38,10.71 -3.22,30.36 -3.22,30.36 0,0 -31.68,49.5 -38.7,56.31 -7.01,6.8 -156.26,13.63 -156.26,13.63 l -58.84,-55.55"
         style="fill:#ba6258;fill-opacity:1;fill-rule:nonzero;stroke:none"
         id="path442" /><path
         d="m 2940.3,2600.19 c 0,0 40.5,-54.75 52.34,-69 11.85,-14.24 56.57,-27.21 66.51,-36.49 9.94,-9.28 35.25,-39.07 48.07,-34.75 12.83,4.31 20.02,26.3 9.86,38.96 -10.17,12.67 -53.86,27.96 -56.87,42.4 -3.01,14.45 -7.91,39.76 -8.37,44.14 -0.47,4.38 -95.06,32.39 -95.06,32.39 l -16.48,-17.65"
         style="fill:#ba6258;fill-opacity:1;fill-rule:nonzero;stroke:none"
         id="path444" /><path
         d="m 2989.57,2527.75 49.8,26.97 66.14,-10.74 95.8,50.72 c 0,0 -30.94,53.23 -39.66,58.62 -9.72,6.01 -155.2,13.38 -155.3,11.32 l -39.77,20.63 -46.06,-119.59 52.06,-15.39 16.99,-22.54"
         style="fill:#33535f;fill-opacity:1;fill-rule:nonzero;stroke:none"
         id="path446" /><path
         d="m 3154.03,2589.64 c 1,0.87 10.95,-11.57 14.28,-30.41 3.51,-18.82 -1.43,-33.96 -2.67,-33.5 -1.54,0.29 0.87,14.97 -2.45,32.57 -3.08,17.63 -10.49,30.53 -9.16,31.34"
         style="fill:#6f3530;fill-opacity:1;fill-rule:nonzero;stroke:none"
         id="path448" /><path
         d="m 3126.19,2503.5 c 0.38,-1.08 -17.37,-9.49 -41.28,-14.66 -5.87,-1.16 -12.01,-2.32 -17.85,-0.87 -5.99,1.23 -10.2,6.58 -10.64,11.02 -0.72,4.47 0.66,8.04 2.12,9.94 1.49,1.94 2.79,2.43 2.98,2.2 0.67,-0.42 -3.41,-4.38 -1.51,-11.34 0.91,-3.33 3.65,-6.34 8.13,-7.14 4.44,-0.91 9.89,0.1 15.74,1.3 23.15,4.99 41.8,11.19 42.31,9.55"
         style="fill:#6f3530;fill-opacity:1;fill-rule:nonzero;stroke:none"
         id="path450" /><path
         d="m 3199.86,2593.93 c -0.31,-0.18 -3,3.89 -7.7,11.33 -4.72,7.43 -11.37,18.3 -20.02,31.38 -2.17,3.26 -4.49,6.65 -6.97,10.09 -1.28,1.67 -2.55,3.44 -3.95,5.04 l -2.1,2.21 -2.35,0.99 c -8.36,1.96 -18.58,2.47 -28.8,3.25 -20.7,1.36 -43.55,2.23 -67.53,2.99 -19.02,0.51 -37.3,1.01 -54.18,1.46 l 2.4,1.72 c -10.27,-32.5 -19.16,-60.68 -25.87,-81.94 -2.89,-9.44 -5.29,-17.33 -7.25,-23.73 -1.67,-5.52 -2.68,-8.5 -2.96,-8.43 -0.28,0.07 0.19,3.17 1.37,8.85 1.21,5.66 3.16,13.88 5.87,24.15 5.42,20.55 13.73,49.32 24.12,82.61 l 0.55,1.74 1.85,-0.02 c 16.85,-0.21 35.19,-0.6 54.26,-1.2 24.03,-0.77 46.91,-1.78 67.72,-3.41 10.48,-0.98 20.15,-1.47 29.78,-3.92 2.97,-0.86 4.99,-2.76 6.31,-4.63 1.5,-1.8 2.75,-3.63 4.03,-5.4 2.46,-3.59 4.7,-7.07 6.79,-10.43 8.32,-13.43 14.49,-24.59 18.68,-32.35 4.17,-7.76 6.26,-12.18 5.95,-12.35"
         style="fill:#17282f;fill-opacity:1;fill-rule:nonzero;stroke:none"
         id="path452" /><path
         d="m 2966.58,2685.27 c -0.17,-0.32 -4.88,1.75 -13.28,5.75 -9.22,4.54 -21.08,10.38 -35.31,17.39 -29.72,14.89 -70.61,35.78 -115.62,59.13 -19.26,10.05 -37.71,19.69 -54.68,28.54 l -2,1.05 0.87,2.07 c 13.83,32.83 25.83,60.87 34.51,80.64 4.12,9.21 7.56,16.87 10.33,23.03 2.48,5.32 3.95,8.15 4.21,8.04 0.26,-0.11 -0.7,-3.14 -2.72,-8.66 -2.42,-6.31 -5.42,-14.15 -9.03,-23.57 -7.88,-20.1 -19.28,-48.39 -32.77,-81.36 l -1.14,3.12 c 17.01,-8.78 35.51,-18.32 54.82,-28.28 45.01,-23.35 85.63,-44.75 114.91,-60.48 13.93,-7.6 25.54,-13.94 34.56,-18.86 8.1,-4.56 12.51,-7.23 12.34,-7.55"
         style="fill:#6f3530;fill-opacity:1;fill-rule:nonzero;stroke:none"
         id="path454" /><path
         d="m 3090.24,2574.87 c 15.84,-11.22 19.59,-33.15 8.37,-49 -11.21,-15.84 -33.15,-19.59 -48.99,-8.37 -15.84,11.21 -19.59,33.15 -8.38,48.99 11.22,15.84 33.16,19.59 49,8.38"
         style="fill:#17282f;fill-opacity:1;fill-rule:nonzero;stroke:none"
         id="path456" /></g></g></svg>
